<svg width="65" height="34" viewBox="0 0 65 34" fill="none" xmlns="http://www.w3.org/2000/svg">
<path d="M54.3267 5.17564C55.3215 5.24286 56.1819 4.49002 56.2491 3.4952C56.3163 2.50038 55.5635 1.63999 54.5552 1.57278C53.5604 1.50556 52.7 2.2584 52.6328 3.25322C52.6328 3.33388 52.6328 3.41454 52.6328 3.4952C52.7 4.39592 53.426 5.12187 54.3267 5.17564Z" fill="url(#paint0_linear_817_515)"/>
<path d="M27.4655 30.7454H26.0001V29.2666H25.2607V32.9367H26.0001V31.3235H27.4655V32.9367H28.2049V29.2666H27.4655V30.7454Z" fill="#002554"/>
<path d="M31.2029 31.1755C31.1894 31.0814 31.1625 30.9739 31.1222 30.8798C31.0953 30.7857 31.0416 30.6916 31.0012 30.6109C30.9474 30.5302 30.8802 30.4496 30.7996 30.3958C30.7189 30.342 30.6382 30.2883 30.5441 30.2479C30.45 30.2076 30.3559 30.1942 30.2618 30.1673C30.1677 30.1538 30.0602 30.1404 29.9661 30.1404C29.7779 30.1404 29.5896 30.1807 29.4149 30.2479C29.267 30.3151 29.1326 30.4227 29.025 30.5571C28.9175 30.6916 28.8368 30.8394 28.7965 31.0142C28.7427 31.189 28.7158 31.3772 28.7158 31.5654C28.7158 31.767 28.7427 31.9687 28.8099 32.1704C28.9175 32.5064 29.1863 32.7753 29.5224 32.8829C29.7241 32.9501 29.9257 32.977 30.1274 32.977C30.2887 32.977 30.45 32.9635 30.6114 32.9366C30.7727 32.9098 30.9206 32.8425 31.055 32.7619V32.1838C30.9206 32.2645 30.7727 32.3317 30.6248 32.3855C30.4769 32.4392 30.3156 32.4661 30.1543 32.4661C30.0602 32.4661 29.9526 32.4527 29.8585 32.4258C29.7779 32.3989 29.6972 32.3586 29.6165 32.2913C29.5493 32.2376 29.4955 32.1569 29.4552 32.0763C29.4149 31.9821 29.388 31.888 29.3746 31.7939H31.2432V31.767C31.2432 31.6729 31.2432 31.5788 31.2298 31.4713C31.2432 31.3772 31.2298 31.2831 31.2029 31.1755ZM29.388 31.31C29.388 31.2293 29.4149 31.1352 29.4418 31.0545C29.4687 30.9739 29.509 30.9067 29.5628 30.8529C29.6165 30.7991 29.6838 30.7453 29.751 30.7185C29.8316 30.6916 29.9123 30.6647 30.0064 30.6647C30.0871 30.6647 30.1812 30.6781 30.2618 30.7185C30.329 30.7453 30.3828 30.7991 30.4366 30.8529C30.4904 30.9067 30.5173 30.9873 30.5441 31.0545C30.571 31.1352 30.5845 31.2159 30.5845 31.31H29.388Z" fill="#002554"/>
<path d="M34.0529 31.2696C34.0529 30.8932 33.9588 30.6109 33.7571 30.4361C33.5689 30.2479 33.2866 30.1672 32.9102 30.1672C32.7489 30.1672 32.5741 30.1807 32.4128 30.221C32.2514 30.2613 32.0901 30.3017 31.9422 30.3689L31.9691 30.9738C32.0901 30.8797 32.2246 30.8125 32.359 30.7588C32.5069 30.705 32.6547 30.6781 32.8026 30.6781C32.8967 30.6781 32.9908 30.6915 33.0715 30.705C33.1387 30.7184 33.2059 30.7588 33.2597 30.7991C33.3135 30.8529 33.3538 30.9066 33.3673 30.9873C33.3941 31.0814 33.4076 31.1755 33.4076 31.2562H33.2328H33.0581C32.9371 31.2562 32.8161 31.2562 32.6951 31.2696C32.5741 31.2831 32.4531 31.2965 32.3455 31.3234C32.238 31.3503 32.1305 31.3906 32.0363 31.4578C31.9422 31.5116 31.8481 31.5922 31.7809 31.6864C31.7271 31.7536 31.7003 31.8342 31.6734 31.9283C31.6599 32.009 31.6465 32.1031 31.6465 32.1838C31.6465 32.3048 31.6734 32.4257 31.7271 32.5199C31.7809 32.614 31.8481 32.7081 31.9422 32.7753C32.0363 32.8425 32.1305 32.8963 32.2514 32.9366C32.359 32.9769 32.48 32.9904 32.601 32.9904C32.6816 32.9904 32.7623 32.9769 32.8564 32.9635C32.9371 32.9366 33.0177 32.9097 33.0849 32.8694C33.1522 32.8291 33.2194 32.7753 33.2866 32.7215C33.3538 32.6677 33.3941 32.6005 33.4479 32.5199H33.4614C33.4614 32.5871 33.4614 32.6543 33.4748 32.7215C33.4882 32.7887 33.4882 32.8559 33.5017 32.9232H34.1201C34.1066 32.6543 34.0932 32.372 34.0798 32.1031C34.0529 31.8342 34.0529 31.5519 34.0529 31.2696ZM33.4076 31.6998C33.4076 31.7939 33.3941 31.9015 33.3673 31.9956C33.3404 32.0897 33.3 32.1703 33.2597 32.251C33.2059 32.3182 33.1387 32.3854 33.0581 32.4257C32.964 32.4661 32.8698 32.493 32.7623 32.493C32.7085 32.493 32.6547 32.493 32.601 32.4795C32.5472 32.4661 32.5069 32.4526 32.4531 32.4257C32.4128 32.3989 32.3724 32.3585 32.3455 32.3182C32.3187 32.2779 32.3052 32.2241 32.3052 32.1569C32.3052 32.0762 32.3187 31.9956 32.3724 31.9418C32.4128 31.888 32.4665 31.8342 32.5338 31.7939C32.601 31.7536 32.6682 31.7267 32.7489 31.7132C32.8295 31.6998 32.8967 31.6864 32.9774 31.6864H33.4076V31.6998Z" fill="#002554"/>
<path d="M35.4635 28.9978H34.751V32.9368H35.4635V28.9978Z" fill="#002554"/>
<path d="M37.373 32.4393C37.3192 32.4527 37.2655 32.4527 37.2117 32.4527C37.1579 32.4527 37.1041 32.4393 37.0504 32.4124C37.01 32.3855 36.9697 32.3586 36.9428 32.3183C36.9159 32.278 36.9025 32.2242 36.889 32.1839C36.8756 32.1301 36.8756 32.0763 36.8756 32.0225V30.732H37.5074V30.2345H36.8756V29.4683L36.1631 29.6968V32.1166C36.1631 32.2376 36.1765 32.3586 36.2169 32.4796C36.2437 32.5872 36.311 32.6813 36.3782 32.7485C36.4588 32.8291 36.5395 32.8829 36.6471 32.9233C36.768 32.9636 36.889 32.9905 37.01 32.977C37.1041 32.977 37.1848 32.977 37.2789 32.9636C37.373 32.9501 37.4537 32.9367 37.5343 32.9098L37.5074 32.3586C37.4806 32.399 37.4268 32.4258 37.373 32.4393Z" fill="#002554"/>
<path d="M40.2632 30.4629C40.1825 30.3688 40.0884 30.2882 39.9809 30.2344C39.8464 30.1806 39.6985 30.1537 39.5641 30.1537C39.4028 30.1537 39.228 30.194 39.0801 30.2613C38.9323 30.3285 38.7978 30.4495 38.7172 30.5839H38.7037V28.9841H37.9912V32.9231H38.7037V31.5922C38.7037 31.4846 38.7172 31.3905 38.7306 31.283C38.744 31.1754 38.7844 31.0813 38.8382 30.9872C38.8785 30.9066 38.9457 30.8259 39.0264 30.7721C39.107 30.7183 39.2146 30.678 39.3221 30.6915C39.4028 30.6915 39.4969 30.7049 39.5775 30.7452C39.6448 30.799 39.6985 30.8662 39.7254 30.9469C39.7523 31.0275 39.7792 31.1082 39.7792 31.2023C39.7792 31.283 39.7792 31.3771 39.7792 31.4577V32.8962H40.4783V31.1889C40.4783 31.041 40.4648 30.9066 40.4245 30.7721C40.3976 30.678 40.3438 30.5705 40.2632 30.4629Z" fill="#002554"/>
<path d="M42.7101 29.2666H41.9707V32.9367H42.7101V29.2666Z" fill="#002554"/>
<path d="M45.7075 30.4633C45.6268 30.3692 45.5327 30.2885 45.4252 30.2347C45.2908 30.1809 45.1429 30.1541 45.0084 30.1541C44.8337 30.1541 44.6589 30.1809 44.511 30.2616C44.3632 30.3423 44.2287 30.4498 44.1212 30.5842H44.1077V30.2347H43.4355V32.9369H44.1481V31.606C44.1481 31.4984 44.1615 31.4043 44.1749 31.2968C44.1884 31.1892 44.2287 31.0951 44.2825 31.001C44.3228 30.9203 44.39 30.8397 44.4707 30.7859C44.5514 30.7321 44.6589 30.6918 44.7665 30.7052C44.8471 30.7052 44.9412 30.7187 45.0219 30.759C45.0891 30.8128 45.1429 30.88 45.1698 30.9607C45.1966 31.0413 45.2101 31.122 45.2235 31.2161C45.2235 31.2968 45.2235 31.3909 45.2235 31.4715V32.91H45.9226V31.2027C45.9226 31.0548 45.9092 30.9203 45.8688 30.7859C45.8419 30.6784 45.7882 30.5708 45.7075 30.4633Z" fill="#002554"/>
<path d="M48.2489 31.5788C48.1952 31.525 48.1279 31.4713 48.0473 31.4309C47.9801 31.3906 47.8994 31.3637 47.8187 31.3368C47.7381 31.3099 47.6709 31.2831 47.5902 31.2696C47.523 31.2562 47.4558 31.2293 47.3885 31.2024C47.3348 31.1889 47.2944 31.1486 47.2541 31.1217C47.2138 31.0814 47.2003 31.0411 47.2003 30.9873C47.2003 30.9335 47.2138 30.8797 47.2407 30.8394C47.2675 30.7991 47.2944 30.7722 47.3348 30.7453C47.3751 30.7184 47.4154 30.705 47.4692 30.6915C47.523 30.6781 47.5633 30.6781 47.6171 30.6781C47.7246 30.6781 47.8322 30.6915 47.9397 30.705C48.0473 30.7319 48.1548 30.7588 48.2489 30.7991L48.2893 30.2748C48.1683 30.2479 48.0338 30.221 47.9128 30.1941C47.7784 30.1807 47.6574 30.1672 47.523 30.1672C47.3885 30.1672 47.2675 30.1807 47.1331 30.221C47.0121 30.2479 46.8911 30.3017 46.797 30.3689C46.5819 30.5033 46.4609 30.7588 46.4609 31.0142C46.4609 31.1083 46.4744 31.2024 46.5013 31.283C46.555 31.4175 46.6491 31.5385 46.7701 31.6191C46.8374 31.6595 46.8911 31.6864 46.9583 31.7132C47.0256 31.7401 47.0928 31.767 47.16 31.7805C47.2272 31.7939 47.2944 31.8208 47.3482 31.8342C47.402 31.8477 47.4558 31.8746 47.5095 31.9015C47.5499 31.9283 47.5902 31.9552 47.6171 31.9956C47.6305 32.0224 47.644 32.0493 47.6574 32.0762C47.6574 32.1031 47.6709 32.1434 47.6709 32.1703C47.6709 32.2241 47.6574 32.2779 47.6305 32.3182C47.6036 32.3585 47.5633 32.3989 47.523 32.4257C47.4826 32.4526 47.4289 32.4661 47.3751 32.4795C47.3213 32.493 47.2675 32.493 47.2138 32.493C46.9718 32.493 46.7298 32.4257 46.5147 32.3182L46.4744 32.8963C46.6088 32.9366 46.7298 32.9635 46.8642 32.9769C46.9987 33.0038 47.1331 33.0038 47.2675 33.0038C47.402 33.0038 47.5499 32.9904 47.6843 32.95C47.8187 32.9232 47.9397 32.8694 48.0473 32.8022C48.1548 32.735 48.2489 32.6408 48.3027 32.5333C48.3699 32.4123 48.4102 32.2644 48.3968 32.13C48.3968 32.0224 48.3834 31.9149 48.343 31.8073C48.3565 31.7132 48.3027 31.646 48.2489 31.5788Z" fill="#002554"/>
<path d="M50.7628 31.5514C50.7628 31.6589 50.7494 31.753 50.7359 31.8606C50.7225 31.9681 50.6822 32.0622 50.6418 32.1563C50.6015 32.237 50.5343 32.3176 50.4536 32.3714C50.3595 32.4252 50.252 32.4655 50.1444 32.4521C50.0638 32.4521 49.9697 32.4252 49.9024 32.3849C49.8352 32.3311 49.7815 32.2639 49.7546 32.1832C49.7277 32.116 49.7142 32.0622 49.7142 31.995C49.7142 31.9278 49.7142 31.8606 49.7008 31.7934C49.7008 31.7665 49.7008 31.753 49.7008 31.7261C49.7008 31.6992 49.7008 31.6858 49.7008 31.6589V30.2205H48.9883V31.9278C48.9883 32.0622 49.0017 32.2101 49.0421 32.3445C49.0689 32.4655 49.1362 32.5865 49.2034 32.6806C49.284 32.7747 49.3781 32.8554 49.4857 32.9092C49.6201 32.9629 49.7546 32.9898 49.9024 32.9898C50.0772 32.9898 50.2385 32.9495 50.3999 32.8823C50.5477 32.8016 50.6822 32.6941 50.7897 32.5596H50.8032V32.9226H51.4753V30.2205H50.7763L50.7628 31.5514Z" fill="#002554"/>
<path d="M53.5849 30.1673C53.4908 30.1673 53.3967 30.1942 53.3026 30.2345C53.2085 30.2748 53.1412 30.342 53.074 30.4093C53.0203 30.4765 52.9665 30.5437 52.9261 30.6109C52.8858 30.6781 52.8589 30.7588 52.8455 30.8394H52.832V30.221H52.2002V32.9232H52.8993V31.9284C52.8993 31.8612 52.8993 31.7939 52.8993 31.6998C52.8993 31.6192 52.9127 31.5385 52.9261 31.4578C52.9396 31.3772 52.953 31.2965 52.9799 31.2159C53.0068 31.1486 53.0337 31.068 53.074 31.0142C53.1144 30.9604 53.1681 30.9067 53.2353 30.8663C53.3026 30.826 53.3967 30.8126 53.4773 30.8126C53.5311 30.8126 53.5849 30.8126 53.6386 30.826C53.6924 30.826 53.7462 30.8529 53.8 30.8663V30.1538C53.7596 30.1538 53.7328 30.1404 53.6924 30.1404C53.6521 30.1673 53.6252 30.1673 53.5849 30.1673Z" fill="#002554"/>
<path d="M56.4621 31.2696C56.4621 30.8932 56.368 30.6109 56.1663 30.4361C55.9781 30.2479 55.6958 30.1672 55.3194 30.1672C55.158 30.1672 54.9833 30.1807 54.8219 30.221C54.6606 30.2613 54.4993 30.3017 54.3514 30.3689L54.3783 30.9738C54.4993 30.8797 54.6337 30.8125 54.7682 30.7588C54.916 30.705 55.0639 30.6781 55.2118 30.6781C55.3059 30.6781 55.4 30.6915 55.4807 30.705C55.5479 30.7184 55.6151 30.7588 55.6689 30.7991C55.7227 30.8529 55.763 30.9066 55.7764 30.9873C55.8033 31.0814 55.8168 31.1755 55.8168 31.2562H55.642H55.4672C55.3462 31.2562 55.2252 31.2562 55.1043 31.2696C54.9833 31.2831 54.8623 31.2965 54.7547 31.3234C54.6472 31.3503 54.5396 31.3906 54.4455 31.4578C54.3514 31.5116 54.2573 31.5922 54.1901 31.6864C54.1363 31.7536 54.1094 31.8342 54.0826 31.9283C54.0557 32.009 54.0557 32.1031 54.0557 32.1838C54.0557 32.3048 54.0825 32.4257 54.1363 32.5199C54.1901 32.614 54.2573 32.7081 54.3514 32.7753C54.4455 32.8425 54.5396 32.8963 54.6606 32.9366C54.7682 32.9769 54.8892 32.9904 55.0102 32.9904C55.0908 32.9904 55.1715 32.9769 55.2656 32.9635C55.3462 32.9366 55.4269 32.9097 55.4941 32.8694C55.5613 32.8291 55.6286 32.7753 55.6958 32.7215C55.763 32.6677 55.8033 32.6005 55.8571 32.5199H55.8705C55.8705 32.5871 55.8705 32.6543 55.884 32.7215C55.8974 32.7887 55.8974 32.8559 55.9109 32.9232H56.5293C56.5158 32.6408 56.5024 32.372 56.4889 32.1031C56.4755 31.8342 56.4621 31.5519 56.4621 31.2696ZM55.8302 31.6998C55.8302 31.7939 55.8168 31.9015 55.7899 31.9956C55.763 32.0897 55.7227 32.1703 55.6689 32.251C55.6151 32.3182 55.5479 32.3854 55.4672 32.4257C55.3731 32.4661 55.279 32.493 55.1715 32.493C55.1177 32.493 55.0639 32.493 55.0102 32.4795C54.9564 32.4661 54.9161 32.4526 54.8623 32.4257C54.8219 32.3989 54.7816 32.3585 54.7547 32.3182C54.7278 32.2779 54.7144 32.2241 54.7144 32.1569C54.7144 32.0762 54.7278 31.9956 54.7816 31.9418C54.8219 31.888 54.8757 31.8342 54.9429 31.7939C55.0102 31.7536 55.0774 31.7267 55.158 31.7132C55.2387 31.6998 55.3059 31.6864 55.3866 31.6864H55.8168V31.6998H55.8302Z" fill="#002554"/>
<path d="M59.4331 30.4633C59.3524 30.3692 59.2583 30.2885 59.1508 30.2347C59.0163 30.1809 58.8685 30.1541 58.734 30.1541C58.5593 30.1541 58.3845 30.1809 58.2366 30.2616C58.0887 30.3423 57.9543 30.4498 57.8468 30.5842H57.8333V30.2347H57.1611V32.9369H57.8602V31.606C57.8602 31.4984 57.8736 31.4043 57.8871 31.2968C57.9005 31.1892 57.9409 31.0951 57.9946 31.001C58.035 30.9203 58.1022 30.8397 58.1828 30.7859C58.2635 30.7321 58.371 30.6918 58.4786 30.7052C58.5593 30.7052 58.6534 30.7187 58.734 30.759C58.8012 30.8128 58.855 30.88 58.8819 30.9607C58.9088 31.0413 58.9357 31.122 58.9357 31.2161C58.9357 31.2968 58.9357 31.3909 58.9357 31.4715V32.91H59.6347V31.2027C59.6347 31.0548 59.6213 30.9203 59.581 30.7859C59.5675 30.6784 59.5138 30.5708 59.4331 30.4633Z" fill="#002554"/>
<path d="M61.8392 32.4123C61.7451 32.4392 61.651 32.4526 61.5704 32.4526C61.4628 32.4526 61.3418 32.4257 61.2477 32.3854C61.1536 32.3451 61.0729 32.2779 61.0192 32.1838C60.952 32.1031 60.9116 32.009 60.8847 31.9015C60.8578 31.7939 60.8444 31.6864 60.8444 31.5654C60.8444 31.4578 60.8578 31.3503 60.8847 31.2427C60.9116 31.1486 60.952 31.0545 61.0192 30.9738C61.1402 30.7991 61.3553 30.705 61.5569 30.705C61.6376 30.705 61.7182 30.705 61.7989 30.7184C61.8796 30.7319 61.9602 30.7588 62.0274 30.7991L62.0812 30.2479C61.9737 30.2076 61.8527 30.1941 61.7451 30.1807C61.6241 30.1672 61.5166 30.1672 61.3956 30.1672C61.2074 30.1672 61.0192 30.1941 60.8444 30.2748C60.6831 30.342 60.5486 30.4361 60.4277 30.5705C60.3067 30.705 60.226 30.8529 60.1722 31.0142C60.105 31.1889 60.0781 31.3772 60.0781 31.5788C60.0781 31.767 60.105 31.9687 60.1722 32.1434C60.226 32.3048 60.3201 32.4661 60.4277 32.6005C60.5486 32.735 60.6831 32.8291 60.8444 32.8963C61.0326 32.9635 61.2208 33.0038 61.4225 33.0038C61.5435 33.0038 61.6645 33.0038 61.772 32.9904C61.893 32.9769 62.0006 32.95 62.1215 32.9232L62.0947 32.3316C62.0274 32.3585 61.9333 32.3854 61.8392 32.4123Z" fill="#002554"/>
<path d="M64.9197 31.1755C64.9062 31.0814 64.8793 30.9739 64.839 30.8798C64.8121 30.7857 64.7583 30.6916 64.718 30.6109C64.6642 30.5302 64.597 30.4496 64.5164 30.3958C64.4357 30.342 64.355 30.2883 64.2609 30.2479C64.1668 30.2076 64.0727 30.1942 63.9786 30.1673C63.8845 30.1538 63.777 30.1404 63.6829 30.1404C63.4947 30.1404 63.3064 30.1807 63.1317 30.2479C62.9838 30.3151 62.8494 30.4227 62.7418 30.5571C62.6343 30.6916 62.5536 30.8394 62.5133 31.0142C62.4595 31.189 62.4326 31.3772 62.4326 31.5654C62.4326 31.767 62.4595 31.9687 62.5267 32.1704C62.5805 32.3317 62.6746 32.493 62.7956 32.614C62.9166 32.735 63.0779 32.8291 63.2392 32.8829C63.4274 32.9501 63.6425 32.977 63.8442 32.977C64.0055 32.977 64.1668 32.9635 64.3282 32.9366C64.4895 32.9098 64.6374 32.856 64.7718 32.7619V32.1838C64.6374 32.2645 64.4895 32.3317 64.3416 32.3855C64.1937 32.4392 64.0324 32.4661 63.8711 32.4661C63.777 32.4661 63.6694 32.4527 63.5753 32.4258C63.4947 32.3989 63.414 32.3586 63.3333 32.2913C63.2661 32.2376 63.2123 32.1569 63.172 32.0763C63.1317 31.9821 63.1048 31.888 63.0914 31.7939H64.96V31.767C64.96 31.6729 64.96 31.5788 64.9466 31.4713C64.96 31.3772 64.9331 31.2831 64.9197 31.1755ZM63.1048 31.31C63.1048 31.2293 63.1317 31.1352 63.1586 31.0545C63.1855 30.9739 63.2258 30.9067 63.2796 30.8529C63.3333 30.7991 63.4006 30.7453 63.4678 30.7185C63.5484 30.6916 63.6291 30.6647 63.7232 30.6647C63.8039 30.6647 63.898 30.6781 63.9786 30.7185C64.0458 30.7453 64.1131 30.7991 64.1534 30.8529C64.2072 30.9067 64.234 30.9873 64.2609 31.0545C64.2878 31.1352 64.3013 31.2159 64.3013 31.31H63.1048Z" fill="#002554"/>
<path d="M2.67422 32.3313C2.60701 32.3447 2.53979 32.3716 2.45913 32.3851C2.39191 32.3985 2.31125 32.412 2.24403 32.412C2.17681 32.412 2.1096 32.4254 2.04238 32.4254C1.86761 32.4254 1.6794 32.3985 1.51808 32.3313C1.3702 32.2641 1.23577 32.17 1.12822 32.0624C1.02067 31.9414 0.940007 31.807 0.886233 31.6457C0.832459 31.4844 0.792129 31.2962 0.805573 31.1214C0.805573 30.9466 0.832459 30.7719 0.886233 30.5971C0.940007 30.4358 1.02067 30.3013 1.12822 30.1803C1.23577 30.0593 1.3702 29.9652 1.51808 29.898C1.6794 29.8308 1.85417 29.7905 2.04238 29.7905C2.12304 29.7905 2.19025 29.7905 2.25747 29.8039C2.32469 29.8039 2.39191 29.8174 2.44568 29.8308C2.5129 29.8442 2.56667 29.8711 2.63389 29.8846C2.70111 29.9115 2.76833 29.9384 2.83554 29.9787L2.88932 29.3603C2.75488 29.32 2.62045 29.2796 2.48601 29.2527C2.35158 29.2258 2.2037 29.2124 2.06926 29.2124C1.84072 29.2124 1.61218 29.2393 1.38364 29.2931C1.18199 29.3334 0.980339 29.4275 0.805573 29.535C0.630807 29.6426 0.482927 29.7905 0.375378 29.9652C0.240943 30.1535 0.160283 30.382 0.119952 30.6105C0.093065 30.7046 0.0796223 30.7987 0.0661787 30.8928C0.0527352 30.9869 0.0527344 31.0811 0.0527344 31.1886C0.0527344 31.323 0.0661775 31.444 0.079621 31.5785C0.0930646 31.6995 0.133395 31.8204 0.173725 31.9414C0.214056 32.0624 0.281274 32.17 0.348492 32.2775C0.429153 32.3851 0.509814 32.4792 0.617362 32.5598C0.72491 32.6405 0.83246 32.7212 0.940008 32.7749C1.04756 32.8287 1.16855 32.8825 1.28954 32.9228C1.41053 32.9631 1.53152 32.99 1.66596 33.0035C1.80039 33.0169 1.92138 33.0304 2.05582 33.0304C2.19025 33.0304 2.33813 33.0169 2.47257 33.0035C2.60701 32.99 2.75488 32.9497 2.88932 32.9228L2.86243 32.3044C2.79521 32.291 2.74144 32.3179 2.67422 32.3313Z" fill="#002554"/>
<path d="M5.64559 30.5574C5.5246 30.4229 5.36327 30.3288 5.20195 30.2616C5.01374 30.1944 4.81209 30.1541 4.61044 30.1541C4.40878 30.1541 4.20713 30.1809 4.01892 30.2616C3.8576 30.3288 3.69628 30.4229 3.57528 30.5574C3.45429 30.6918 3.34675 30.8397 3.29297 31.0144C3.22575 31.2026 3.18542 31.4043 3.19886 31.5925C3.19886 31.7942 3.22575 31.9824 3.30641 32.1571C3.37363 32.3185 3.46774 32.4663 3.60217 32.6008C3.73661 32.7218 3.88449 32.8159 4.04581 32.8831C4.23402 32.9503 4.42223 32.9906 4.62388 32.9906C4.82553 32.9906 5.01374 32.9637 5.20195 32.8965C5.36327 32.8293 5.5246 32.7352 5.64559 32.6142C5.76658 32.4932 5.87413 32.3453 5.94135 32.1706C6.00856 31.9824 6.04889 31.7942 6.04889 31.5925C6.04889 31.3909 6.02201 31.1892 5.95479 31.0144C5.87413 30.8397 5.76658 30.6918 5.64559 30.5574ZM5.26917 31.8479C5.25573 31.9555 5.2154 32.0496 5.16162 32.1437C5.10785 32.2378 5.04063 32.305 4.95997 32.3588C4.85242 32.4126 4.74487 32.4529 4.62388 32.4395C4.57011 32.4395 4.51633 32.4395 4.44911 32.426C4.39534 32.4126 4.34157 32.3857 4.28779 32.3588C4.23402 32.3185 4.18024 32.2781 4.12647 32.2244C4.08614 32.1706 4.05925 32.1168 4.03237 32.063C4.00548 32.0093 3.99203 31.942 3.97859 31.8748C3.96515 31.8076 3.9517 31.7404 3.93826 31.6732C3.93826 31.6463 3.93826 31.6194 3.92482 31.5925C3.92482 31.5656 3.92482 31.5387 3.92482 31.5119C3.92482 31.4043 3.93826 31.3102 3.96515 31.2161C3.99203 31.122 4.03236 31.0413 4.08614 30.9607C4.13991 30.88 4.22057 30.8262 4.30124 30.7725C4.39534 30.7187 4.48944 30.7052 4.59699 30.7052C4.70454 30.7052 4.81209 30.7187 4.90619 30.7725C4.98686 30.8128 5.06752 30.88 5.12129 30.9472C5.17506 31.0279 5.2154 31.1085 5.24228 31.2027C5.26917 31.2968 5.28261 31.4043 5.28261 31.5119C5.29606 31.6328 5.28261 31.7404 5.26917 31.8479Z" fill="#002554"/>
<path d="M8.25404 31.5514C8.25404 31.6589 8.24059 31.753 8.22715 31.8606C8.21371 31.9681 8.17338 32.0622 8.13305 32.1563C8.09272 32.237 8.0255 32.3176 7.94484 32.3714C7.85073 32.4252 7.74318 32.4655 7.63563 32.4521C7.55497 32.4521 7.46087 32.4252 7.39365 32.3849C7.32644 32.3311 7.27266 32.2639 7.24577 32.1832C7.21889 32.116 7.20544 32.0622 7.20544 31.995C7.20544 31.9278 7.20544 31.8606 7.192 31.7934C7.192 31.7665 7.192 31.753 7.192 31.7261C7.192 31.6992 7.192 31.6858 7.192 31.6589V30.2205H6.47949V31.9278C6.47949 32.0622 6.49293 32.2101 6.53327 32.3445C6.56015 32.4655 6.62737 32.5865 6.69459 32.6806C6.77525 32.7747 6.86935 32.8554 6.9769 32.9092C7.11134 32.9629 7.24577 32.9898 7.39365 32.9898C7.74318 32.9898 8.06583 32.8285 8.28092 32.5596H8.29437V32.9226H8.96655V30.2205H8.26748L8.25404 31.5514Z" fill="#002554"/>
<path d="M11.9643 30.4633C11.8837 30.3692 11.7896 30.2885 11.682 30.2347C11.5476 30.1809 11.3997 30.1541 11.2653 30.1541C11.0905 30.1541 10.9157 30.1809 10.7679 30.2616C10.62 30.3423 10.4856 30.4498 10.378 30.5842H10.3646V30.2347H9.69238V32.9369H10.4049V31.606C10.4049 31.4984 10.4183 31.4043 10.4318 31.2968C10.4452 31.1892 10.4856 31.0951 10.5393 31.001C10.5797 30.9203 10.6469 30.8397 10.7275 30.7859C10.8082 30.7321 10.9157 30.6918 11.0233 30.7052C11.104 30.7052 11.1981 30.7187 11.2787 30.759C11.3459 30.8128 11.3997 30.88 11.4266 30.9607C11.4535 31.0413 11.4804 31.122 11.4804 31.2161C11.4804 31.2968 11.4804 31.3909 11.4804 31.4715V32.91H12.1794V31.2027C12.1794 31.0548 12.166 30.9203 12.1257 30.7859C12.0988 30.6784 12.045 30.5708 11.9643 30.4633Z" fill="#002554"/>
<path d="M14.3724 32.4123C14.2783 32.4392 14.1842 32.4526 14.1036 32.4526C13.996 32.4526 13.875 32.4257 13.7809 32.3854C13.6868 32.3316 13.6061 32.2779 13.5524 32.1837C13.4852 32.1031 13.4448 32.009 13.4179 31.9014C13.3911 31.7939 13.3776 31.6863 13.3776 31.5653C13.3776 31.4578 13.3911 31.3503 13.4179 31.2427C13.4448 31.1486 13.4852 31.0545 13.5524 30.9738C13.6061 30.8932 13.6868 30.826 13.7809 30.7856C13.875 30.7318 13.9826 30.7184 14.0901 30.7184C14.1708 30.7184 14.2514 30.7184 14.3321 30.7318C14.4128 30.7453 14.4934 30.7722 14.5606 30.8125L14.6279 30.2613C14.5203 30.221 14.3993 30.2076 14.2918 30.1941C14.1708 30.1807 14.0632 30.1807 13.9422 30.1807C13.754 30.1807 13.5658 30.2075 13.3776 30.2882C13.2163 30.3554 13.0819 30.4495 12.9609 30.584C12.8399 30.7184 12.7592 30.8663 12.7054 31.0276C12.6382 31.2024 12.6113 31.3906 12.6113 31.5922C12.6113 31.7804 12.6382 31.9821 12.7054 32.1569C12.7592 32.3182 12.8533 32.4795 12.9609 32.6139C13.0819 32.7484 13.2163 32.8425 13.3776 32.9097C13.5658 32.9769 13.754 33.0173 13.9557 33.0173C14.0767 33.0173 14.1977 33.0172 14.3052 33.0038C14.4262 32.9904 14.5338 32.9635 14.6547 32.9366L14.6279 32.3451C14.5472 32.3585 14.4665 32.3854 14.3724 32.4123Z" fill="#002554"/>
<path d="M15.8639 30.2205H15.1514V32.9226H15.8639V30.2205Z" fill="#002554"/>
<path d="M17.315 28.9978H16.6025V32.9368H17.315V28.9978Z" fill="#002554"/>
<path d="M15.5009 29.7643C15.6939 29.7643 15.8504 29.6078 15.8504 29.4147C15.8504 29.2217 15.6939 29.0652 15.5009 29.0652C15.3079 29.0652 15.1514 29.2217 15.1514 29.4147C15.1514 29.6078 15.3079 29.7643 15.5009 29.7643Z" fill="#002554"/>
<path d="M20.2067 30.1807C19.4136 30.1807 18.8086 30.7184 18.8086 31.5922C18.8086 32.3585 19.3194 32.9635 20.2067 32.9635C21.094 32.9635 21.6048 32.3585 21.6048 31.5922C21.6048 30.7184 20.9999 30.1807 20.2067 30.1807ZM20.2067 32.4392C19.6824 32.4392 19.5345 31.9552 19.5345 31.525C19.5345 31.1217 19.7496 30.7318 20.2067 30.7318C20.6638 30.7318 20.8789 31.1083 20.8789 31.525C20.8789 31.9552 20.7445 32.4392 20.2067 32.4392Z" fill="#002554"/>
<path d="M22.423 29.8712V30.2476H21.9121V30.7584H22.423V32.9229H23.122V30.7584H23.727V30.2476H23.1086V29.9115C23.1086 29.7099 23.1758 29.5082 23.4178 29.5082C23.5253 29.5082 23.6329 29.5351 23.7135 29.6023L23.7673 29.0242C23.606 28.9839 23.4312 28.9705 23.2565 28.9705C22.7187 28.9705 22.423 29.3334 22.423 29.8712Z" fill="#002554"/>
<path d="M1.41236 28.2046C1.5468 28.2583 1.69468 28.2315 1.78878 28.1374C1.81567 28.1105 1.84255 28.0701 1.856 28.0298C1.86944 27.9895 1.88289 27.9491 1.88289 27.8954C1.88289 27.855 1.86944 27.8013 1.856 27.7609C1.81567 27.6803 1.74845 27.6131 1.66779 27.5727C1.58713 27.5324 1.49302 27.5324 1.39892 27.5727C1.35859 27.5862 1.31826 27.6131 1.29137 27.6399C1.26448 27.6668 1.2376 27.7072 1.22415 27.7475C1.21071 27.7878 1.19727 27.8282 1.19727 27.8819C1.19727 27.9223 1.21071 27.976 1.22415 28.0164C1.2376 28.0567 1.26448 28.097 1.29137 28.1239C1.3317 28.1508 1.37203 28.1777 1.41236 28.2046Z" fill="#002554"/>
<path d="M2.21728 28.2046C2.25761 28.2181 2.31138 28.2315 2.35171 28.2315C2.39204 28.2315 2.44582 28.2181 2.48615 28.2046C2.56681 28.1643 2.63403 28.0971 2.67436 28.0164C2.6878 27.9761 2.70124 27.9358 2.70124 27.882C2.70124 27.8417 2.6878 27.7879 2.67436 27.7476C2.66091 27.7072 2.63403 27.6669 2.60714 27.64C2.58025 27.6131 2.53992 27.5862 2.49959 27.5728C2.45926 27.5593 2.40549 27.5459 2.36516 27.5459C2.32482 27.5459 2.27105 27.5593 2.23072 27.5728C2.15006 27.6131 2.08284 27.6803 2.04251 27.761C2.02907 27.8013 2.01562 27.8417 2.01562 27.8954C2.01562 27.9358 2.02907 27.9895 2.04251 28.0299C2.05596 28.0702 2.08284 28.1105 2.10973 28.1374C2.13662 28.1509 2.17695 28.1777 2.21728 28.2046Z" fill="#002554"/>
<path d="M17.9871 25.4885H16.3873V25.0717C16.3873 24.8835 16.3604 24.6953 16.3201 24.5205C16.2798 24.3592 16.1991 24.2113 16.105 24.0769C16.0109 23.9559 15.8765 23.8484 15.7286 23.7811C15.5538 23.7005 15.379 23.6736 15.1908 23.6736C15.0161 23.6736 14.8413 23.7005 14.68 23.7543C14.5187 23.808 14.3708 23.8887 14.2363 23.9828C14.1019 24.0769 13.9809 24.1845 13.8599 24.3189C13.7524 24.4399 13.6448 24.5743 13.5507 24.7087C13.4701 24.8297 13.3894 24.9642 13.3222 25.1121C13.255 25.233 13.2012 25.354 13.1609 25.475C13.0533 25.475 12.9458 25.4616 12.8382 25.4347C12.7307 25.4213 12.6231 25.3809 12.529 25.3137C12.529 25.2599 12.5425 25.2196 12.5425 25.1658V24.3861H11.8568V25.0717C11.8568 25.1389 11.8568 25.1927 11.8434 25.2599C11.83 25.3003 11.8165 25.3406 11.7896 25.3809C11.7627 25.4078 11.7224 25.4347 11.6821 25.4481C11.6283 25.4616 11.588 25.4616 11.5342 25.4616H10.5394C10.499 25.4616 10.4587 25.4347 10.4318 25.3944C10.3915 25.3406 10.3781 25.2734 10.3512 25.2062C10.3243 25.1121 10.3108 25.0314 10.2974 24.9373C10.2839 24.8432 10.2571 24.7356 10.2436 24.6281C10.2302 24.5071 10.1898 24.3727 10.1361 24.2651C10.0823 24.1576 10.0151 24.0635 9.93441 23.9828C9.84031 23.9021 9.7462 23.8349 9.62521 23.7946C9.49078 23.7408 9.35634 23.7274 9.20846 23.7274C9.06059 23.7274 8.92615 23.7408 8.79171 23.7677C8.67072 23.7946 8.53629 23.8215 8.41529 23.8618V24.413C8.46907 24.3861 8.53629 24.3727 8.59006 24.3458C8.65728 24.3323 8.71105 24.3189 8.77827 24.3054C8.84549 24.292 8.89926 24.292 8.95304 24.2786C9.00681 24.2786 9.04714 24.2651 9.08747 24.2651C9.18158 24.2651 9.27568 24.292 9.35634 24.3458C9.42356 24.3995 9.47733 24.4668 9.51766 24.534C9.55799 24.6146 9.59833 24.7087 9.61177 24.8029C9.63866 24.897 9.6521 25.0045 9.66554 25.0986C9.67899 25.1658 9.69243 25.233 9.71932 25.3003C9.73276 25.354 9.75965 25.4078 9.78653 25.4616H5.33673C5.2964 25.4616 5.25606 25.4616 5.21573 25.4481C5.18885 25.4347 5.14852 25.4213 5.13507 25.3809C5.10819 25.3406 5.09474 25.2868 5.09474 25.2465C5.0813 25.1658 5.0813 25.0852 5.0813 25.0045V23.8484H4.26124C3.8445 23.8484 3.54874 23.9425 3.34708 24.1307C3.14543 24.3189 3.05133 24.6012 3.05133 24.9776V25.8783C3.05133 25.9724 3.02444 26.0665 2.98411 26.1472C2.93034 26.2413 2.86312 26.322 2.76901 26.3757C2.66146 26.443 2.55392 26.5102 2.43292 26.5371C2.28504 26.5774 2.13717 26.6043 1.98929 26.6043C1.84141 26.6043 1.69353 26.5908 1.54565 26.564C1.4381 26.5371 1.31711 26.4967 1.22301 26.443C1.14234 26.4026 1.06168 26.3489 0.994466 26.2682C0.940692 26.2144 0.900361 26.1472 0.860031 26.0665C0.833144 25.9993 0.806257 25.9321 0.792813 25.8649C0.77937 25.7977 0.779369 25.7439 0.779369 25.6767C0.779369 25.6095 0.77937 25.5422 0.792813 25.475C0.806257 25.4078 0.819699 25.3406 0.846587 25.2734C0.86003 25.2062 0.886918 25.1389 0.927249 25.0852C0.954136 25.0314 0.981022 24.9776 1.02135 24.9238L0.470169 24.6281C0.416395 24.6953 0.36262 24.776 0.32229 24.8566C0.268515 24.9507 0.228186 25.0314 0.201299 25.1255C0.160968 25.2196 0.13408 25.3272 0.120637 25.4213C0.107193 25.5154 0.09375 25.6229 0.09375 25.7305C0.09375 25.8246 0.107193 25.9187 0.120637 25.9993C0.147524 26.1069 0.187853 26.2144 0.241628 26.322C0.295402 26.443 0.376064 26.5505 0.456725 26.6446C0.564273 26.7522 0.671822 26.8463 0.806258 26.9269C0.96758 27.021 1.1289 27.0883 1.31711 27.1286C1.54565 27.1824 1.77419 27.2092 2.00273 27.2092C2.25816 27.2092 2.50014 27.1689 2.74213 27.0883C2.94378 27.021 3.13199 26.9135 3.29331 26.7791C3.44119 26.6581 3.54874 26.5102 3.64284 26.3354C3.7235 26.1741 3.76383 25.9993 3.76383 25.8246V25.0314C3.76383 24.9238 3.77728 24.8163 3.80416 24.7087C3.83105 24.6415 3.87138 24.5743 3.92516 24.5205C3.97893 24.4668 4.05959 24.4399 4.12681 24.4264C4.22091 24.413 4.31502 24.3995 4.39568 24.3995V25.1927C4.39568 25.3272 4.40912 25.4481 4.4629 25.5826C4.50323 25.6767 4.57045 25.7708 4.65111 25.838C4.73177 25.9052 4.81243 25.959 4.90653 25.9859C5.00064 26.0128 5.09474 26.0262 5.20229 26.0262H11.8031C11.9375 26.0262 12.0585 25.9993 12.1795 25.9456C12.2736 25.9052 12.3542 25.838 12.4215 25.7439C12.5559 25.8514 12.7038 25.9187 12.8651 25.959C13.0668 25.9993 13.2819 26.0262 13.4835 26.0262H18.7265V22.2083H18.0274V25.4885H17.9871ZM15.7017 25.4885H13.833C13.8868 25.3272 13.9675 25.1658 14.0616 25.0179C14.1422 24.8835 14.2498 24.7491 14.3573 24.6281C14.4514 24.5205 14.5724 24.4264 14.7069 24.3592C14.8144 24.292 14.9354 24.2651 15.0698 24.2651C15.1505 24.2651 15.2446 24.2786 15.3118 24.3054C15.3925 24.3323 15.4597 24.3861 15.5135 24.4533C15.5807 24.534 15.621 24.6281 15.6479 24.7222C15.6882 24.8566 15.7017 24.9911 15.7017 25.1389V25.4885Z" fill="#002554"/>
<path d="M20.0577 22.2493H19.3721V26.0672H20.0577V22.2493Z" fill="#002554"/>
<path d="M23.3662 23.7279C23.3931 23.7548 23.4335 23.7817 23.4738 23.7952C23.5545 23.8355 23.6486 23.8355 23.7427 23.7952C23.8233 23.7548 23.8905 23.701 23.9309 23.6069C23.9712 23.5263 23.9712 23.4322 23.9309 23.3381C23.9174 23.2977 23.8905 23.2574 23.8637 23.2305C23.8368 23.2036 23.7964 23.1767 23.7561 23.1633C23.6754 23.123 23.5813 23.123 23.4872 23.1633C23.4469 23.1767 23.4066 23.2036 23.3797 23.2305C23.3528 23.2574 23.3259 23.2977 23.3125 23.3381C23.2721 23.4187 23.2721 23.5128 23.3125 23.6069C23.3125 23.6607 23.3259 23.701 23.3662 23.7279Z" fill="#002554"/>
<path d="M25.2473 25.2608C25.2339 25.1667 25.2204 25.0591 25.1935 24.965C25.1666 24.8575 25.1398 24.7634 25.1129 24.6692C25.086 24.5751 25.0591 24.481 25.0322 24.4138L24.36 24.602C24.4004 24.6827 24.4273 24.7634 24.4541 24.8575C24.481 24.9516 24.5079 25.0322 24.5214 25.1129C24.5348 25.1935 24.5482 25.2742 24.5617 25.3549C24.5751 25.4221 24.5751 25.4759 24.5751 25.5431C24.5751 25.8926 24.4945 26.1615 24.3331 26.3497C24.1718 26.5379 23.9164 26.632 23.5803 26.632C23.4459 26.632 23.3114 26.6051 23.1904 26.5648C23.0829 26.5245 22.9754 26.4572 22.8947 26.3631C22.814 26.2825 22.7468 26.1749 22.7065 26.0674C22.6662 25.9464 22.6393 25.8254 22.6393 25.691C22.6393 25.6237 22.6393 25.5565 22.6527 25.4893C22.6662 25.4221 22.6796 25.3549 22.693 25.2876C22.7065 25.2204 22.7334 25.1667 22.7468 25.0994C22.7737 25.0457 22.8006 24.9919 22.8275 24.9381L22.2763 24.6289C22.2225 24.7096 22.1822 24.8037 22.1419 24.8843C22.1015 24.9784 22.0612 25.0726 22.0343 25.1667C22.0074 25.2608 21.9805 25.3683 21.9536 25.4624C21.9402 25.5565 21.9268 25.6506 21.9268 25.7447C21.9268 25.9329 21.9536 26.1211 22.0209 26.3094C22.0881 26.4841 22.1956 26.6454 22.3301 26.7799C22.4779 26.9278 22.6527 27.0353 22.8544 27.1025C23.0963 27.1832 23.3518 27.2235 23.6072 27.2235C23.8492 27.2235 24.0912 27.1832 24.3197 27.1025C24.5214 27.0219 24.6961 26.9009 24.844 26.753C24.9919 26.6051 25.0994 26.4169 25.1801 26.2153C25.2608 26.0002 25.3011 25.7716 25.2876 25.5431C25.2742 25.449 25.2608 25.3549 25.2473 25.2608Z" fill="#002554"/>
<path d="M37.6287 23.123C37.6556 23.1499 37.6959 23.1768 37.7363 23.1902C37.7766 23.2037 37.8304 23.2171 37.8707 23.2171C37.911 23.2171 37.9648 23.2037 38.0051 23.1902C38.0858 23.1499 38.153 23.0827 38.1933 23.002C38.2337 22.9214 38.2337 22.8273 38.1933 22.7332C38.153 22.6525 38.0858 22.5853 38.0051 22.545C37.9648 22.5315 37.911 22.5181 37.8707 22.5181C37.8304 22.5181 37.7766 22.5315 37.7363 22.545C37.6959 22.5584 37.6556 22.5853 37.6287 22.6122C37.6018 22.6391 37.5749 22.6794 37.5615 22.7197C37.5212 22.8004 37.5212 22.8945 37.5615 22.9886C37.5749 23.0558 37.6018 23.0961 37.6287 23.123Z" fill="#002554"/>
<path d="M42.3876 22.2493H41.6885V25.4892H39.8064V25.0724C39.8064 24.8842 39.7795 24.696 39.7392 24.5212C39.6989 24.3599 39.6182 24.212 39.5241 24.0776C39.43 23.9566 39.2955 23.849 39.1477 23.7818C38.9729 23.7012 38.7981 23.6743 38.6099 23.6743C38.4352 23.6743 38.2604 23.7012 38.0991 23.7549C37.9378 23.8087 37.7899 23.8894 37.6554 23.9835C37.521 24.0776 37.4 24.1851 37.279 24.3196C37.1715 24.4406 37.0639 24.575 36.9698 24.7094C36.8892 24.8304 36.8085 24.9649 36.7413 25.1127C36.6741 25.2337 36.6203 25.3547 36.58 25.4757C36.4724 25.4757 36.3649 25.4623 36.2573 25.4354C36.1498 25.4219 36.0422 25.3816 35.9481 25.3144C35.9481 25.2606 35.9616 25.2203 35.9616 25.1665V24.3868H35.2759V25.0724C35.2759 25.1396 35.2759 25.1934 35.2625 25.2606C35.249 25.3009 35.2356 25.3413 35.2087 25.3816C35.1818 25.4085 35.1415 25.4354 35.1012 25.4488C35.0474 25.4623 35.0071 25.4623 34.9533 25.4623H30.5841C30.3825 25.4623 30.1674 25.4219 29.9792 25.3413L29.912 25.3144C29.9254 25.2606 29.9389 25.2203 29.9389 25.1665C29.9523 25.1127 29.9523 25.059 29.9523 25.0052C29.9523 24.9111 29.9389 24.8304 29.9254 24.7363C29.912 24.6422 29.8716 24.5481 29.8313 24.4675C29.791 24.3733 29.7372 24.2927 29.67 24.212C29.6028 24.1314 29.5355 24.0641 29.4414 24.0104C29.3473 23.9432 29.2532 23.9028 29.1457 23.8759C29.0247 23.8356 28.9037 23.8222 28.7827 23.8222C28.6752 23.8222 28.5676 23.8356 28.4735 23.8759C28.3391 23.9163 28.2315 23.9835 28.124 24.0641C27.9895 24.1851 27.8685 24.3196 27.7744 24.4809C27.64 24.7094 27.5459 24.938 27.4787 25.1934C27.4384 25.3682 27.2905 25.4757 27.1157 25.4757H26.8737C26.82 25.4757 26.7796 25.4757 26.7393 25.4623C26.699 25.4488 26.6721 25.4219 26.6452 25.3951C26.6183 25.3547 26.5914 25.3009 26.5914 25.2606C26.578 25.1934 26.5645 25.1127 26.5645 25.0455V22.2493H25.8789V25.18C25.8789 25.3009 25.8923 25.4219 25.9327 25.5429C25.9596 25.6505 26.0133 25.7446 26.0806 25.8118C26.1478 25.8925 26.2419 25.9597 26.336 26C26.457 26.0403 26.5914 26.0672 26.7124 26.0672H27.2098C27.4787 26.0807 27.7476 25.9597 27.8954 25.7311C27.9492 25.7715 28.003 25.8118 28.0568 25.8656C28.124 25.9059 28.1912 25.9462 28.2584 25.9866C28.3391 26.0269 28.4332 26.0538 28.5273 26.0672C28.6348 26.0941 28.7558 26.0941 28.8634 26.0941C29.0247 26.0941 29.186 26.0672 29.3473 26C29.4818 25.9462 29.6028 25.8521 29.6969 25.758C29.6969 25.758 30.0061 26.0672 30.3287 26.0672H35.1953C35.3297 26.0672 35.4507 26.0403 35.5717 25.9866C35.6658 25.9462 35.7465 25.879 35.8137 25.7849C35.9481 25.8925 36.096 25.9597 36.2573 26C36.459 26.0403 36.6741 26.0672 36.8757 26.0672H42.401L42.3876 22.2493ZM29.2532 25.2606C29.2263 25.3278 29.186 25.3816 29.1322 25.4219C29.0785 25.4623 29.0112 25.4892 28.944 25.5026C28.8096 25.5429 28.6617 25.5429 28.5273 25.516C28.4601 25.5026 28.4063 25.4892 28.3391 25.4623C28.2853 25.4488 28.2315 25.4219 28.1778 25.3951C28.1374 25.3816 28.0971 25.3547 28.0702 25.3278C28.0971 25.2068 28.124 25.0993 28.1643 24.9917C28.2046 24.8842 28.2584 24.7901 28.3122 24.696C28.366 24.6153 28.4332 24.5481 28.5004 24.4943C28.5676 24.4406 28.6483 24.4137 28.7424 24.4137C28.823 24.4137 28.9037 24.4406 28.9844 24.4809C29.0516 24.5212 29.1054 24.575 29.1591 24.6422C29.1995 24.7094 29.2398 24.7766 29.2667 24.8439C29.2936 24.9111 29.2936 24.9783 29.307 25.0455C29.307 25.0993 29.2936 25.18 29.2532 25.2606ZM39.1208 25.4892H37.2521C37.3059 25.3278 37.3866 25.1665 37.4807 25.0186C37.5613 24.8842 37.6689 24.7498 37.7764 24.6288C37.884 24.5212 37.9915 24.4271 38.126 24.3599C38.2335 24.2927 38.3545 24.2658 38.4889 24.2658C38.5696 24.2658 38.6503 24.2792 38.7309 24.3061C38.8116 24.333 38.8788 24.3868 38.9326 24.454C38.9998 24.5347 39.0401 24.6288 39.067 24.7229C39.1073 24.8573 39.1208 24.9917 39.1208 25.1396V25.4892Z" fill="#002554"/>
<path d="M43.7589 22.2493H43.0732V26.0672H43.7589V22.2493Z" fill="#002554"/>
<path d="M60.2537 26.9675C60.2671 26.9272 60.2806 26.8869 60.2806 26.8331C60.2806 26.7928 60.2671 26.739 60.2537 26.6987C60.2402 26.6583 60.2134 26.618 60.1865 26.5911C60.1596 26.5642 60.1193 26.5373 60.0789 26.5239C59.9983 26.4836 59.8907 26.4836 59.8101 26.5239C59.7697 26.5373 59.7294 26.5642 59.7025 26.5911C59.6756 26.618 59.6487 26.6583 59.6353 26.6987C59.6218 26.739 59.6084 26.7793 59.6084 26.8331C59.6084 26.8734 59.6218 26.9272 59.6353 26.9675C59.6756 27.0482 59.7428 27.1154 59.8235 27.1557C59.9042 27.1961 60.0117 27.1961 60.0924 27.1557C60.1596 27.1154 60.2268 27.0482 60.2537 26.9675Z" fill="#002554"/>
<path d="M62.9432 25.7307C62.997 25.771 63.0507 25.8113 63.1045 25.8651C63.1717 25.9055 63.239 25.9458 63.3062 25.9861C63.3868 26.0264 63.4809 26.0533 63.575 26.0668C63.6826 26.0937 63.8036 26.0937 63.9111 26.0937C64.0725 26.0937 64.2338 26.0668 64.3817 25.9996C64.6371 25.892 64.8387 25.6769 64.9328 25.4215C64.9866 25.3005 65.0001 25.1526 65.0001 25.0182C65.0001 24.9241 64.9866 24.8434 64.9732 24.7493C64.9328 24.5611 64.8387 24.3863 64.7177 24.225C64.6505 24.1444 64.5833 24.0771 64.4892 24.0234C64.3951 23.9561 64.301 23.9158 64.1934 23.8889C64.0725 23.8486 63.9515 23.8351 63.8305 23.8351C63.7229 23.8351 63.6154 23.8486 63.5213 23.8889C63.3868 23.9293 63.2793 23.9965 63.1717 24.0771C63.0373 24.1981 62.9163 24.3326 62.8222 24.4939C62.6878 24.709 62.5937 24.951 62.5264 25.1929C62.4996 25.2736 62.4592 25.3543 62.3786 25.408C62.3113 25.4484 61.6257 25.4753 61.5316 25.4753H61.1686C61.1283 25.4753 61.0745 25.4484 61.0611 25.408C61.0208 25.3543 61.0073 25.287 60.9804 25.2198C60.9536 25.1257 60.9401 25.0451 60.9267 24.951C60.9132 24.8569 60.8998 24.7493 60.8729 24.6418C60.8595 24.5208 60.8191 24.3863 60.7653 24.2788C60.7116 24.1712 60.6444 24.0771 60.5637 23.9965C60.4696 23.9158 60.3755 23.8486 60.2545 23.8083C60.1201 23.7545 59.9856 23.741 59.8512 23.741C59.7033 23.741 59.5689 23.7545 59.4344 23.7814C59.3134 23.8083 59.179 23.8351 59.058 23.8755V24.4267C59.1118 24.3998 59.1656 24.3863 59.2328 24.3594C59.3 24.346 59.3538 24.3326 59.421 24.3191C59.4882 24.3057 59.542 24.3057 59.5958 24.2922C59.6495 24.2788 59.6899 24.2788 59.7302 24.2788C59.8243 24.2788 59.9184 24.3057 59.9991 24.3594C60.0663 24.4132 60.1201 24.4804 60.1604 24.5477C60.2007 24.6283 60.2276 24.7224 60.2545 24.8165C60.2814 24.9106 60.2948 25.0182 60.3083 25.1123C60.3217 25.1795 60.3351 25.2467 60.362 25.3139C60.3755 25.3677 60.4024 25.4215 60.4293 25.4753H54.5141C54.4066 25.4753 54.299 25.4618 54.2049 25.4484C54.1108 25.4349 54.0167 25.408 53.9226 25.3677C53.9226 25.3408 53.9226 25.3005 53.936 25.2736C53.936 25.2467 53.936 25.2064 53.936 25.1795V22.2219H53.2504V25.0854C53.2504 25.1526 53.2504 25.2064 53.237 25.2736C53.2235 25.3139 53.2101 25.3543 53.1832 25.3946C53.1563 25.4215 53.116 25.4484 53.0756 25.4618C53.0219 25.4753 52.9815 25.4753 52.9278 25.4753H52.6186C52.511 25.4753 52.4035 25.4618 52.3094 25.4484C52.2153 25.4349 52.1212 25.408 52.027 25.3677C52.027 25.3408 52.0271 25.3005 52.0405 25.2736C52.0405 25.2467 52.0405 25.2064 52.0405 25.1795V23.8755H51.3549V25.0854C51.3549 25.1526 51.3549 25.2064 51.3414 25.2736C51.328 25.3139 51.3145 25.3543 51.2877 25.3946C51.2608 25.4215 51.2204 25.4484 51.1801 25.4618C51.1263 25.4753 51.086 25.4753 51.0322 25.4753C50.9381 25.4753 50.844 25.4618 50.7634 25.4349C50.6693 25.408 50.5617 25.3677 50.481 25.3139C50.481 25.287 50.481 25.2736 50.481 25.2467C50.481 25.2198 50.481 25.2064 50.481 25.1795V24.1712H49.782V25.0988C49.782 25.1661 49.782 25.2198 49.7685 25.287C49.7551 25.3274 49.7416 25.3677 49.7148 25.408C49.6879 25.4349 49.6475 25.4618 49.6072 25.4753C49.5534 25.4887 49.5131 25.4887 49.4593 25.4887C49.2846 25.4887 49.1098 25.4349 48.9619 25.3543C48.9485 25.2736 48.935 25.1929 48.9216 25.1123C48.9082 25.0316 48.8813 24.951 48.8678 24.8569C48.8409 24.7762 48.8275 24.6955 48.8006 24.6149C48.7737 24.5342 48.7603 24.467 48.7334 24.3998L48.0612 24.588C48.1015 24.6686 48.1284 24.7493 48.1553 24.8434C48.1822 24.9375 48.2091 25.0182 48.2225 25.0988C48.236 25.1795 48.2494 25.2602 48.2629 25.3408C48.2763 25.408 48.2763 25.4618 48.2763 25.529C48.2763 25.8786 48.1956 26.1474 48.0343 26.3356C47.873 26.5239 47.6176 26.618 47.2815 26.618C47.147 26.618 47.0126 26.5911 46.8916 26.5507C46.7841 26.5104 46.6765 26.4432 46.5959 26.3491C46.5152 26.2684 46.448 26.1609 46.4077 26.0533C46.3673 25.9323 46.3404 25.8113 46.3404 25.6769C46.3404 25.6097 46.3404 25.5425 46.3539 25.4753C46.3673 25.408 46.3808 25.3408 46.3942 25.2736C46.4077 25.2064 46.4345 25.1526 46.448 25.0854C46.4749 25.0316 46.5018 24.9778 46.5286 24.9241L45.9775 24.6149C45.9237 24.6955 45.8834 24.7896 45.843 24.8703C45.8027 24.9644 45.7624 25.0585 45.7355 25.1526C45.7086 25.2467 45.6817 25.3543 45.6548 25.4484C45.6414 25.5425 45.6279 25.6366 45.6279 25.7307C45.6279 25.9189 45.6548 26.1071 45.722 26.2953C45.7893 26.4701 45.8968 26.6314 46.0312 26.7658C46.1791 26.9137 46.3539 27.0213 46.5555 27.0885C46.7975 27.1691 47.0529 27.2095 47.3084 27.2095C47.5235 27.2095 47.7251 27.1826 47.9268 27.1154C48.1015 27.0616 48.2763 26.9675 48.4107 26.8465C48.5452 26.7255 48.6662 26.5911 48.7603 26.4297C48.8544 26.2684 48.9216 26.0802 48.9485 25.9055C49.0426 25.9458 49.1367 25.9861 49.2442 26.013C49.3518 26.0399 49.4728 26.0533 49.5938 26.0533H49.7148C49.8492 26.0533 49.9702 26.0264 50.0912 25.9861C50.1853 25.9458 50.2659 25.8786 50.3332 25.7845C50.4407 25.8651 50.5752 25.9323 50.6961 25.9727C50.844 26.0264 51.0053 26.0533 51.1667 26.0533H51.2877C51.4086 26.0533 51.5162 26.0399 51.6237 25.9996C51.7178 25.9592 51.7851 25.9055 51.8523 25.8382C51.9598 25.9055 52.0674 25.9592 52.1884 25.9996C52.3362 26.0399 52.4841 26.0668 52.6455 26.0533H53.1966C53.3176 26.0533 53.4252 26.0399 53.5327 25.9996C53.5731 25.9861 53.5999 25.9727 53.6268 25.9458C53.6672 25.9189 53.7209 25.8786 53.7478 25.8382C53.8554 25.9055 53.9629 25.9592 54.0839 25.9996C54.2318 26.0399 54.3931 26.0668 54.541 26.0533H62.2845C62.5399 26.0802 62.7953 25.9592 62.9432 25.7307ZM63.2524 24.9778C63.2927 24.8703 63.3331 24.7762 63.4003 24.6821C63.4541 24.6014 63.5213 24.5342 63.5885 24.4804C63.6557 24.4267 63.7364 24.3998 63.8305 24.3998C63.9111 24.3998 63.9918 24.4267 64.0725 24.467C64.1397 24.5073 64.1934 24.5611 64.2472 24.6283C64.2875 24.6955 64.3279 24.7628 64.3548 24.83C64.3817 24.8972 64.3817 24.9644 64.3951 25.0316C64.3951 25.1123 64.3817 25.1929 64.3548 25.2602C64.3279 25.3274 64.2876 25.3812 64.2338 25.4215C64.18 25.4618 64.1128 25.4887 64.0456 25.5021C63.9111 25.5425 63.7633 25.5425 63.6288 25.5156C63.5616 25.5021 63.5078 25.4887 63.4406 25.4618C63.3868 25.4484 63.3331 25.4215 63.2793 25.3946C63.239 25.3812 63.1986 25.3543 63.1717 25.3274C63.1717 25.2064 63.2121 25.0854 63.2524 24.9778Z" fill="#002554"/>
<path d="M60.6968 6.66799H48.2212C45.8282 6.66799 43.8924 8.60386 43.8924 10.9968C43.8924 10.9968 43.8924 12.1126 43.8924 12.1798H41.7952C41.7414 10.0558 40.0072 8.34843 37.8697 8.34843H37.2378V11.5077C37.1975 11.8975 36.8748 12.1933 36.485 12.1933H34.8449C34.6298 8.67108 31.605 5.98237 28.0828 6.19747C24.8563 6.38568 22.2752 8.96684 22.0735 12.1933H20.3527C20.0167 12.1933 19.9091 12.1126 19.8822 12.0857C19.8822 12.0857 19.7747 11.9782 19.7747 11.4942V3.97928C19.7747 1.77455 17.9867 0 15.7819 0H15.1904V12.6638C15.1904 13.8603 15.4593 14.761 15.9836 15.3525C16.5348 15.9709 17.4086 16.2936 18.5916 16.2936H21.1325C21.2938 16.2936 21.4551 16.2936 21.6164 16.2667C21.6702 16.2667 21.724 16.2532 21.8046 16.2532C22.1542 16.2263 22.5037 16.1591 22.8398 16.0381C22.907 16.0112 22.9608 15.9978 23.028 15.9709C24.8967 18.9419 28.8087 19.8561 31.8066 18.0278L31.8873 17.974C31.9142 17.9606 31.9411 17.9337 31.9814 17.9202C32.7746 17.4228 33.4602 16.7506 33.9576 15.9575C34.0248 15.9844 34.0786 16.0112 34.1458 16.0247C34.4012 16.1053 34.6701 16.1726 34.9255 16.2129C35.0331 16.2263 35.1541 16.2398 35.2616 16.2532C35.5305 16.2801 35.7994 16.2801 36.0548 16.2936H36.1355H37.0093C37.5067 16.2936 38.0175 16.2801 38.515 16.2263C38.8914 16.1995 39.2543 16.0919 39.577 15.9037C39.8996 16.0919 40.2626 16.1995 40.639 16.2263C41.0961 16.2667 41.6339 16.2936 42.2657 16.2936H60.1053H60.6699C63.0628 16.2936 64.9987 14.3577 64.9987 11.9782V11.0103C65.0256 8.60386 63.0897 6.66799 60.6968 6.66799ZM31.2286 12.7579C31.1345 14.277 29.817 15.4332 28.2844 15.3256C26.7519 15.2181 25.6092 13.9141 25.7033 12.3949C25.7974 11.0103 26.8997 9.90788 28.2844 9.82722C29.817 9.73312 31.121 10.8893 31.2151 12.4218C31.2286 12.5294 31.2286 12.6504 31.2286 12.7579ZM60.2128 12.6504H48.7589C48.1002 12.6638 47.5625 12.153 47.549 11.5077C47.5356 10.8624 48.0464 10.3112 48.7052 10.2977C48.732 10.2977 48.7455 10.2977 48.7724 10.2977H60.2128C60.8715 10.3112 61.3824 10.8624 61.369 11.5077C61.3421 12.1395 60.8447 12.6369 60.2128 12.6504Z" fill="url(#paint1_linear_817_515)"/>
<path d="M6.88236 5.17564C7.87718 5.24286 8.73757 4.49002 8.80479 3.4952C8.87201 2.50038 8.11917 1.63999 7.1109 1.57278C6.11608 1.50556 5.25569 2.2584 5.18848 3.25322C5.18848 3.33388 5.18848 3.41454 5.18848 3.4952C5.25569 4.39592 5.9682 5.12187 6.88236 5.17564Z" fill="url(#paint2_linear_817_515)"/>
<path d="M9.94821 6.69482H9.3567V12.0185C9.3567 13.3359 8.29466 14.398 6.96375 14.398C6.9503 14.398 6.93686 14.398 6.92342 14.398C5.63284 14.3845 4.5708 13.2956 4.5708 11.9781V10.6876C4.5708 8.48281 2.78281 6.70827 0.591515 6.70827H0V11.9647C0 15.8095 3.10545 18.9553 6.90997 18.9822H6.9503C10.7952 18.9822 13.9006 15.8768 13.9006 12.0319V10.6876C13.9409 8.46937 12.153 6.69482 9.94821 6.69482Z" fill="url(#paint3_linear_817_515)"/>
<defs>
<linearGradient id="paint0_linear_817_515" x1="-0.442" y1="3.37842" x2="64.9038" y2="3.37842" gradientUnits="userSpaceOnUse">
<stop offset="0.01" stop-color="#0067B1"/>
<stop offset="0.17" stop-color="#056DB1"/>
<stop offset="0.39" stop-color="#157FB1"/>
<stop offset="0.65" stop-color="#2D9DB1"/>
<stop offset="0.9" stop-color="#4BC0B1"/>
</linearGradient>
<linearGradient id="paint1_linear_817_515" x1="-0.444099" y1="9.48277" x2="64.9016" y2="9.48277" gradientUnits="userSpaceOnUse">
<stop offset="0.01" stop-color="#0067B1"/>
<stop offset="0.17" stop-color="#056DB1"/>
<stop offset="0.39" stop-color="#157FB1"/>
<stop offset="0.65" stop-color="#2D9DB1"/>
<stop offset="0.9" stop-color="#4BC0B1"/>
</linearGradient>
<linearGradient id="paint2_linear_817_515" x1="-0.444069" y1="3.37842" x2="64.9017" y2="3.37842" gradientUnits="userSpaceOnUse">
<stop offset="0.01" stop-color="#1B6DB5"/>
<stop offset="0.19" stop-color="#1E73B2"/>
<stop offset="0.43" stop-color="#2885AB"/>
<stop offset="0.71" stop-color="#37A39F"/>
<stop offset="0.9" stop-color="#43BB95"/>
</linearGradient>
<linearGradient id="paint3_linear_817_515" x1="-0.443341" y1="12.8245" x2="64.9024" y2="12.8245" gradientUnits="userSpaceOnUse">
<stop offset="0.01" stop-color="#0067B1"/>
<stop offset="0.17" stop-color="#056DB1"/>
<stop offset="0.39" stop-color="#157FB1"/>
<stop offset="0.65" stop-color="#2D9DB1"/>
<stop offset="0.9" stop-color="#4BC0B1"/>
</linearGradient>
</defs>
</svg>
