<svg width="16" height="17" viewBox="0 0 16 17" fill="none" xmlns="http://www.w3.org/2000/svg">
<path d="M9.19095 8.40905L15.7534 1.54832C16.0822 1.20449 16.0822 0.64707 15.7534 0.303278C15.4245 -0.0405459 14.8913 -0.0405459 14.5624 0.303278L7.99999 7.16401L1.43756 0.303278C1.10869 -0.0405459 0.575499 -0.0405459 0.246656 0.303278C-0.0821873 0.647102 -0.0822186 1.20453 0.246656 1.54832L6.80908 8.40905L0.246656 15.2698C-0.0822186 15.6136 -0.0822186 16.171 0.246656 16.5148C0.57553 16.8587 1.10872 16.8586 1.43756 16.5148L7.99999 9.65409L14.5624 16.5148C14.8913 16.8587 15.4245 16.8586 15.7533 16.5148C16.0822 16.171 16.0822 15.6136 15.7533 15.2698L9.19095 8.40905Z" fill="#282727"/>
</svg>
