<svg width="34" height="29" viewBox="0 0 34 29" fill="none" xmlns="http://www.w3.org/2000/svg">
<path d="M11.9567 14.5761C11.8261 14.5628 10.9344 13.1527 10.9344 13.1527L9.16549 12.0889L8.21742 12.8295L7.36619 13.4606C7.1303 13.6428 6.91281 13.8368 6.71374 14.0406L6.61646 15.3957L8.9673 16.2624C8.9673 16.2625 12.0873 14.5896 11.9567 14.5761Z" fill="#FFE0D1"/>
<path d="M11.9567 14.5761C11.8261 14.5628 10.9344 13.1527 10.9344 13.1527L9.16549 12.0889L8.21742 12.8295L7.36619 13.4606C7.1303 13.6428 6.91281 13.8368 6.71374 14.0406L6.61646 15.3957L8.9673 16.2624C8.9673 16.2625 12.0873 14.5896 11.9567 14.5761Z" stroke="#4D464E"/>
<path d="M15.5178 9.11365L14.2234 8.30667C13.5968 7.91603 12.6806 7.99338 12.177 8.47936C11.6734 8.96535 11.7731 9.67607 12.3997 10.0667L13.694 10.8737L14.6113 11.4297L16.7023 9.89464L15.5178 9.11365Z" fill="#FFE0D1"/>
<path d="M15.5178 9.11365L14.2234 8.30667C13.5968 7.91603 12.6806 7.99338 12.177 8.47936C11.6734 8.96535 11.7731 9.67607 12.3997 10.0667L13.694 10.8737L14.6113 11.4297L16.7023 9.89464L15.5178 9.11365Z" stroke="#4D464E"/>
<path d="M9.02357 13.795C9.218 13.5952 9.4304 13.405 9.66085 13.2264L10.2848 12.762L9.16549 12.0889L8.21742 12.8295L7.36619 13.4606C7.1303 13.6428 6.91281 13.8368 6.71374 14.0405L6.61646 15.3956L7.79269 15.8294C8.0165 15.0924 8.43527 14.3991 9.02357 13.795Z" fill="#FFD1C2"/>
<path d="M9.02357 13.795C9.218 13.5952 9.4304 13.405 9.66085 13.2264L10.2848 12.762L9.16549 12.0889L8.21742 12.8295L7.36619 13.4606C7.1303 13.6428 6.91281 13.8368 6.71374 14.0405L6.61646 15.3956L7.79269 15.8294C8.0165 15.0924 8.43527 14.3991 9.02357 13.795Z" stroke="#4D464E"/>
<path d="M11.8708 12.6337L10.5764 11.8267C9.94985 11.436 9.03366 11.5134 8.53006 11.9994C8.02645 12.4854 8.12617 13.1961 8.7527 13.5867L10.0471 14.3937L11.7195 15.5434L13.5208 13.7204L11.8708 12.6337Z" fill="#FFE0D1"/>
<path d="M11.8708 12.6337L10.5764 11.8267C9.94985 11.436 9.03366 11.5134 8.53006 11.9994C8.02645 12.4854 8.12617 13.1961 8.7527 13.5867L10.0471 14.3937L11.7195 15.5434L13.5208 13.7204L11.8708 12.6337Z" stroke="#4D464E"/>
<path d="M13.6943 10.8739L12.3999 10.0669C11.7733 9.6763 10.8571 9.7536 10.3535 10.2396C9.84994 10.7257 9.94966 11.4363 10.5762 11.827L11.8705 12.634L13.5205 13.7208L15.3002 11.8473L13.6943 10.8739Z" fill="#FFE0D1"/>
<path d="M13.6943 10.8739L12.3999 10.0669C11.7733 9.6763 10.8571 9.7536 10.3535 10.2396C9.84994 10.7257 9.94966 11.4363 10.5762 11.827L11.8705 12.634L13.5205 13.7208L15.3002 11.8473L13.6943 10.8739Z" stroke="#4D464E"/>
<path d="M16.7025 9.89464L15.518 9.11365L14.6583 8.57763L13.5105 9.69549C13.4012 9.80197 13.2011 9.81917 13.0643 9.73394L13.0568 9.72925C12.4302 9.33862 12.3306 8.62796 12.8342 8.14192C12.8408 8.13547 12.8482 8.12927 12.8555 8.12312C12.8604 8.11902 12.8652 8.11495 12.8698 8.11084C12.5774 8.18305 12.3097 8.32798 12.1176 8.54106C11.6754 9.03162 11.826 9.70886 12.4275 10.0839L13.6943 10.8737L14.6116 11.4296L15.0453 11.1113L16.7025 9.89464Z" fill="#FFD1C2"/>
<path d="M16.7025 9.89464L15.518 9.11365L14.6583 8.57763L13.5105 9.69549C13.4012 9.80197 13.2011 9.81917 13.0643 9.73394L13.0568 9.72925C12.4302 9.33862 12.3306 8.62796 12.8342 8.14192C12.8408 8.13547 12.8482 8.12927 12.8555 8.12312C12.8604 8.11902 12.8652 8.11495 12.8698 8.11084C12.5774 8.18305 12.3097 8.32798 12.1176 8.54106C11.6754 9.03162 11.826 9.70886 12.4275 10.0839L13.6943 10.8737L14.6116 11.4296L15.0453 11.1113L16.7025 9.89464Z" stroke="#4D464E"/>
<path d="M15.2997 11.8473L13.6938 10.8739L12.8442 10.3443L11.7857 11.3751C11.6591 11.4984 11.4274 11.5184 11.2691 11.4196L11.1502 11.3455C10.6109 11.0093 10.4637 10.4348 10.7536 9.97168C10.5234 10.0761 10.3216 10.234 10.1875 10.4387C9.87297 10.9188 10.062 11.5067 10.6031 11.8441L11.8701 12.634L13.5201 13.7208L14.0225 13.1919L15.2997 11.8473Z" fill="#FFD1C2"/>
<path d="M15.2997 11.8473L13.6938 10.8739L12.8442 10.3443L11.7857 11.3751C11.6591 11.4984 11.4274 11.5184 11.2691 11.4196L11.1502 11.3455C10.6109 11.0093 10.4637 10.4348 10.7536 9.97168C10.5234 10.0761 10.3216 10.234 10.1875 10.4387C9.87297 10.9188 10.062 11.5067 10.6031 11.8441L11.8701 12.634L13.5201 13.7208L14.0225 13.1919L15.2997 11.8473Z" stroke="#4D464E"/>
<path d="M17.4215 16.162L16.8846 16.0655C16.2225 15.9466 15.7556 15.4873 15.7615 14.9606C15.7652 14.6527 15.9279 14.3745 16.1886 14.1734C16.4501 13.9717 16.8095 13.8472 17.2057 13.8461L20.2415 13.8369C20.6886 13.8358 21.1246 13.9443 21.4869 14.1471L25.31 16.2814C25.7298 16.5162 26.0767 16.8201 26.3256 17.1715L27.7529 19.1852L32.8199 22.3442C33.1902 22.5751 33.2426 22.9973 32.9359 23.2787L27.3051 28.4455C27.009 28.7172 26.4874 28.7562 26.1299 28.5332L22.3007 26.1456L22.0916 26.1393C20.8506 26.1039 19.6531 25.7743 18.6595 25.195L16.2616 23.796C16.2616 23.796 12.219 21.4617 12.219 21.3858C12.219 21.3292 15.6201 17.949 17.4215 16.162Z" fill="#FFE0D1"/>
<path d="M17.4215 16.162L16.8846 16.0655C16.2225 15.9466 15.7556 15.4873 15.7615 14.9606C15.7652 14.6527 15.9279 14.3745 16.1886 14.1734C16.4501 13.9717 16.8095 13.8472 17.2057 13.8461L20.2415 13.8369C20.6886 13.8358 21.1246 13.9443 21.4869 14.1471L25.31 16.2814C25.7298 16.5162 26.0767 16.8201 26.3256 17.1715L27.7529 19.1852L32.8199 22.3442C33.1902 22.5751 33.2426 22.9973 32.9359 23.2787L27.3051 28.4455C27.009 28.7172 26.4874 28.7562 26.1299 28.5332L22.3007 26.1456L22.0916 26.1393C20.8506 26.1039 19.6531 25.7743 18.6595 25.195L16.2616 23.796C16.2616 23.796 12.219 21.4617 12.219 21.3858C12.219 21.3292 15.6201 17.949 17.4215 16.162Z" stroke="#4D464E"/>
<path d="M16.2268 15.7939C16.6605 15.3546 17.071 14.9394 17.4197 14.587L16.8995 14.4917C16.6211 14.4408 16.3785 14.3264 16.1933 14.1709L16.1899 14.1733C15.9292 14.3744 15.7664 14.6526 15.7628 14.9605C15.7591 15.2854 15.9358 15.5844 16.2268 15.7939Z" fill="#F8D3AA"/>
<path d="M16.2268 15.7939C16.6605 15.3546 17.071 14.9394 17.4197 14.587L16.8995 14.4917C16.6211 14.4408 16.3785 14.3264 16.1933 14.1709L16.1899 14.1733C15.9292 14.3744 15.7664 14.6526 15.7628 14.9605C15.7591 15.2854 15.9358 15.5844 16.2268 15.7939Z" stroke="#4D464E"/>
<path d="M32.8198 22.3441L32.1296 21.9138L26.9949 26.7151C26.7079 26.9834 26.2025 27.0218 25.8561 26.8017L22.3029 24.544C22.2012 24.4794 22.0748 24.4422 21.9434 24.4381C20.741 24.4032 19.5807 24.0777 18.618 23.5058L16.2946 22.1244C16.2946 22.1244 14.4125 21.017 13.2576 20.3125C12.6372 20.9373 12.219 21.3658 12.219 21.3856C12.219 21.4616 16.2616 23.7958 16.2616 23.7958L18.6595 25.1949C19.6531 25.7742 20.8506 26.1038 22.0916 26.1392L22.3007 26.1455L26.1299 28.533C26.4874 28.756 27.009 28.717 27.3051 28.4453L32.9359 23.2786C33.2425 22.9971 33.1901 22.575 32.8198 22.3441Z" fill="#FFD1C2"/>
<path d="M32.8198 22.3441L32.1296 21.9138L26.9949 26.7151C26.7079 26.9834 26.2025 27.0218 25.8561 26.8017L22.3029 24.544C22.2012 24.4794 22.0748 24.4422 21.9434 24.4381C20.741 24.4032 19.5807 24.0777 18.618 23.5058L16.2946 22.1244C16.2946 22.1244 14.4125 21.017 13.2576 20.3125C12.6372 20.9373 12.219 21.3658 12.219 21.3856C12.219 21.4616 16.2616 23.7958 16.2616 23.7958L18.6595 25.1949C19.6531 25.7742 20.8506 26.1038 22.0916 26.1392L22.3007 26.1455L26.1299 28.533C26.4874 28.756 27.009 28.717 27.3051 28.4453L32.9359 23.2786C33.2425 22.9971 33.1901 22.575 32.8198 22.3441Z" stroke="#4D464E"/>
<path d="M21.4554 21.4223L21.7153 21.5683C22.4743 21.9947 23.5311 21.8847 24.1182 21.318L27.1746 18.3684L26.3258 17.171C26.0769 16.8196 25.73 16.5157 25.3102 16.2809L21.4872 14.1466C21.1248 13.9438 20.6888 13.8353 20.2418 13.8364L17.206 13.8456C16.8098 13.8467 16.4504 13.9713 16.1889 14.1729C15.9282 14.374 15.7655 14.6522 15.7618 14.9601C15.7559 15.4868 16.2228 15.9461 16.8849 16.065L17.4218 16.1615C17.1251 16.4559 16.7847 16.7936 16.4235 17.1525C16.466 17.1616 16.5089 17.1702 16.5522 17.178L17.0901 17.2747L18.804 17.582C18.9775 19.0861 19.9275 20.4702 21.4554 21.4223Z" fill="#FFD1C2"/>
<path d="M21.4554 21.4223L21.7153 21.5683C22.4743 21.9947 23.5311 21.8847 24.1182 21.318L27.1746 18.3684L26.3258 17.171C26.0769 16.8196 25.73 16.5157 25.3102 16.2809L21.4872 14.1466C21.1248 13.9438 20.6888 13.8353 20.2418 13.8364L17.206 13.8456C16.8098 13.8467 16.4504 13.9713 16.1889 14.1729C15.9282 14.374 15.7655 14.6522 15.7618 14.9601C15.7559 15.4868 16.2228 15.9461 16.8849 16.065L17.4218 16.1615C17.1251 16.4559 16.7847 16.7936 16.4235 17.1525C16.466 17.1616 16.5089 17.1702 16.5522 17.178L17.0901 17.2747L18.804 17.582C18.9775 19.0861 19.9275 20.4702 21.4554 21.4223Z" stroke="#4D464E"/>
<path d="M13.5205 13.7206L11.8706 12.6338L11.031 12.1104L10.1088 13.0085C9.97421 13.1396 9.72778 13.1608 9.55935 13.0558L9.39894 12.9558C8.91757 12.6556 8.74759 12.1658 8.92288 11.7349C8.76976 11.8051 8.63086 11.8984 8.51479 12.0142C8.0234 12.5044 8.15641 13.2153 8.78036 13.6044L10.0468 14.3939L11.7192 15.5436L12.222 15.0347L13.5205 13.7206Z" fill="#FFD1C2"/>
<path d="M13.5205 13.7206L11.8706 12.6338L11.031 12.1104L10.1088 13.0085C9.97421 13.1396 9.72778 13.1608 9.55935 13.0558L9.39894 12.9558C8.91757 12.6556 8.74759 12.1658 8.92288 11.7349C8.76976 11.8051 8.63086 11.8984 8.51479 12.0142C8.0234 12.5044 8.15641 13.2153 8.78036 13.6044L10.0468 14.3939L11.7192 15.5436L12.222 15.0347L13.5205 13.7206Z" stroke="#4D464E"/>
<path d="M25.3098 16.2809L21.4867 14.1466C21.1243 13.9438 20.6883 13.8353 20.2413 13.8364L17.2055 13.8456C16.8093 13.8467 16.4499 13.9713 16.1884 14.1729C15.9277 14.374 15.7649 14.6522 15.7612 14.9601C15.7553 15.4869 16.2223 15.9462 16.8844 16.065L17.4213 16.1615C15.6198 17.9485 12.2188 21.3287 12.2188 21.3853C12.2188 21.4612 16.2613 23.7955 16.2613 23.7955L17.1217 24.2975C17.2612 24.1861 17.3949 24.0695 17.5216 23.9473L25.406 16.3379C25.3988 16.3336 25.3916 16.3293 25.3844 16.3249C25.3598 16.31 25.3351 16.2951 25.3098 16.2809Z" fill="#FFD1C2"/>
<path d="M25.3098 16.2809L21.4867 14.1466C21.1243 13.9438 20.6883 13.8353 20.2413 13.8364L17.2055 13.8456C16.8093 13.8467 16.4499 13.9713 16.1884 14.1729C15.9277 14.374 15.7649 14.6522 15.7612 14.9601C15.7553 15.4869 16.2223 15.9462 16.8844 16.065L17.4213 16.1615C15.6198 17.9485 12.2188 21.3287 12.2188 21.3853C12.2188 21.4612 16.2613 23.7955 16.2613 23.7955L17.1217 24.2975C17.2612 24.1861 17.3949 24.0695 17.5216 23.9473L25.406 16.3379C25.3988 16.3336 25.3916 16.3293 25.3844 16.3249C25.3598 16.31 25.3351 16.2951 25.3098 16.2809Z" stroke="#4D464E"/>
<path d="M25.2019 13.2426C24.5324 12.8255 23.5543 12.9084 23.016 13.4271C23.2472 13.2043 23.3592 12.9375 23.3592 12.6724C23.3592 12.3199 23.1603 11.9698 22.7781 11.7315C22.1094 11.3145 21.1306 11.3973 20.5922 11.9161C20.8235 11.6933 20.9354 11.4265 20.9354 11.1614C20.9354 10.8089 20.7366 10.4593 20.3551 10.2211C19.6856 9.80348 18.7068 9.88632 18.1692 10.405C18.7068 9.88632 18.6008 9.12709 17.9313 8.71006C17.6441 8.53068 17.3001 8.44385 16.9584 8.44385C16.5033 8.44385 16.0525 8.59809 15.7454 8.89458L11.1803 13.3001L9.12163 15.3022L6.71392 14.0402C5.88545 14.8878 5.38339 15.9069 5.28065 16.9782L5.06781 19.1993L1.01715 23.1078C0.761002 23.355 0.804087 23.7152 1.11437 23.9216L8.22975 28.6545C8.55432 28.8705 9.04489 28.8351 9.31275 28.5766L12.9871 25.0303C13.063 24.9577 13.172 24.9097 13.2913 24.8966C14.617 24.7515 15.8219 24.2202 16.6607 23.4107L25.4396 14.9382C25.6701 14.7154 25.7828 14.4486 25.7828 14.1835C25.7829 13.8304 25.5841 13.4808 25.2019 13.2426Z" fill="#FFE0D1"/>
<path d="M25.2019 13.2426C24.5324 12.8255 23.5543 12.9084 23.016 13.4271C23.2472 13.2043 23.3592 12.9375 23.3592 12.6724C23.3592 12.3199 23.1603 11.9698 22.7781 11.7315C22.1094 11.3145 21.1306 11.3973 20.5922 11.9161C20.8235 11.6933 20.9354 11.4265 20.9354 11.1614C20.9354 10.8089 20.7366 10.4593 20.3551 10.2211C19.6856 9.80348 18.7068 9.88632 18.1692 10.405C18.7068 9.88632 18.6008 9.12709 17.9313 8.71006C17.6441 8.53068 17.3001 8.44385 16.9584 8.44385C16.5033 8.44385 16.0525 8.59809 15.7454 8.89458L11.1803 13.3001L9.12163 15.3022L6.71392 14.0402C5.88545 14.8878 5.38339 15.9069 5.28065 16.9782L5.06781 19.1993L1.01715 23.1078C0.761002 23.355 0.804087 23.7152 1.11437 23.9216L8.22975 28.6545C8.55432 28.8705 9.04489 28.8351 9.31275 28.5766L12.9871 25.0303C13.063 24.9577 13.172 24.9097 13.2913 24.8966C14.617 24.7515 15.8219 24.2202 16.6607 23.4107L25.4396 14.9382C25.6701 14.7154 25.7828 14.4486 25.7828 14.1835C25.7829 13.8304 25.5841 13.4808 25.2019 13.2426Z" stroke="#4D464E"/>
<path d="M3.55529 23.4814C3.25223 23.2791 3.21018 22.9259 3.46029 22.6836L7.41623 18.852L7.62414 16.6746C7.68541 16.033 7.89295 15.4109 8.22901 14.8342L6.71392 14.04C5.88545 14.8876 5.38339 15.9067 5.28065 16.978L5.06781 19.1991L1.01715 23.1076C0.761002 23.3548 0.804087 23.715 1.11437 23.9214L8.22975 28.6543C8.55432 28.8703 9.04489 28.835 9.31275 28.5764L10.0788 27.8371L3.55529 23.4814Z" fill="#FFD1C2"/>
<path d="M3.55529 23.4814C3.25223 23.2791 3.21018 22.9259 3.46029 22.6836L7.41623 18.852L7.62414 16.6746C7.68541 16.033 7.89295 15.4109 8.22901 14.8342L6.71392 14.04C5.88545 14.8876 5.38339 15.9067 5.28065 16.978L5.06781 19.1991L1.01715 23.1076C0.761002 23.3548 0.804087 23.715 1.11437 23.9214L8.22975 28.6543C8.55432 28.8703 9.04489 28.835 9.31275 28.5764L10.0788 27.8371L3.55529 23.4814Z" stroke="#4D464E"/>
<path d="M22.3489 13.2205C21.7338 12.8763 21.0075 12.6943 20.2486 12.6943L17.2004 12.7035C16.427 12.7057 15.6989 12.94 15.1502 13.3632C14.6018 13.7862 14.2958 14.3497 14.2887 14.9507C14.2767 16.0211 15.2077 16.9372 16.552 17.1785L17.0899 17.2752L18.8038 17.5825C18.9125 18.5251 19.3263 19.4205 19.996 20.192L25.4345 14.9432L22.3489 13.2205Z" fill="#FFD1C2"/>
<path d="M22.3489 13.2205C21.7338 12.8763 21.0075 12.6943 20.2486 12.6943L17.2004 12.7035C16.427 12.7057 15.6989 12.94 15.1502 13.3632C14.6018 13.7862 14.2958 14.3497 14.2887 14.9507C14.2767 16.0211 15.2077 16.9372 16.552 17.1785L17.0899 17.2752L18.8038 17.5825C18.9125 18.5251 19.3263 19.4205 19.996 20.192L25.4345 14.9432L22.3489 13.2205Z" stroke="#4D464E"/>
<path d="M26.3261 17.1714L27.3763 18.6533L24.3781 21.6428L22.791 20.7899L22.3793 20.5328C21.0684 19.7159 20.2892 18.4911 20.2501 17.1863L20.2354 16.6664L17.422 16.162L16.8852 16.0655C16.2231 15.9466 15.7561 15.4873 15.762 14.9606C15.7657 14.6527 15.9285 14.3745 16.1892 14.1734C16.4506 13.9717 16.81 13.8472 17.2063 13.8461L20.242 13.8369C20.6891 13.8358 21.1251 13.9443 21.4874 14.1471L25.3105 16.2814C25.7303 16.5162 26.0772 16.8201 26.3261 17.1714Z" fill="#FFE0D1"/>
<path d="M26.3261 17.1714L27.3763 18.6533L24.3781 21.6428L22.791 20.7899L22.3793 20.5328C21.0684 19.7159 20.2892 18.4911 20.2501 17.1863L20.2354 16.6664L17.422 16.162L16.8852 16.0655C16.2231 15.9466 15.7561 15.4873 15.762 14.9606C15.7657 14.6527 15.9285 14.3745 16.1892 14.1734C16.4506 13.9717 16.81 13.8472 17.2063 13.8461L20.242 13.8369C20.6891 13.8358 21.1251 13.9443 21.4874 14.1471L25.3105 16.2814C25.7303 16.5162 26.0772 16.8201 26.3261 17.1714Z" stroke="#4D464E"/>
<path d="M18.2596 0.907943C17.2736 0.643955 16.2998 0.643327 15.3382 0.906C15.1069 0.969184 14.9996 1.17621 15.1059 1.3476L16.4285 3.47921C16.5789 3.7216 17.0238 3.7216 17.1743 3.47921L18.4951 1.35051C18.6021 1.1781 18.4927 0.970326 18.2596 0.907943Z" fill="#FBE88C"/>
<path d="M18.2596 0.907943C17.2736 0.643955 16.2998 0.643327 15.3382 0.906C15.1069 0.969184 14.9996 1.17621 15.1059 1.3476L16.4285 3.47921C16.5789 3.7216 17.0238 3.7216 17.1743 3.47921L18.4951 1.35051C18.6021 1.1781 18.4927 0.970326 18.2596 0.907943Z" stroke="#4D464E"/>
<path d="M27.1695 4.22836C26.6298 3.53598 25.8822 3.05194 24.9267 2.77625C24.6968 2.70992 24.4436 2.81567 24.3838 3.00013L23.6407 5.29441C23.5562 5.55531 23.8981 5.77627 24.2137 5.66476L26.9852 4.68526C27.2096 4.60597 27.297 4.39203 27.1695 4.22836Z" fill="#FBE88C"/>
<path d="M27.1695 4.22836C26.6298 3.53598 25.8822 3.05194 24.9267 2.77625C24.6968 2.70992 24.4436 2.81567 24.3838 3.00013L23.6407 5.29441C23.5562 5.55531 23.8981 5.77627 24.2137 5.66476L26.9852 4.68526C27.2096 4.60597 27.297 4.39203 27.1695 4.22836Z" stroke="#4D464E"/>
<path d="M6.4347 4.22885C6.97433 3.53647 7.72193 3.05243 8.67744 2.77674C8.9073 2.71041 9.16057 2.81615 9.2203 3.00062L9.96341 5.29489C10.0479 5.55579 9.70601 5.77676 9.39043 5.66525L6.61897 4.68575C6.39464 4.60646 6.30715 4.39252 6.4347 4.22885Z" fill="#FBE88C"/>
<path d="M6.4347 4.22885C6.97433 3.53647 7.72193 3.05243 8.67744 2.77674C8.9073 2.71041 9.16057 2.81615 9.2203 3.00062L9.96341 5.29489C10.0479 5.55579 9.70601 5.77676 9.39043 5.66525L6.61897 4.68575C6.39464 4.60646 6.30715 4.39252 6.4347 4.22885Z" stroke="#4D464E"/>
<path d="M9.22197 15.2057L10.0669 14.3902L9.19553 13.8633L8.36087 14.6688C8.16438 14.8585 8.21063 15.1368 8.46273 15.2816C8.70113 15.4185 9.03623 15.385 9.22197 15.2057Z" fill="#FFD1C2"/>
<path d="M9.22197 15.2057L10.0669 14.3902L9.19553 13.8633L8.36087 14.6688C8.16438 14.8585 8.21063 15.1368 8.46273 15.2816C8.70113 15.4185 9.03623 15.385 9.22197 15.2057Z" stroke="#4D464E"/>
</svg>
