<svg width="34" height="27" viewBox="0 0 34 27" fill="none" xmlns="http://www.w3.org/2000/svg">
<path d="M32.0337 12.7067C32.0337 14.271 30.7876 15.6083 29.0245 16.1537C28.7804 16.2292 28.63 16.4127 28.63 16.6091C28.63 16.65 28.636 16.6913 28.65 16.7327C29.2348 18.4949 28.0658 20.28 26.0067 20.9923C25.8763 21.0373 25.7712 21.1112 25.6973 21.2012C25.6242 21.2911 25.5836 21.3976 25.5836 21.5082C25.5836 23.4618 23.5451 25.0457 21.0309 25.0457C19.4994 25.0457 18.1455 24.4579 17.3205 23.5574C17.1475 23.3687 16.7803 23.3687 16.6073 23.5574C15.7823 24.4579 14.4284 25.0457 12.8969 25.0457C11.6401 25.0457 10.5018 24.6497 9.67745 24.0098C8.85381 23.3693 8.34418 22.4853 8.34418 21.5082C8.34418 21.287 8.18118 21.0823 7.92105 20.9923C6.22053 20.404 5.12743 19.0843 5.12743 17.6497C5.12743 17.3473 5.176 17.0397 5.27779 16.7327C5.35696 16.4938 5.19795 16.2447 4.90322 16.1537C3.14016 15.6083 1.89404 14.271 1.89404 12.7067C1.89404 10.658 4.03167 8.99705 6.66828 8.99705H6.66961C6.74013 8.99705 6.78537 8.9407 6.75543 8.89159C6.39816 8.29607 6.20256 7.62972 6.21387 6.92771C6.25379 4.4355 8.92566 2.42405 12.1324 2.46799C13.9374 2.49281 15.5415 3.15657 16.5867 4.18064C16.7789 4.36985 17.1488 4.36985 17.3411 4.18064C18.3863 3.15657 19.9904 2.49281 21.7953 2.46799C25.0021 2.42405 27.674 4.4355 27.7139 6.92771C27.7252 7.62972 27.5296 8.29607 27.1723 8.89159C27.1424 8.9407 27.1876 8.99705 27.2582 8.99705H27.2595C29.8961 8.99705 32.0337 10.658 32.0337 12.7067Z" fill="#E79098"/>
<path d="M32.0337 12.7067C32.0337 14.271 30.7876 15.6083 29.0245 16.1537C28.7804 16.2292 28.63 16.4127 28.63 16.6091C28.63 16.65 28.636 16.6913 28.65 16.7327C29.2348 18.4949 28.0658 20.28 26.0067 20.9923C25.8763 21.0373 25.7712 21.1112 25.6973 21.2012C25.6242 21.2911 25.5836 21.3976 25.5836 21.5082C25.5836 23.4618 23.5451 25.0457 21.0309 25.0457C19.4994 25.0457 18.1455 24.4579 17.3205 23.5574C17.1475 23.3687 16.7803 23.3687 16.6073 23.5574C15.7823 24.4579 14.4284 25.0457 12.8969 25.0457C11.6401 25.0457 10.5018 24.6497 9.67745 24.0098C8.85381 23.3693 8.34418 22.4853 8.34418 21.5082C8.34418 21.287 8.18118 21.0823 7.92105 20.9923C6.22053 20.404 5.12743 19.0843 5.12743 17.6497C5.12743 17.3473 5.176 17.0397 5.27779 16.7327C5.35696 16.4938 5.19795 16.2447 4.90322 16.1537C3.14016 15.6083 1.89404 14.271 1.89404 12.7067C1.89404 10.658 4.03167 8.99705 6.66828 8.99705H6.66961C6.74013 8.99705 6.78537 8.9407 6.75543 8.89159C6.39816 8.29607 6.20256 7.62972 6.21387 6.92771C6.25379 4.4355 8.92566 2.42405 12.1324 2.46799C13.9374 2.49281 15.5415 3.15657 16.5867 4.18064C16.7789 4.36985 17.1488 4.36985 17.3411 4.18064C18.3863 3.15657 19.9904 2.49281 21.7953 2.46799C25.0021 2.42405 27.674 4.4355 27.7139 6.92771C27.7252 7.62972 27.5296 8.29607 27.1723 8.89159C27.1424 8.9407 27.1876 8.99705 27.2582 8.99705H27.2595C29.8961 8.99705 32.0337 10.658 32.0337 12.7067Z" stroke="#4D464E"/>
<path d="M14.547 23.0935C13.6747 22.4882 13.1349 21.6528 13.1349 20.7296C13.1349 20.5205 12.9623 20.327 12.6868 20.242C10.8856 19.6861 9.72795 18.4389 9.72795 17.0833C9.72795 16.7975 9.77938 16.5068 9.88722 16.2167C9.97105 15.991 9.80266 15.7555 9.4905 15.6695C7.62319 15.1541 6.30336 13.8903 6.30336 12.4121C6.30336 10.4761 8.56739 8.90653 11.3599 8.90653H11.3613C11.4361 8.90653 11.484 8.85329 11.4522 8.80687C11.0738 8.24412 10.8667 7.61442 10.8787 6.95102C10.9108 5.16274 12.5503 3.63666 14.8245 3.02371C14.0232 2.68144 13.1072 2.48138 12.1324 2.46799C8.92566 2.42405 6.25379 4.4355 6.21387 6.92771C6.20256 7.62972 6.39816 8.29607 6.75543 8.89159C6.78537 8.9407 6.74013 8.99705 6.66961 8.99705H6.66828C4.03167 8.99705 1.89404 10.658 1.89404 12.7067C1.89404 14.271 3.14016 15.6083 4.90322 16.1537C5.19795 16.2447 5.35696 16.4938 5.27779 16.7327C5.176 17.0397 5.12743 17.3473 5.12743 17.6497C5.12743 19.0843 6.22053 20.404 7.92105 20.9923C8.18118 21.0823 8.34418 21.287 8.34418 21.5082C8.34418 22.4853 8.8538 23.3693 9.67745 24.0098C10.5018 24.6497 11.6401 25.0457 12.8969 25.0457C14.2451 25.0457 15.4554 24.5901 16.2887 23.8668C15.6282 23.6978 15.0355 23.4318 14.547 23.0935Z" fill="#E17983"/>
<path d="M14.547 23.0935C13.6747 22.4882 13.1349 21.6528 13.1349 20.7296C13.1349 20.5205 12.9623 20.327 12.6868 20.242C10.8856 19.6861 9.72795 18.4389 9.72795 17.0833C9.72795 16.7975 9.77938 16.5068 9.88722 16.2167C9.97105 15.991 9.80266 15.7555 9.4905 15.6695C7.62319 15.1541 6.30336 13.8903 6.30336 12.4121C6.30336 10.4761 8.56739 8.90653 11.3599 8.90653H11.3613C11.4361 8.90653 11.484 8.85329 11.4522 8.80687C11.0738 8.24412 10.8667 7.61442 10.8787 6.95102C10.9108 5.16274 12.5503 3.63666 14.8245 3.02371C14.0232 2.68144 13.1072 2.48138 12.1324 2.46799C8.92566 2.42405 6.25379 4.4355 6.21387 6.92771C6.20256 7.62972 6.39816 8.29607 6.75543 8.89159C6.78537 8.9407 6.74013 8.99705 6.66961 8.99705H6.66828C4.03167 8.99705 1.89404 10.658 1.89404 12.7067C1.89404 14.271 3.14016 15.6083 4.90322 16.1537C5.19795 16.2447 5.35696 16.4938 5.27779 16.7327C5.176 17.0397 5.12743 17.3473 5.12743 17.6497C5.12743 19.0843 6.22053 20.404 7.92105 20.9923C8.18118 21.0823 8.34418 21.287 8.34418 21.5082C8.34418 22.4853 8.8538 23.3693 9.67745 24.0098C10.5018 24.6497 11.6401 25.0457 12.8969 25.0457C14.2451 25.0457 15.4554 24.5901 16.2887 23.8668C15.6282 23.6978 15.0355 23.4318 14.547 23.0935Z" stroke="#4D464E"/>
<path d="M19.2933 8.68252C18.2841 8.68252 17.463 8.04456 17.463 7.26036V4.06592C17.4217 4.10376 17.381 4.14196 17.3413 4.18083C17.149 4.37003 16.7791 4.37003 16.5868 4.18083C16.5471 4.14196 16.5064 4.10376 16.465 4.06592V7.26036C16.465 8.04451 15.644 8.68252 14.6347 8.68252C14.3591 8.68252 14.1357 8.85611 14.1357 9.07022C14.1357 9.28434 14.3591 9.45793 14.6347 9.45793C15.5999 9.45793 16.4534 9.08005 16.964 8.5049C17.4746 9.08005 18.328 9.45793 19.2933 9.45793C19.569 9.45793 19.7923 9.28434 19.7923 9.07022C19.7923 8.85611 19.569 8.68252 19.2933 8.68252Z" fill="#E17983"/>
<path d="M19.2933 8.68252C18.2841 8.68252 17.463 8.04456 17.463 7.26036V4.06592C17.4217 4.10376 17.381 4.14196 17.3413 4.18083C17.149 4.37003 16.7791 4.37003 16.5868 4.18083C16.5471 4.14196 16.5064 4.10376 16.465 4.06592V7.26036C16.465 8.04451 15.644 8.68252 14.6347 8.68252C14.3591 8.68252 14.1357 8.85611 14.1357 9.07022C14.1357 9.28434 14.3591 9.45793 14.6347 9.45793C15.5999 9.45793 16.4534 9.08005 16.964 8.5049C17.4746 9.08005 18.328 9.45793 19.2933 9.45793C19.569 9.45793 19.7923 9.28434 19.7923 9.07022C19.7923 8.85611 19.569 8.68252 19.2933 8.68252Z" stroke="#4D464E"/>
<path d="M16.964 16.3128C16.6884 16.3128 16.465 16.1392 16.465 15.9251V15.3612C16.465 14.577 15.644 13.939 14.6347 13.939C14.3591 13.939 14.1357 13.7654 14.1357 13.5513C14.1357 13.3372 14.3591 13.1636 14.6347 13.1636C16.1942 13.1636 17.463 14.1494 17.463 15.3612V15.9251C17.463 16.1392 17.2396 16.3128 16.964 16.3128Z" fill="#E17983"/>
<path d="M16.964 16.3128C16.6884 16.3128 16.465 16.1392 16.465 15.9251V15.3612C16.465 14.577 15.644 13.939 14.6347 13.939C14.3591 13.939 14.1357 13.7654 14.1357 13.5513C14.1357 13.3372 14.3591 13.1636 14.6347 13.1636C16.1942 13.1636 17.463 14.1494 17.463 15.3612V15.9251C17.463 16.1392 17.2396 16.3128 16.964 16.3128Z" stroke="#4D464E"/>
<path d="M16.9643 16.3128C16.6887 16.3128 16.4653 16.1392 16.4653 15.9251V15.3612C16.4653 14.1494 17.7341 13.1636 19.2936 13.1636C19.5692 13.1636 19.7926 13.3372 19.7926 13.5513C19.7926 13.7654 19.5692 13.939 19.2936 13.939C18.2843 13.939 17.4633 14.577 17.4633 15.3612V15.9251C17.4633 16.1392 17.2399 16.3128 16.9643 16.3128Z" fill="#E17983"/>
<path d="M16.9643 16.3128C16.6887 16.3128 16.4653 16.1392 16.4653 15.9251V15.3612C16.4653 14.1494 17.7341 13.1636 19.2936 13.1636C19.5692 13.1636 19.7926 13.3372 19.7926 13.5513C19.7926 13.7654 19.5692 13.939 19.2936 13.939C18.2843 13.939 17.4633 14.577 17.4633 15.3612V15.9251C17.4633 16.1392 17.2399 16.3128 16.9643 16.3128Z" stroke="#4D464E"/>
<path d="M18.6638 20.991C18.0014 20.991 17.4624 20.5723 17.4624 20.0576V19.646C17.4624 19.4319 17.2391 19.2583 16.9635 19.2583C16.6878 19.2583 16.4645 19.4319 16.4645 19.646V20.0576C16.4645 20.5723 15.9255 20.991 15.2631 20.991C14.9875 20.991 14.7642 21.1646 14.7642 21.3787C14.7642 21.5928 14.9875 21.7664 15.2631 21.7664C15.9475 21.7664 16.5598 21.5222 16.9635 21.1401C17.3671 21.5222 17.9794 21.7664 18.6638 21.7664C18.9394 21.7664 19.1628 21.5928 19.1628 21.3787C19.1628 21.1646 18.9393 20.991 18.6638 20.991Z" fill="#E17983"/>
<path d="M18.6638 20.991C18.0014 20.991 17.4624 20.5723 17.4624 20.0576V19.646C17.4624 19.4319 17.2391 19.2583 16.9635 19.2583C16.6878 19.2583 16.4645 19.4319 16.4645 19.646V20.0576C16.4645 20.5723 15.9255 20.991 15.2631 20.991C14.9875 20.991 14.7642 21.1646 14.7642 21.3787C14.7642 21.5928 14.9875 21.7664 15.2631 21.7664C15.9475 21.7664 16.5598 21.5222 16.9635 21.1401C17.3671 21.5222 17.9794 21.7664 18.6638 21.7664C18.9394 21.7664 19.1628 21.5928 19.1628 21.3787C19.1628 21.1646 18.9393 20.991 18.6638 20.991Z" stroke="#4D464E"/>
<path d="M23.5119 13.2471C23.2363 13.2471 23.0129 13.0735 23.0129 12.8594V12.5609C23.0129 11.654 23.5123 10.7875 24.3829 10.1835C24.5885 10.0408 24.9039 10.0547 25.0875 10.2145C25.271 10.3742 25.2531 10.6193 25.0476 10.7619C24.3888 11.2189 24.0109 11.8746 24.0109 12.5609V12.8593C24.0109 13.0735 23.7875 13.2471 23.5119 13.2471Z" fill="#E17983"/>
<path d="M23.5119 13.2471C23.2363 13.2471 23.0129 13.0735 23.0129 12.8594V12.5609C23.0129 11.654 23.5123 10.7875 24.3829 10.1835C24.5885 10.0408 24.9039 10.0547 25.0875 10.2145C25.271 10.3742 25.2531 10.6193 25.0476 10.7619C24.3888 11.2189 24.0109 11.8746 24.0109 12.5609V12.8593C24.0109 13.0735 23.7875 13.2471 23.5119 13.2471Z" stroke="#4D464E"/>
<path d="M10.4157 13.2471C10.1401 13.2471 9.91673 13.0735 9.91673 12.8593V12.5609C9.91673 11.8746 9.53883 11.2189 8.88004 10.7619C8.67446 10.6193 8.65663 10.3742 8.84012 10.2145C9.02362 10.0548 9.33904 10.0408 9.54469 10.1835C10.4153 10.7875 10.9147 11.654 10.9147 12.5609V12.8594C10.9147 13.0735 10.6913 13.2471 10.4157 13.2471Z" fill="#E17983"/>
<path d="M10.4157 13.2471C10.1401 13.2471 9.91673 13.0735 9.91673 12.8593V12.5609C9.91673 11.8746 9.53883 11.2189 8.88004 10.7619C8.67446 10.6193 8.65663 10.3742 8.84012 10.2145C9.02362 10.0548 9.33904 10.0408 9.54469 10.1835C10.4153 10.7875 10.9147 11.654 10.9147 12.5609V12.8594C10.9147 13.0735 10.6913 13.2471 10.4157 13.2471Z" stroke="#4D464E"/>
<path d="M10.1586 19.1154C9.88301 19.1154 9.65967 18.9418 9.65967 18.7277V18.6422C9.65967 17.5498 10.3709 16.5514 11.5622 15.9713L11.6262 15.9401C11.8596 15.8264 12.1676 15.8812 12.314 16.0626C12.4604 16.244 12.3899 16.4833 12.1563 16.5971L12.0922 16.6283C11.1939 17.0657 10.6577 17.8185 10.6577 18.6422V18.7277C10.6576 18.9418 10.4343 19.1154 10.1586 19.1154Z" fill="#DA606C"/>
<path d="M10.1586 19.1154C9.88301 19.1154 9.65967 18.9418 9.65967 18.7277V18.6422C9.65967 17.5498 10.3709 16.5514 11.5622 15.9713L11.6262 15.9401C11.8596 15.8264 12.1676 15.8812 12.314 16.0626C12.4604 16.244 12.3899 16.4833 12.1563 16.5971L12.0922 16.6283C11.1939 17.0657 10.6577 17.8185 10.6577 18.6422V18.7277C10.6576 18.9418 10.4343 19.1154 10.1586 19.1154Z" stroke="#4D464E"/>
<path d="M23.7698 19.1155C23.4941 19.1155 23.2708 18.9419 23.2708 18.7278V18.6422C23.2708 17.8186 22.7345 17.0658 21.8363 16.6284L21.772 16.5971C21.5385 16.4833 21.468 16.244 21.6144 16.0626C21.7609 15.8812 22.0688 15.8264 22.3022 15.9402L22.3664 15.9714C23.5575 16.5514 24.2687 17.5499 24.2687 18.6422V18.7278C24.2687 18.9419 24.0454 19.1155 23.7698 19.1155Z" fill="#E17983"/>
<path d="M23.7698 19.1155C23.4941 19.1155 23.2708 18.9419 23.2708 18.7278V18.6422C23.2708 17.8186 22.7345 17.0658 21.8363 16.6284L21.772 16.5971C21.5385 16.4833 21.468 16.244 21.6144 16.0626C21.7609 15.8812 22.0688 15.8264 22.3022 15.9402L22.3664 15.9714C23.5575 16.5514 24.2687 17.5499 24.2687 18.6422V18.7278C24.2687 18.9419 24.0454 19.1155 23.7698 19.1155Z" stroke="#4D464E"/>
<path d="M10.5307 7.85464C10.2551 7.85464 10.0317 7.68105 10.0317 7.46693V7.25534C10.0317 6.49852 10.6495 5.82229 11.5689 5.5726C11.8294 5.50193 12.1137 5.60858 12.2046 5.81071C12.2956 6.01284 12.1584 6.23399 11.8982 6.30461C11.3787 6.44568 11.0297 6.82776 11.0297 7.25534V7.46693C11.0297 7.68105 10.8063 7.85464 10.5307 7.85464Z" fill="#DA606C"/>
<path d="M10.5307 7.85464C10.2551 7.85464 10.0317 7.68105 10.0317 7.46693V7.25534C10.0317 6.49852 10.6495 5.82229 11.5689 5.5726C11.8294 5.50193 12.1137 5.60858 12.2046 5.81071C12.2956 6.01284 12.1584 6.23399 11.8982 6.30461C11.3787 6.44568 11.0297 6.82776 11.0297 7.25534V7.46693C11.0297 7.68105 10.8063 7.85464 10.5307 7.85464Z" stroke="#4D464E"/>
<path d="M23.3978 7.85464C23.1222 7.85464 22.8988 7.68105 22.8988 7.46693V7.25534C22.8988 6.82776 22.5498 6.44568 22.0303 6.30461C21.7701 6.23394 21.6329 6.01284 21.7239 5.81071C21.8147 5.60858 22.0991 5.50193 22.3596 5.5726C23.2791 5.82229 23.8968 6.49852 23.8968 7.25534V7.46693C23.8968 7.68105 23.6734 7.85464 23.3978 7.85464Z" fill="#E17983"/>
<path d="M23.3978 7.85464C23.1222 7.85464 22.8988 7.68105 22.8988 7.46693V7.25534C22.8988 6.82776 22.5498 6.44568 22.0303 6.30461C21.7701 6.23394 21.6329 6.01284 21.7239 5.81071C21.8147 5.60858 22.0991 5.50193 22.3596 5.5726C23.2791 5.82229 23.8968 6.49852 23.8968 7.25534V7.46693C23.8968 7.68105 23.6734 7.85464 23.3978 7.85464Z" stroke="#4D464E"/>
<path d="M30.3679 2.72475L31.3549 0.729511C31.4232 0.591539 31.6264 0.518029 31.8063 0.565898C32.5869 0.773502 33.1478 1.16912 33.4891 1.7527C33.5678 1.88726 33.4933 2.05149 33.3231 2.11761L30.8626 3.07374C30.5701 3.18737 30.2506 2.96198 30.3679 2.72475Z" fill="#FBE88C"/>
<path d="M30.3679 2.72475L31.3549 0.729511C31.4232 0.591539 31.6264 0.518029 31.8063 0.565898C32.5869 0.773502 33.1478 1.16912 33.4891 1.7527C33.5678 1.88726 33.4933 2.05149 33.3231 2.11761L30.8626 3.07374C30.5701 3.18737 30.2506 2.96198 30.3679 2.72475Z" stroke="#4D464E"/>
<path d="M3.56015 2.72479L2.57316 0.729509C2.5049 0.591538 2.30172 0.51803 2.12175 0.565898C1.34121 0.773552 0.780217 1.16911 0.438846 1.75268C0.36014 1.88724 0.434655 2.05147 0.604841 2.11759L3.06536 3.07372C3.35796 3.18739 3.67751 2.96201 3.56015 2.72479Z" fill="#FBE88C"/>
<path d="M3.56015 2.72479L2.57316 0.729509C2.5049 0.591538 2.30172 0.51803 2.12175 0.565898C1.34121 0.773552 0.780217 1.16911 0.438846 1.75268C0.36014 1.88724 0.434655 2.05147 0.604841 2.11759L3.06536 3.07372C3.35796 3.18739 3.67751 2.96201 3.56015 2.72479Z" stroke="#4D464E"/>
<path d="M30.3682 24.0322L31.3552 26.0274C31.4234 26.1654 31.6266 26.2389 31.8066 26.1911C32.5871 25.9834 33.148 25.5878 33.4894 25.0042C33.5681 24.8697 33.4936 24.7054 33.3234 24.6393L30.8629 23.6832C30.5704 23.5695 30.2508 23.7949 30.3682 24.0322Z" fill="#FBE88C"/>
<path d="M30.3682 24.0322L31.3552 26.0274C31.4234 26.1654 31.6266 26.2389 31.8066 26.1911C32.5871 25.9834 33.148 25.5878 33.4894 25.0042C33.5681 24.8697 33.4936 24.7054 33.3234 24.6393L30.8629 23.6832C30.5704 23.5695 30.2508 23.7949 30.3682 24.0322Z" stroke="#4D464E"/>
<path d="M3.56006 24.0322L2.57308 26.0274C2.50482 26.1654 2.30164 26.2389 2.12167 26.1911C1.34113 25.9834 0.780214 25.5878 0.438846 25.0042C0.36014 24.8697 0.434655 24.7054 0.60484 24.6393L3.06534 23.6832C3.35788 23.5695 3.67742 23.7949 3.56006 24.0322Z" fill="#FBE88C"/>
<path d="M3.56006 24.0322L2.57308 26.0274C2.50482 26.1654 2.30164 26.2389 2.12167 26.1911C1.34113 25.9834 0.780214 25.5878 0.438846 25.0042C0.36014 24.8697 0.434655 24.7054 0.60484 24.6393L3.06534 23.6832C3.35788 23.5695 3.67742 23.7949 3.56006 24.0322Z" stroke="#4D464E"/>
<path d="M16.9646 1.91031C16.6889 1.91031 16.4656 1.73672 16.4656 1.5226V0.551277C16.4656 0.337162 16.6889 0.163574 16.9646 0.163574C17.2402 0.163574 17.4636 0.337162 17.4636 0.551277V1.5226C17.4636 1.73672 17.2402 1.91031 16.9646 1.91031Z" fill="#FBE88C"/>
<path d="M16.9646 1.91031C16.6889 1.91031 16.4656 1.73672 16.4656 1.5226V0.551277C16.4656 0.337162 16.6889 0.163574 16.9646 0.163574C17.2402 0.163574 17.4636 0.337162 17.4636 0.551277V1.5226C17.4636 1.73672 17.2402 1.91031 16.9646 1.91031Z" stroke="#4D464E"/>
<path d="M16.9643 26.6452C16.6887 26.6452 16.4653 26.4716 16.4653 26.2575V25.2862C16.4653 25.072 16.6887 24.8984 16.9643 24.8984C17.2399 24.8984 17.4633 25.072 17.4633 25.2862V26.2575C17.4633 26.4716 17.2399 26.6452 16.9643 26.6452Z" fill="#FBE88C"/>
<path d="M16.9643 26.6452C16.6887 26.6452 16.4653 26.4716 16.4653 26.2575V25.2862C16.4653 25.072 16.6887 24.8984 16.9643 24.8984C17.2399 24.8984 17.4633 25.072 17.4633 25.2862V26.2575C17.4633 26.4716 17.2399 26.6452 16.9643 26.6452Z" stroke="#4D464E"/>
<path d="M0.859829 21.2579C0.701552 21.2579 0.545937 21.1996 0.449069 21.0908C0.292256 20.9147 0.348807 20.6732 0.57541 20.5513L1.9965 19.7872C2.22311 19.6654 2.53394 19.7093 2.69075 19.8853C2.84756 20.0614 2.79101 20.3029 2.56441 20.4248L1.14332 21.189C1.05669 21.2355 0.957695 21.2579 0.859829 21.2579Z" fill="#FBE88C"/>
<path d="M0.859829 21.2579C0.701552 21.2579 0.545937 21.1996 0.449069 21.0908C0.292256 20.9147 0.348807 20.6732 0.57541 20.5513L1.9965 19.7872C2.22311 19.6654 2.53394 19.7093 2.69075 19.8853C2.84756 20.0614 2.79101 20.3029 2.56441 20.4248L1.14332 21.189C1.05669 21.2355 0.957695 21.2579 0.859829 21.2579Z" stroke="#4D464E"/>
<path d="M2.28002 7.09044C2.18209 7.09044 2.08316 7.06811 1.99653 7.02153L0.575439 6.25737C0.348836 6.13552 0.292218 5.894 0.449098 5.71787C0.605844 5.54185 0.916741 5.49786 1.14334 5.6197L2.56444 6.38387C2.79104 6.50571 2.84766 6.74723 2.69078 6.92336C2.59391 7.03208 2.4383 7.09044 2.28002 7.09044Z" fill="#FBE88C"/>
<path d="M2.28002 7.09044C2.18209 7.09044 2.08316 7.06811 1.99653 7.02153L0.575439 6.25737C0.348836 6.13552 0.292218 5.894 0.449098 5.71787C0.605844 5.54185 0.916741 5.49786 1.14334 5.6197L2.56444 6.38387C2.79104 6.50571 2.84766 6.74723 2.69078 6.92336C2.59391 7.03208 2.4383 7.09044 2.28002 7.09044Z" stroke="#4D464E"/>
<path d="M33.0684 21.2579C32.9704 21.2579 32.8715 21.2355 32.7849 21.189L31.3638 20.4248C31.1372 20.303 31.0805 20.0615 31.2374 19.8853C31.3942 19.7094 31.705 19.6653 31.9317 19.7872L33.3528 20.5513C33.5794 20.6732 33.636 20.9147 33.4791 21.0908C33.3822 21.1995 33.2266 21.2579 33.0684 21.2579Z" fill="#FBE88C"/>
<path d="M33.0684 21.2579C32.9704 21.2579 32.8715 21.2355 32.7849 21.189L31.3638 20.4248C31.1372 20.303 31.0805 20.0615 31.2374 19.8853C31.3942 19.7094 31.705 19.6653 31.9317 19.7872L33.3528 20.5513C33.5794 20.6732 33.636 20.9147 33.4791 21.0908C33.3822 21.1995 33.2266 21.2579 33.0684 21.2579Z" stroke="#4D464E"/>
<path d="M31.6482 7.09044C31.4899 7.09044 31.3343 7.03213 31.2374 6.92336C31.0806 6.74729 31.1371 6.50576 31.3637 6.38387L32.7848 5.6197C33.0114 5.49786 33.3222 5.54185 33.4791 5.71787C33.6359 5.89395 33.5793 6.13547 33.3527 6.25737L31.9316 7.02153C31.845 7.06806 31.7461 7.09044 31.6482 7.09044Z" fill="#FBE88C"/>
<path d="M31.6482 7.09044C31.4899 7.09044 31.3343 7.03213 31.2374 6.92336C31.0806 6.74729 31.1371 6.50576 31.3637 6.38387L32.7848 5.6197C33.0114 5.49786 33.3222 5.54185 33.4791 5.71787C33.6359 5.89395 33.5793 6.13547 33.3527 6.25737L31.9316 7.02153C31.845 7.06806 31.7461 7.09044 31.6482 7.09044Z" stroke="#4D464E"/>
</svg>
