<svg width="25" height="22" viewBox="0 0 25 22" fill="none" xmlns="http://www.w3.org/2000/svg">
<path d="M5.57189 3.46696L4.37269 0.77425C4.28974 0.588061 4.0429 0.488828 3.82422 0.553431C2.87592 0.833646 2.19438 1.36749 1.77958 2.15505C1.68393 2.33666 1.77453 2.55829 1.98124 2.64753L4.97075 3.93785C5.32623 4.09127 5.71449 3.78714 5.57189 3.46696Z" fill="#F8D448"/>
<path d="M19.4385 3.46694L20.6377 0.774251C20.7206 0.588061 20.9675 0.488828 21.1861 0.553431C22.1345 0.833648 22.816 1.36749 23.2308 2.15505C23.3265 2.33667 23.2359 2.5583 23.0292 2.64754L20.0397 3.93787C19.6841 4.09125 19.2959 3.78712 19.4385 3.46694Z" fill="#F8D448"/>
<path d="M5.57122 18.6676L4.37201 21.3603C4.28906 21.5465 4.04222 21.6458 3.82354 21.5811C2.87519 21.3009 2.19365 20.7671 1.77885 19.9795C1.6832 19.7979 1.7738 19.5763 1.98051 19.487L4.97002 18.1967C5.32556 18.0433 5.71382 18.3475 5.57122 18.6676Z" fill="#F8D448"/>
<path d="M19.4387 18.6676L20.6379 21.3603C20.7209 21.5465 20.9677 21.6458 21.1864 21.5811C22.1347 21.3009 22.8163 20.7671 23.2311 19.9795C23.3267 19.7979 23.2362 19.5763 23.0294 19.487L20.0399 18.1967C19.6844 18.0433 19.2961 18.3475 19.4387 18.6676Z" fill="#F8D448"/>
<path d="M0.457148 11.7201C0.192215 11.2748 0.208353 10.816 0.462936 10.3457C0.532983 10.2163 0.715802 10.165 0.863549 10.2294L2.24605 10.832C2.4685 10.929 2.46173 11.2051 2.23476 11.2939L0.84486 11.8375C0.700105 11.8941 0.529746 11.842 0.457148 11.7201Z" fill="#FBE88C"/>
<path d="M24.5537 11.7201C24.8186 11.2748 24.8025 10.816 24.5479 10.3457C24.4779 10.2163 24.295 10.165 24.1473 10.2294L22.7648 10.832C22.5423 10.929 22.5491 11.2051 22.7761 11.2939L24.166 11.8375C24.3107 11.8941 24.4811 11.842 24.5537 11.7201Z" fill="#FBE88C"/>
<path d="M9.00416 2.71672C8.84376 2.71672 8.69631 2.62548 8.6504 2.48569L8.25475 1.28068C8.19937 1.11197 8.31292 0.93644 8.5084 0.8886C8.70392 0.840718 8.90729 0.938811 8.96267 1.10752L9.35832 2.31253C9.4137 2.48124 9.30014 2.65677 9.10467 2.70461C9.07112 2.71282 9.03737 2.71672 9.00416 2.71672Z" fill="#FBE372"/>
<path d="M3.50763 6.09816C3.45745 6.09816 3.40648 6.08927 3.35767 6.07043L2.26033 5.64706C2.07486 5.57546 1.99166 5.3877 2.07461 5.22758C2.15756 5.06746 2.37502 4.9957 2.56064 5.06729L3.65798 5.49066C3.84345 5.56225 3.92665 5.75002 3.8437 5.91014C3.78263 6.02813 3.64832 6.09816 3.50763 6.09816Z" fill="#FBE372"/>
<path d="M2.33922 15.2361C2.21938 15.2361 2.10185 15.1856 2.03122 15.0926C1.91982 14.946 1.96725 14.7492 2.13717 14.653L3.14236 14.0843C3.31223 13.9881 3.54033 14.029 3.65173 14.1757C3.76313 14.3224 3.71569 14.5192 3.54577 14.6153L2.54058 15.184C2.47843 15.2193 2.40843 15.2361 2.33922 15.2361Z" fill="#FBE372"/>
<path d="M9.00388 20.7903C8.94467 20.7903 8.88463 20.7779 8.82891 20.7519C8.65025 20.6683 8.58393 20.4756 8.68076 20.3215L9.25347 19.4094C9.3503 19.2553 9.5735 19.198 9.7522 19.2816C9.93085 19.3652 9.99718 19.5578 9.90034 19.712L9.32764 20.624C9.26107 20.7301 9.13456 20.7903 9.00388 20.7903Z" fill="#FBE372"/>
<path d="M16.0066 2.71666C15.9734 2.71666 15.9397 2.71277 15.9061 2.70455C15.7106 2.65676 15.597 2.48123 15.6525 2.31249L16.0481 1.1075C16.1035 0.938834 16.3068 0.840743 16.5024 0.888582C16.6979 0.936378 16.8115 1.1119 16.7561 1.28065L16.3604 2.48564C16.3145 2.62543 16.167 2.71666 16.0066 2.71666Z" fill="#FBE372"/>
<path d="M21.5032 6.0981C21.3626 6.0981 21.2283 6.02808 21.1671 5.91008C21.0842 5.74996 21.1673 5.5622 21.3528 5.49061L22.4502 5.06724C22.6355 4.99577 22.8532 5.06741 22.9361 5.22752C23.019 5.38764 22.9359 5.57541 22.7504 5.647L21.6531 6.07037C21.6044 6.08921 21.5534 6.0981 21.5032 6.0981Z" fill="#FBE372"/>
<path d="M22.6719 15.2361C22.6026 15.2361 22.5327 15.2193 22.4705 15.184L21.4653 14.6153C21.2954 14.5191 21.2479 14.3223 21.3593 14.1757C21.4708 14.029 21.6987 13.9881 21.8688 14.0842L22.874 14.653C23.0439 14.7491 23.0913 14.946 22.9799 15.0926C22.9092 15.1856 22.7917 15.2361 22.6719 15.2361Z" fill="#FBE372"/>
<path d="M16.0064 20.7903C15.8758 20.7903 15.7493 20.7301 15.6826 20.624L15.11 19.712C15.0131 19.5578 15.0795 19.3651 15.2581 19.2816C15.4368 19.198 15.6601 19.2553 15.7569 19.4095L16.3296 20.3215C16.4264 20.4757 16.36 20.6684 16.1814 20.7519C16.1257 20.7779 16.0656 20.7903 16.0064 20.7903Z" fill="#FBE372"/>
<path d="M13.1369 3.02177L15.3561 6.90259C15.4485 7.06405 15.627 7.17598 15.8334 7.20185L20.7958 7.82418C21.3157 7.88937 21.5234 8.44083 21.1471 8.75733L17.5563 11.7781C17.4069 11.9038 17.3388 12.0849 17.374 12.2623L18.2217 16.5278C18.3106 16.9747 17.767 17.3155 17.302 17.1045L12.8635 15.0907C12.6789 15.0069 12.4583 15.0069 12.2736 15.0907L7.83512 17.1045C7.3701 17.3155 6.82658 16.9747 6.91537 16.5278L7.76306 12.2623C7.79833 12.0849 7.73015 11.9038 7.58078 11.7781L3.98997 8.75733C3.61373 8.44083 3.82138 7.88937 4.34129 7.82418L9.30363 7.20185C9.5101 7.17594 9.68861 7.06405 9.78092 6.90259L12.0001 3.02177C12.2326 2.61514 12.9044 2.61514 13.1369 3.02177Z" fill="#FBE88C"/>
<path d="M18.2219 16.5278L18.0925 15.8766L13.064 13.595C12.8469 13.4964 12.5875 13.4964 12.3704 13.595L9.66788 14.8212C9.40318 14.9413 9.09385 14.7473 9.14438 14.493L9.77776 11.3058C9.81303 11.1283 9.74484 10.9472 9.59543 10.8215L7.84275 9.3471C7.51419 9.07069 7.69549 8.58913 8.14953 8.53219L11.0105 8.1734C11.2169 8.14749 11.3954 8.0356 11.4878 7.87413L13.6998 4.00589L13.137 3.02177C12.9045 2.61514 12.2327 2.61514 12.0002 3.02177L9.78095 6.90259C9.68858 7.06409 9.51012 7.17598 9.30366 7.20185L4.34127 7.82418C3.82135 7.88937 3.61376 8.44079 3.98995 8.75733L7.58075 11.7781C7.73017 11.9038 7.79836 12.0849 7.76309 12.2624L6.91544 16.5278C6.82661 16.9747 7.37017 17.3155 7.83524 17.1045L12.2737 15.0907C12.4584 15.0069 12.679 15.0069 12.8637 15.0907L17.3021 17.1045C17.7672 17.3155 18.3107 16.9747 18.2219 16.5278Z" fill="#FBE372"/>
</svg>
