<svg width="42" height="43" viewBox="0 0 42 43" fill="none" xmlns="http://www.w3.org/2000/svg">
<g clip-path="url(#clip0_763_436)">
<path d="M12.7173 29.8242L11.0523 29.9074L7.82401 39.4031C7.72114 39.7056 7.96051 40.0149 8.27165 39.9815L12.7967 39.4964C12.9231 39.4828 13.0488 39.5276 13.1397 39.6186L16.3927 42.8754C16.6163 43.0993 16.9915 43.009 17.0943 42.7066L20.3436 33.1487L19.3855 32.1967L12.7173 29.8242Z" fill="#FF4755"/>
<path d="M20.3434 33.1487L20.9999 31.2175L11.7066 27.9819L11.052 29.9074C13.6909 31.8353 16.8862 33.0155 20.3434 33.1487Z" fill="#FC2B3A"/>
<path d="M29.2827 29.8242L30.9478 29.9074L34.176 39.4031C34.2789 39.7056 34.0395 40.0149 33.7284 39.9815L29.2033 39.4964C29.0769 39.4828 28.9512 39.5276 28.8604 39.6186L25.6074 42.8754C25.3838 43.0993 25.0086 43.009 24.9058 42.7066L21.6565 33.1487L22.6146 32.1967L29.2827 29.8242Z" fill="#FF4755"/>
<path d="M21.6566 33.1487L21 31.2175L30.2933 27.9819L30.9479 29.9074C28.309 31.8353 25.1137 33.0155 21.6566 33.1487Z" fill="#FC2B3A"/>
<path d="M21.0015 30.2441C5.75585 30.2441 5.76225 15.0825 5.77488 14.8219C6.17511 6.56707 12.8392 0 21.0015 0C29.1638 0 35.8279 6.56707 36.2282 14.822C36.2408 15.0826 36.2472 30.2441 21.0015 30.2441Z" fill="#FFE27A"/>
<path d="M21.0006 29.6438C12.8383 29.6438 6.17439 23.0767 5.77408 14.8218C5.76145 15.0824 5.75488 15.3447 5.75488 15.6085C5.75488 24.2289 12.5806 31.2171 21.0006 31.2171C29.4205 31.2171 36.2462 24.2289 36.2462 15.6085C36.2462 15.3446 36.2397 15.0824 36.227 14.8218C35.8267 23.0767 29.1628 29.6438 21.0006 29.6438Z" fill="#F9CF58"/>
<path d="M21.0009 26.8856C9.01473 26.8856 8.99865 14.8186 9.01473 14.5584C9.41102 8.13391 14.6259 3.04883 21.0009 3.04883C27.3759 3.04883 32.5908 8.13391 32.987 14.5584C33.0031 14.8185 32.987 26.8856 21.0009 26.8856Z" fill="#FFBA57"/>
</g>
<defs>
<clipPath id="clip0_763_436">
<rect width="42" height="43" fill="white"/>
</clipPath>
</defs>
</svg>
