<svg width="210" height="227" viewBox="0 0 210 227" fill="none" xmlns="http://www.w3.org/2000/svg">
<g clip-path="url(#clip0_105_9)">
<path d="M105.362 191.269C145.492 191.269 178.025 187.378 178.025 182.578C178.025 177.779 145.492 173.888 105.362 173.888C65.2314 173.888 32.6992 177.779 32.6992 182.578C32.6992 187.378 65.2314 191.269 105.362 191.269Z" fill="#EBEBEB"/>
<path d="M162.402 126.403H162.123V162.247H162.402V126.403Z" fill="#263238"/>
<path d="M170.843 112.334L162.877 162.246H162.595L170.571 112.267L170.843 112.334Z" fill="#263238"/>
<path d="M162.163 162.246H161.888L159.476 99.6966L159.751 99.6787L162.122 161.28L162.163 162.246Z" fill="#263238"/>
<path d="M167.617 87.7756C166.932 90.2997 165.767 92.5904 164.219 94.4611C162.126 97.0878 159.974 98.5153 159.992 98.7972C160.058 99.5937 160.693 100.806 160.645 101.07C160.597 101.334 160.062 101.598 159.615 101.598C159.168 101.598 158.632 101.334 158.581 101.07C158.53 100.806 159.168 99.5937 159.23 98.7972C159.278 98.2334 150.546 93.0425 151.147 82.7772C151.458 77.5102 154.186 75.3802 156.495 74.521C157.138 74.2861 157.797 74.1228 158.464 74.0333C158.846 73.9791 159.23 73.9507 159.615 73.9482C160.843 73.9482 167.577 74.3152 168.075 82.7772C168.181 84.4637 168.026 86.1594 167.617 87.7756Z" fill="#0587B8"/>
<path opacity="0.1" d="M159.992 98.7972C160.058 99.5937 160.693 100.806 160.645 101.07C160.597 101.334 160.062 101.598 159.615 101.598C159.168 101.598 158.632 101.334 158.581 101.07C158.53 100.806 159.168 99.5937 159.23 98.7972C159.278 98.2334 150.546 93.0425 151.147 82.7771C151.458 77.5102 154.186 75.3802 156.495 74.521C154.446 76.6645 151.92 80.8753 153.746 87.7308C155.436 94.0628 160.399 95.9378 164.219 94.4431C162.126 97.0878 159.974 98.5153 159.992 98.7972Z" fill="black"/>
<path d="M165.454 79.7209C165.454 80.1802 165.343 80.6292 165.134 81.0112C164.925 81.3931 164.628 81.6908 164.28 81.8666C163.932 82.0423 163.55 82.0883 163.181 81.9987C162.812 81.9091 162.473 81.6879 162.207 81.3631C161.941 81.0383 161.759 80.6245 161.686 80.174C161.613 79.7235 161.65 79.2565 161.794 78.8321C161.938 78.4078 162.182 78.045 162.495 77.7898C162.808 77.5346 163.176 77.3984 163.552 77.3984C164.057 77.3984 164.54 77.6431 164.897 78.0787C165.254 78.5142 165.454 79.1049 165.454 79.7209Z" fill="white"/>
<path d="M178.711 99.6876C178.029 102.215 176.864 104.508 175.312 106.378C173.223 109.004 171.067 110.432 171.089 110.709C171.155 111.506 171.79 112.718 171.738 112.982C171.687 113.247 171.159 113.511 170.708 113.511C170.257 113.511 169.726 113.247 169.678 112.982C169.63 112.718 170.261 111.506 170.327 110.709C170.371 110.15 161.639 104.959 162.244 94.6937C162.555 89.4223 165.279 87.2922 167.592 86.4375C168.234 86.1992 168.893 86.0344 169.561 85.9453C169.942 85.8921 170.325 85.8652 170.708 85.8647C171.94 85.8647 178.674 86.2272 179.172 94.6937C179.276 96.3789 179.119 98.0729 178.711 99.6876Z" fill="#C7C7C7"/>
<path d="M171.082 110.709C171.148 111.506 171.782 112.718 171.73 112.982C171.679 113.246 171.151 113.51 170.7 113.51C170.249 113.51 169.718 113.246 169.67 112.982C169.623 112.718 170.253 111.506 170.319 110.709C170.363 110.15 161.631 104.959 162.236 94.6936C162.548 89.4222 165.271 87.2922 167.584 86.4375C165.532 88.5765 163.006 92.7873 164.835 99.6473C166.521 105.975 171.485 107.854 175.304 106.36C173.222 109.004 171.082 110.432 171.082 110.709Z" fill="#A6A6A6"/>
<path d="M176.819 91.6643C176.819 92.1236 176.707 92.5726 176.498 92.9545C176.289 93.3365 175.992 93.6341 175.644 93.8099C175.297 93.9857 174.914 94.0317 174.545 93.9421C174.176 93.8525 173.837 93.6313 173.571 93.3065C173.305 92.9817 173.124 92.5679 173.05 92.1173C172.977 91.6668 173.014 91.1999 173.158 90.7755C173.302 90.3511 173.546 89.9884 173.859 89.7332C174.172 89.478 174.54 89.3418 174.916 89.3418C175.421 89.3418 175.905 89.5865 176.262 90.022C176.618 90.4576 176.819 91.0483 176.819 91.6643Z" fill="white"/>
<path d="M170.261 113.77C169.564 116.317 168.382 118.625 166.811 120.505C164.736 123.087 162.625 124.488 162.643 124.765C162.709 125.561 163.343 126.774 163.296 127.038C163.248 127.302 162.713 127.566 162.266 127.566C161.818 127.566 161.283 127.302 161.232 127.038C161.181 126.774 161.818 125.561 161.881 124.765C161.925 124.206 153.193 119.015 153.816 108.749C154.131 103.438 156.895 101.317 159.216 100.471C159.855 100.242 160.51 100.081 161.173 99.9921C161.672 99.9294 162.064 99.916 162.273 99.916C163.501 99.916 170.235 100.283 170.733 108.749C170.837 110.444 170.676 112.148 170.261 113.77Z" fill="#04BD9F"/>
<path d="M153.798 108.749C154.113 103.438 156.877 101.316 159.197 100.471C157.133 102.583 154.516 106.816 156.367 113.766C158.05 120.08 162.995 121.964 166.811 120.505C164.736 123.087 162.625 124.487 162.643 124.765C162.709 125.561 163.343 126.774 163.296 127.038C163.248 127.302 162.713 127.566 162.266 127.566C161.818 127.566 161.283 127.302 161.232 127.038C161.181 126.774 161.818 125.561 161.881 124.765C161.917 124.205 153.193 119.015 153.798 108.749Z" fill="#263238"/>
<path d="M168.149 105.644C168.149 106.103 168.037 106.552 167.828 106.934C167.619 107.316 167.322 107.614 166.974 107.789C166.627 107.965 166.244 108.011 165.875 107.922C165.506 107.832 165.167 107.611 164.901 107.286C164.635 106.961 164.454 106.547 164.38 106.097C164.307 105.646 164.345 105.179 164.489 104.755C164.633 104.331 164.876 103.968 165.189 103.713C165.502 103.458 165.87 103.321 166.246 103.321C166.751 103.321 167.235 103.566 167.592 104.002C167.948 104.437 168.149 105.028 168.149 105.644Z" fill="white"/>
<path d="M165.036 153.928H159.802V162.278H165.036V153.928Z" fill="#FFE76D"/>
<path d="M34.9466 126.403H34.668V162.247H34.9466V126.403Z" fill="#263238"/>
<path d="M43.3847 112.334L35.419 162.246H35.1367L43.1171 112.267L43.3847 112.334Z" fill="#263238"/>
<path d="M34.7036 162.246H34.4287L32.0166 99.6966L32.2952 99.6787L34.6669 161.28L34.7036 162.246Z" fill="#263238"/>
<path d="M40.1588 87.7767C39.476 90.3023 38.3113 92.5937 36.7607 94.4621C34.6712 97.0889 32.5157 98.5163 32.5377 98.7983C32.6037 99.5948 33.2379 100.807 33.1865 101.071C33.1352 101.336 32.6074 101.6 32.1565 101.6C31.7056 101.6 31.1777 101.336 31.1264 101.071C31.0751 100.807 31.7092 99.5948 31.7752 98.7983C31.8192 98.2344 23.0874 93.0436 23.7106 82.7782C24.0038 77.5113 26.7275 75.3992 29.0406 74.5042C29.6843 74.2828 30.3432 74.1331 31.0091 74.0567C31.39 74.0026 31.773 73.9742 32.1565 73.9717C33.3882 73.9717 40.1222 74.3386 40.6207 82.8006C40.7214 84.4799 40.5647 86.1674 40.1588 87.7767Z" fill="#C7C7C7"/>
<path d="M32.5377 98.797C32.6037 99.5935 33.2379 100.806 33.1865 101.07C33.1352 101.334 32.6074 101.598 32.1565 101.598C31.7056 101.598 31.1777 101.334 31.1264 101.07C31.0751 100.806 31.7092 99.5935 31.7752 98.797C31.8192 98.2332 23.0874 93.0423 23.7106 82.777C24.0038 77.51 26.7275 75.3979 29.0406 74.5029C26.9877 76.6464 24.462 80.8572 26.2912 87.7127C27.9775 94.0447 32.9409 95.9197 36.7607 94.425C34.6712 97.0876 32.5157 98.5151 32.5377 98.797Z" fill="#A6A6A6"/>
<path d="M38.015 79.7209C38.015 80.1802 37.9034 80.6292 37.6944 81.0112C37.4853 81.3931 37.1882 81.6908 36.8406 81.8666C36.4929 82.0423 36.1104 82.0883 35.7413 81.9987C35.3723 81.9091 35.0333 81.6879 34.7672 81.3631C34.5011 81.0383 34.3199 80.6245 34.2465 80.174C34.1731 79.7235 34.2108 79.2565 34.3548 78.8321C34.4988 78.4078 34.7426 78.045 35.0555 77.7898C35.3684 77.5346 35.7362 77.3984 36.1125 77.3984C36.6171 77.3984 37.101 77.6431 37.4578 78.0787C37.8146 78.5142 38.015 79.1049 38.015 79.7209Z" fill="white"/>
<path d="M51.2549 99.6876C50.5716 102.214 49.407 104.507 47.8567 106.378C45.7636 109.004 43.6118 110.432 43.6338 110.709C43.6961 111.506 44.3339 112.718 44.2826 112.982C44.2313 113.247 43.6998 113.511 43.2525 113.511C42.8053 113.511 42.2701 113.247 42.2188 112.982C42.1675 112.718 42.8053 111.506 42.8676 110.709C42.9153 110.15 34.1834 104.959 34.803 94.6937C35.1109 89.4223 37.8382 87.2922 40.1476 86.4375C40.7899 86.1996 41.4489 86.0348 42.1162 85.9453C42.4983 85.8921 42.8826 85.8652 43.2672 85.8647C44.4952 85.8647 51.2329 86.2272 51.7314 94.6937C51.8299 96.3801 51.6682 98.074 51.2549 99.6876Z" fill="#04B9A1"/>
<path d="M43.6338 110.709C43.6961 111.506 44.3339 112.718 44.2826 112.982C44.2313 113.246 43.6998 113.51 43.2525 113.51C42.8053 113.51 42.2701 113.246 42.2188 112.982C42.1675 112.718 42.8053 111.506 42.8676 110.709C42.9153 110.15 34.1834 104.959 34.803 94.6936C35.1109 89.4222 37.8382 87.2922 40.1476 86.4375C38.0985 88.5765 35.5728 92.7873 37.3983 99.6473C39.0882 105.975 44.0517 107.854 47.8714 106.36C45.7636 109.004 43.6118 110.432 43.6338 110.709Z" fill="#263238"/>
<path d="M49.3788 91.6643C49.3795 92.1249 49.2682 92.5754 49.0591 92.9587C48.8499 93.3421 48.5522 93.641 48.2038 93.8177C47.8553 93.9944 47.4717 94.0408 47.1016 93.9512C46.7315 93.8615 46.3915 93.6398 46.1247 93.3141C45.8579 92.9884 45.6763 92.5734 45.6029 92.1216C45.5294 91.6698 45.5675 91.2016 45.7122 90.7762C45.8569 90.3508 46.1018 89.9874 46.4159 89.7321C46.7299 89.4768 47.0989 89.3409 47.4763 89.3418C47.9808 89.3418 48.4648 89.5865 48.8216 90.022C49.1783 90.4576 49.3788 91.0483 49.3788 91.6643Z" fill="white"/>
<path d="M42.8019 113.77C42.1084 116.319 40.9257 118.628 39.3524 120.505C37.2776 123.087 35.1661 124.488 35.1881 124.765C35.2504 125.562 35.8883 126.774 35.8369 127.038C35.7856 127.302 35.2577 127.566 34.8069 127.566C34.356 127.566 33.8244 127.302 33.7768 127.038C33.7291 126.774 34.3596 125.562 34.4256 124.765C34.4696 124.206 25.7378 119.015 26.3609 108.75C26.6725 103.438 29.4402 101.317 31.7606 100.471C32.3948 100.249 33.0437 100.095 33.6998 100.01C34.1983 99.9475 34.5906 99.9341 34.7995 99.9341C36.0312 99.9341 42.7652 100.301 43.2638 108.767C43.3705 110.456 43.2138 112.153 42.8019 113.77Z" fill="#0587B8"/>
<path opacity="0.1" d="M26.3425 108.749C26.6541 103.438 29.4218 101.316 31.7422 100.471C29.6784 102.583 27.061 106.816 28.9122 113.766C30.5948 120.08 35.5363 121.964 39.3523 120.505C37.2775 123.087 35.166 124.487 35.188 124.765C35.2503 125.561 35.8882 126.774 35.8369 127.038C35.7855 127.302 35.2577 127.566 34.8068 127.566C34.3559 127.566 33.8244 127.302 33.7767 127.038C33.729 126.774 34.3596 125.561 34.4255 124.765C34.4695 124.205 25.7377 119.015 26.3425 108.749Z" fill="black"/>
<path d="M40.683 105.644C40.683 106.103 40.5714 106.552 40.3623 106.934C40.1533 107.316 39.8562 107.614 39.5085 107.789C39.1609 107.965 38.7783 108.011 38.4093 107.922C38.0402 107.832 37.7012 107.611 37.4352 107.286C37.1691 106.961 36.9879 106.547 36.9145 106.097C36.8411 105.646 36.8788 105.179 37.0228 104.755C37.1667 104.331 37.4106 103.968 37.7235 103.713C38.0363 103.458 38.4042 103.321 38.7805 103.321C39.2847 103.322 39.7681 103.568 40.1247 104.003C40.4813 104.438 40.682 105.028 40.683 105.644Z" fill="white"/>
<path d="M37.5824 153.928H32.3477V162.278H37.5824V153.928Z" fill="#FFE76D"/>
<path d="M25.8955 162.242L44.7778 162.134L63.6639 162.094L101.432 162.018L139.201 162.094L158.087 162.134L176.969 162.242L158.087 162.354L139.201 162.389L101.432 162.466L63.6639 162.389L44.7778 162.349L25.8955 162.242Z" fill="#263238"/>
<path d="M79.4378 71.9301C79.4726 72.2206 79.412 72.5162 79.2692 72.7525C79.1264 72.9888 78.913 73.1467 78.6753 73.192C78.5575 73.2095 78.4381 73.1982 78.3239 73.159C78.2096 73.1198 78.1029 73.0533 78.0099 72.9634C77.9168 72.8735 77.8393 72.7621 77.7817 72.6354C77.7242 72.5087 77.6878 72.3694 77.6746 72.2254C77.6419 71.9346 77.7037 71.6397 77.8469 71.4038C77.9901 71.168 78.2032 71.0099 78.4407 70.9635C78.5582 70.9467 78.6773 70.9584 78.7911 70.9979C78.9049 71.0374 79.0112 71.104 79.1038 71.1938C79.1965 71.2837 79.2737 71.3949 79.331 71.5213C79.3883 71.6476 79.4246 71.7866 79.4378 71.9301Z" fill="#263238"/>
<path d="M149.498 76.579C149.532 76.8701 149.47 77.1656 149.327 77.4017C149.183 77.6379 148.97 77.7957 148.732 77.841C148.614 77.8584 148.495 77.8471 148.381 77.8079C148.267 77.7686 148.16 77.702 148.068 77.6121C147.975 77.5222 147.898 77.4107 147.841 77.284C147.783 77.1574 147.747 77.0181 147.735 76.8744C147.701 76.584 147.762 76.2891 147.905 76.0531C148.047 75.817 148.26 75.6588 148.497 75.6125C148.615 75.5956 148.734 75.6073 148.848 75.6467C148.962 75.6862 149.069 75.7527 149.162 75.8425C149.255 75.9323 149.332 76.0435 149.39 76.1699C149.448 76.2963 149.484 76.4353 149.498 76.579Z" fill="#263238"/>
<path d="M129.366 67.822C129.382 67.9671 129.35 68.114 129.278 68.2311C129.206 68.3483 129.1 68.4263 128.981 68.4484C128.922 68.4578 128.863 68.4528 128.806 68.4337C128.749 68.4145 128.696 68.3817 128.649 68.3371C128.603 68.2925 128.564 68.237 128.535 68.1739C128.507 68.1108 128.489 68.0413 128.482 67.9696C128.465 67.8271 128.494 67.6819 128.562 67.5643C128.63 67.4468 128.733 67.3659 128.849 67.3387C128.909 67.3267 128.971 67.3299 129.03 67.348C129.089 67.3661 129.145 67.3988 129.193 67.4441C129.241 67.4893 129.282 67.5462 129.311 67.6112C129.341 67.6762 129.36 67.7479 129.366 67.822Z" fill="#FFE76D"/>
<path d="M73.5732 67.8222C73.5903 67.9643 73.5617 68.1089 73.4934 68.2257C73.425 68.3425 73.3222 68.4225 73.2066 68.4487C73.148 68.4581 73.0885 68.453 73.0315 68.4339C72.9745 68.4148 72.9212 68.382 72.8748 68.3374C72.8283 68.2928 72.7897 68.2373 72.761 68.1742C72.7324 68.1111 72.7144 68.0416 72.708 67.9699C72.6908 67.8273 72.7193 67.6821 72.7876 67.5646C72.8559 67.4471 72.9587 67.3662 73.0746 67.3389C73.1334 67.3302 73.193 67.3359 73.25 67.3555C73.307 67.3751 73.3603 67.4084 73.4066 67.4534C73.453 67.4983 73.4916 67.5541 73.5202 67.6174C73.5488 67.6807 73.5668 67.7504 73.5732 67.8222Z" fill="#FFE76D"/>
<path d="M140.132 32.4082C140.148 32.55 140.12 32.6941 140.051 32.8106C139.983 32.9272 139.881 33.0074 139.766 33.0346C139.707 33.0446 139.647 33.0401 139.59 33.0212C139.533 33.0023 139.479 32.9696 139.433 32.9248C139.386 32.8801 139.348 32.8244 139.319 32.761C139.291 32.6976 139.273 32.6278 139.267 32.5558C139.249 32.4131 139.277 32.2674 139.346 32.1495C139.414 32.0317 139.517 31.9511 139.634 31.9249C139.692 31.9162 139.752 31.9218 139.809 31.9414C139.866 31.9611 139.919 31.9943 139.966 32.0393C140.012 32.0843 140.051 32.14 140.079 32.2033C140.108 32.2667 140.126 32.3363 140.132 32.4082Z" fill="#263238"/>
<path d="M116.645 103.259C116.663 103.402 116.635 103.547 116.567 103.665C116.498 103.783 116.395 103.864 116.278 103.89C116.22 103.899 116.16 103.893 116.103 103.873C116.046 103.854 115.993 103.82 115.946 103.775C115.9 103.73 115.861 103.675 115.833 103.611C115.804 103.548 115.786 103.478 115.78 103.407C115.764 103.265 115.793 103.121 115.861 103.004C115.929 102.887 116.031 102.807 116.146 102.78C116.205 102.77 116.265 102.775 116.322 102.794C116.379 102.812 116.433 102.845 116.479 102.89C116.526 102.935 116.564 102.99 116.593 103.054C116.621 103.117 116.639 103.187 116.645 103.259Z" fill="#263238"/>
<path d="M109.248 24.268C109.265 24.4106 109.237 24.5558 109.168 24.6733C109.1 24.7909 108.997 24.8717 108.881 24.899C108.823 24.9077 108.763 24.9021 108.706 24.8824C108.649 24.8628 108.596 24.8295 108.549 24.7846C108.503 24.7396 108.464 24.6838 108.436 24.6205C108.407 24.5572 108.389 24.4876 108.383 24.4157C108.366 24.2731 108.394 24.1279 108.462 24.0104C108.531 23.8929 108.634 23.812 108.749 23.7847C108.808 23.776 108.868 23.7817 108.925 23.8013C108.982 23.8209 109.035 23.8542 109.081 23.8992C109.128 23.9441 109.166 23.9999 109.195 24.0632C109.224 24.1265 109.242 24.1961 109.248 24.268Z" fill="#263238"/>
<path d="M59.5956 81.6318C59.6129 81.7744 59.5844 81.9196 59.5161 82.0371C59.4478 82.1547 59.345 82.2355 59.229 82.2628C59.1703 82.2715 59.1106 82.2659 59.0536 82.2462C58.9966 82.2266 58.9434 82.1933 58.897 82.1483C58.8506 82.1034 58.812 82.0476 58.7835 81.9843C58.7549 81.921 58.7369 81.8514 58.7305 81.7795C58.7133 81.6369 58.7418 81.4917 58.81 81.3742C58.8783 81.2566 58.9812 81.1758 59.0971 81.1485C59.1559 81.1398 59.2155 81.1454 59.2725 81.1651C59.3295 81.1847 59.3827 81.218 59.4291 81.2629C59.4755 81.3079 59.5141 81.3637 59.5427 81.427C59.5713 81.4903 59.5893 81.5599 59.5956 81.6318Z" fill="#FFE76D"/>
<path d="M135.403 125.964C135.421 126.107 135.393 126.252 135.324 126.37C135.256 126.488 135.153 126.569 135.036 126.595C134.977 126.604 134.918 126.598 134.861 126.578C134.804 126.559 134.751 126.525 134.704 126.48C134.658 126.435 134.619 126.38 134.591 126.316C134.562 126.253 134.544 126.183 134.538 126.112C134.521 125.966 134.552 125.818 134.624 125.7C134.696 125.581 134.803 125.503 134.923 125.481C135.039 125.468 135.154 125.512 135.244 125.602C135.334 125.693 135.391 125.823 135.403 125.964Z" fill="#455A64"/>
<path d="M75.1049 116.285C75.1221 116.427 75.0936 116.572 75.0254 116.69C74.9571 116.807 74.8542 116.888 74.7383 116.916C74.6794 116.925 74.6196 116.92 74.5624 116.9C74.5052 116.881 74.4518 116.848 74.4053 116.803C74.3588 116.758 74.3202 116.702 74.2918 116.638C74.2633 116.574 74.2457 116.504 74.2398 116.432C74.2216 116.29 74.2497 116.144 74.3182 116.026C74.3866 115.908 74.49 115.828 74.6064 115.801C74.6651 115.793 74.7248 115.798 74.7818 115.818C74.8388 115.838 74.892 115.871 74.9384 115.916C74.9848 115.961 75.0234 116.016 75.052 116.08C75.0805 116.143 75.0985 116.213 75.1049 116.285Z" fill="#FFE76D"/>
<path d="M81.4246 94.7338C81.4593 95.0244 81.3987 95.3199 81.2559 95.5562C81.1132 95.7925 80.8997 95.9505 80.6621 95.9957C80.5442 96.0138 80.4246 96.003 80.3102 95.964C80.1957 95.925 80.0888 95.8586 79.9957 95.7686C79.9025 95.6787 79.8249 95.5669 79.7675 95.44C79.7101 95.313 79.674 95.1733 79.6613 95.0292C79.6277 94.7386 79.6893 94.4437 79.8327 94.2083C79.9762 93.9728 80.1899 93.816 80.4275 93.7717C80.5449 93.7537 80.664 93.7643 80.778 93.8031C80.892 93.8418 80.9985 93.9079 81.0913 93.9975C81.1841 94.0871 81.2614 94.1983 81.3186 94.3247C81.3758 94.4511 81.4119 94.5902 81.4246 94.7338Z" fill="#FFE76D"/>
<path d="M88.9683 36.6502C89.0019 36.9351 88.9445 37.2249 88.8081 37.4598C88.6717 37.6946 88.4666 37.8565 88.2352 37.9121C88.1177 37.9289 87.9986 37.9172 87.8848 37.8777C87.771 37.8381 87.6647 37.7716 87.5721 37.6817C87.4794 37.5919 87.4022 37.4806 87.3449 37.3543C87.2876 37.2279 87.2513 37.089 87.2381 36.9455C87.2033 36.6549 87.2639 36.3594 87.4067 36.1231C87.5495 35.8868 87.7629 35.7288 88.0006 35.6836C88.2331 35.6596 88.4642 35.7471 88.6449 35.9275C88.8255 36.1079 88.9415 36.3671 88.9683 36.6502Z" fill="#455A64"/>
<path d="M76.8714 105.725C76.9051 106.016 76.8437 106.311 76.7003 106.547C76.5569 106.783 76.3432 106.941 76.1053 106.987C75.9879 107.005 75.8687 106.994 75.7548 106.955C75.6408 106.916 75.5343 106.85 75.4415 106.761C75.3486 106.671 75.2714 106.56 75.2141 106.433C75.1569 106.307 75.1209 106.168 75.1082 106.024C75.0735 105.734 75.1341 105.438 75.2768 105.202C75.4196 104.966 75.633 104.808 75.8707 104.762C75.9883 104.744 76.1076 104.755 76.2218 104.794C76.336 104.832 76.4428 104.898 76.5359 104.988C76.629 105.078 76.7066 105.189 76.7642 105.315C76.8218 105.442 76.8583 105.581 76.8714 105.725Z" fill="#455A64"/>
<path d="M122.046 28.2685C122.08 28.5585 122.019 28.8536 121.877 29.0891C121.734 29.3247 121.52 29.4818 121.283 29.526C121.166 29.544 121.046 29.5334 120.933 29.4946C120.819 29.4558 120.712 29.3898 120.619 29.3002C120.526 29.2106 120.449 29.0994 120.392 28.973C120.335 28.8465 120.299 28.7075 120.286 28.5639C120.251 28.2733 120.312 27.9778 120.455 27.7415C120.597 27.5052 120.811 27.3472 121.048 27.3019C121.166 27.2839 121.286 27.2947 121.4 27.3337C121.514 27.3728 121.621 27.4393 121.713 27.5293C121.806 27.6193 121.884 27.7311 121.941 27.858C121.998 27.985 122.033 28.1245 122.046 28.2685Z" fill="#263238"/>
<path d="M121.319 64.7388L122.58 64.2063C122.58 64.2063 121.718 63.647 121.722 61.9062C121.726 60.1655 122.899 59.4808 122.389 57.9102L120.989 58.3934C121.149 58.8121 121.237 59.2663 121.247 59.728C121.258 60.1898 121.191 60.6493 121.051 61.0784C120.681 62.0539 120.347 63.2397 121.319 64.7388Z" fill="#263238"/>
<path d="M90.472 71.5314L89.2293 70.9229C89.2293 70.9229 89.6179 72.0416 88.7491 73.3885C87.8803 74.7354 86.6266 74.3327 86.2344 75.9616L87.5614 76.7089C87.6434 76.2674 87.7995 75.8514 88.0196 75.4871C88.2398 75.1229 88.5194 74.8182 88.8407 74.5922C89.6289 74.1269 90.483 73.4735 90.472 71.5314Z" fill="#455A64"/>
<path d="M61.7398 101.303L60.5008 100.712C60.5008 100.712 60.8674 101.831 60.0169 103.178C59.1665 104.525 57.8944 104.122 57.5059 105.751L58.8292 106.498C58.9113 106.057 59.0673 105.641 59.2875 105.277C59.5076 104.912 59.7872 104.608 60.1086 104.382C60.8967 103.894 61.7508 103.241 61.7398 101.303Z" fill="#263238"/>
<path d="M157.028 98.22L155.789 97.6338C155.789 97.6338 156.174 98.748 155.305 100.099C154.436 101.451 153.183 101.044 152.794 102.668L154.117 103.42C154.2 102.978 154.356 102.562 154.576 102.197C154.796 101.832 155.075 101.526 155.397 101.299C156.185 100.798 157.039 100.144 157.028 98.22Z" fill="#FFE76D"/>
<path d="M66.8899 56.4872L67.0695 54.827C67.0695 54.827 66.2924 55.552 65.0607 54.7823C63.829 54.0126 63.862 52.3703 62.5203 52.2495L62.2344 54.0395C62.6009 54.0462 62.962 54.1488 63.2933 54.3402C63.6247 54.5316 63.9186 54.8075 64.1552 55.1492C64.7014 56.0218 65.3943 56.9302 66.8899 56.4872Z" fill="#263238"/>
<path d="M59.1663 123.44L59.3459 121.78C59.3459 121.78 58.5687 122.505 57.337 121.735C56.1054 120.966 56.1383 119.328 54.7967 119.203L54.5107 120.993C54.8773 120.999 55.2384 121.102 55.5697 121.293C55.901 121.485 56.1949 121.761 56.4316 122.102C56.9778 122.975 57.6706 123.883 59.1663 123.44Z" fill="#FFE76D"/>
<path d="M103.973 118.979L104.153 117.319C104.153 117.319 103.375 118.044 102.144 117.274C100.912 116.504 100.945 114.867 99.6033 114.741L99.3174 116.531C99.6833 116.539 100.044 116.641 100.374 116.833C100.705 117.024 100.998 117.3 101.235 117.641C101.799 118.514 102.477 119.422 103.973 118.979Z" fill="#455A64"/>
<path d="M157.446 60.6977L157.625 59.0375C157.625 59.0375 156.852 59.7624 155.617 58.9883C154.381 58.2141 154.418 56.5808 153.076 56.46L152.794 58.2499C153.16 58.2573 153.52 58.3602 153.851 58.5516C154.182 58.743 154.475 59.0185 154.711 59.3597C155.257 60.2323 155.95 61.1362 157.446 60.6977Z" fill="#FFE76D"/>
<path d="M77.8691 125.373L78.1221 127.02C78.1221 127.02 78.6719 126.018 80.0356 126.25C81.3993 126.483 81.7805 128.04 83.0819 127.615L82.8949 125.794C82.5503 125.937 82.1844 125.987 81.8224 125.94C81.4604 125.894 81.1109 125.753 80.7981 125.526C80.0613 124.926 79.1742 124.349 77.8691 125.373Z" fill="#455A64"/>
<path d="M100.07 91.0602L98.6693 90.1025C98.6693 90.1025 97.5402 92.2594 98.9002 93.3468C98.9002 93.3289 98.618 91.9283 100.07 91.0602Z" fill="#FFE76D"/>
<path d="M98.9358 95.9559L100.402 95.2622C100.402 95.2622 100.486 93.6692 98.8955 93.3291C98.8992 93.3291 99.8963 94.77 98.9358 95.9559Z" fill="#FFE76D"/>
<path d="M60.9621 23.7579L59.5654 22.8003C59.5654 22.8003 58.4327 24.9572 59.7964 26.0446C59.7964 26.0446 59.5141 24.6439 60.9621 23.7579Z" fill="#455A64"/>
<path d="M59.8333 28.6712L61.2996 27.9776C61.2996 27.9776 61.3839 26.3845 59.793 26.0444C59.7966 26.0444 60.7937 27.4853 59.8333 28.6712Z" fill="#455A64"/>
<path d="M109.453 63.9554C109.42 63.6644 109.481 63.3689 109.625 63.1327C109.768 62.8966 109.982 62.7388 110.219 62.6935C110.337 62.6761 110.456 62.6873 110.57 62.7266C110.684 62.7659 110.791 62.8324 110.884 62.9224C110.976 63.0123 111.053 63.1238 111.111 63.2504C111.168 63.3771 111.204 63.5163 111.217 63.6601C111.249 63.9509 111.187 64.2459 111.044 64.4817C110.901 64.7176 110.688 64.8756 110.45 64.922C110.333 64.9388 110.214 64.9271 110.1 64.8876C109.986 64.8481 109.88 64.7815 109.787 64.6917C109.695 64.6019 109.617 64.4906 109.56 64.3642C109.503 64.2379 109.467 64.099 109.453 63.9554Z" fill="#263238"/>
<path d="M138.109 85.6229C138.075 85.3324 138.137 85.0374 138.28 84.802C138.423 84.5666 138.637 84.4097 138.875 84.3655C138.992 84.3474 139.111 84.3581 139.225 84.3968C139.339 84.4356 139.446 84.5017 139.539 84.5913C139.631 84.6808 139.709 84.7921 139.766 84.9185C139.823 85.0449 139.859 85.184 139.872 85.3276C139.907 85.6181 139.846 85.9137 139.703 86.15C139.56 86.3863 139.347 86.5442 139.109 86.5895C138.992 86.6069 138.872 86.5957 138.758 86.5565C138.644 86.5173 138.537 86.4508 138.444 86.3609C138.351 86.271 138.273 86.1595 138.216 86.0329C138.158 85.9062 138.122 85.7669 138.109 85.6229Z" fill="#FFE76D"/>
<path d="M119.395 124.961C119.361 124.67 119.423 124.375 119.566 124.139C119.709 123.902 119.923 123.745 120.161 123.699C120.278 123.682 120.398 123.693 120.512 123.732C120.626 123.772 120.732 123.838 120.825 123.928C120.918 124.018 120.995 124.13 121.052 124.256C121.109 124.383 121.145 124.522 121.158 124.666C121.192 124.956 121.131 125.251 120.988 125.487C120.846 125.723 120.633 125.881 120.396 125.928C120.278 125.945 120.159 125.933 120.045 125.894C119.93 125.854 119.824 125.788 119.731 125.698C119.638 125.608 119.561 125.497 119.503 125.37C119.445 125.244 119.408 125.105 119.395 124.961Z" fill="#FFE76D"/>
<path d="M45.2437 106.574C45.2255 106.432 45.2536 106.286 45.3221 106.168C45.3905 106.05 45.4939 105.97 45.6103 105.943C45.6691 105.935 45.7287 105.94 45.7857 105.96C45.8427 105.98 45.8959 106.013 45.9423 106.058C45.9887 106.103 46.0273 106.159 46.0559 106.222C46.0844 106.285 46.1024 106.355 46.1088 106.427C46.1246 106.572 46.0933 106.72 46.0214 106.838C45.9495 106.956 45.8428 107.034 45.7239 107.058C45.6079 107.07 45.4925 107.027 45.4027 106.936C45.3129 106.846 45.2557 106.716 45.2437 106.574Z" fill="#FFE76D"/>
<path d="M117.158 94.4924C117.141 94.3498 117.169 94.2046 117.238 94.0871C117.306 93.9695 117.409 93.8887 117.525 93.8614C117.584 93.8527 117.643 93.8583 117.7 93.878C117.757 93.8976 117.81 93.9309 117.857 93.9758C117.903 94.0208 117.942 94.0766 117.97 94.1399C117.999 94.2032 118.017 94.2728 118.023 94.3447C118.041 94.4873 118.012 94.6325 117.944 94.75C117.876 94.8675 117.773 94.9484 117.657 94.9757C117.538 94.992 117.419 94.9504 117.326 94.8598C117.232 94.7692 117.172 94.6371 117.158 94.4924Z" fill="#FFE76D"/>
<path d="M105.139 49.529C105.121 49.3864 105.15 49.2412 105.218 49.1237C105.287 49.0061 105.389 48.9253 105.505 48.898C105.564 48.8893 105.624 48.8949 105.681 48.9146C105.738 48.9342 105.791 48.9675 105.837 49.0124C105.884 49.0574 105.922 49.1132 105.951 49.1765C105.979 49.2398 105.997 49.3094 106.004 49.3813C106.021 49.5239 105.993 49.6691 105.924 49.7866C105.856 49.9042 105.753 49.985 105.637 50.0123C105.578 50.021 105.519 50.0154 105.462 49.9957C105.405 49.9761 105.352 49.9428 105.305 49.8978C105.259 49.8529 105.22 49.7971 105.192 49.7338C105.163 49.6705 105.145 49.6009 105.139 49.529Z" fill="#37474F"/>
<path d="M138.677 54.5765C138.643 54.2855 138.705 53.99 138.848 53.7538C138.992 53.5177 139.205 53.3599 139.443 53.3146C139.561 53.2972 139.68 53.3084 139.794 53.3477C139.908 53.387 140.014 53.4535 140.107 53.5435C140.2 53.6334 140.277 53.7449 140.334 53.8715C140.391 53.9982 140.427 54.1374 140.44 54.2812C140.474 54.5717 140.412 54.8667 140.269 55.1021C140.125 55.3375 139.912 55.4944 139.674 55.5386C139.557 55.5561 139.438 55.545 139.324 55.506C139.21 55.467 139.104 55.4008 139.011 55.3114C138.918 55.2219 138.841 55.1109 138.784 54.9848C138.726 54.8586 138.69 54.7199 138.677 54.5765Z" fill="#FFE76D"/>
<path d="M47.304 94.7519C47.2703 94.462 47.3314 94.1676 47.474 93.9323C47.6167 93.697 47.8295 93.5397 48.0665 93.4944C48.1841 93.4763 48.3034 93.4869 48.4176 93.5256C48.5318 93.5644 48.6386 93.6304 48.7317 93.7199C48.8248 93.8094 48.9024 93.9206 48.96 94.0471C49.0176 94.1736 49.0541 94.3127 49.0672 94.4565C49.1009 94.7475 49.0394 95.0431 48.8961 95.2792C48.7527 95.5153 48.539 95.6731 48.3011 95.7184C48.1834 95.7365 48.064 95.7257 47.9498 95.6866C47.8356 95.6476 47.7289 95.5811 47.636 95.4911C47.5432 95.401 47.466 95.2893 47.4089 95.1623C47.3519 95.0354 47.3162 94.8958 47.304 94.7519Z" fill="#455A64"/>
<path d="M84.4594 55.1088L82.3406 55.8695C82.3406 55.8695 81.3325 52.5223 83.4403 51.5781C83.4293 51.5781 82.7145 53.3591 84.4594 55.1088Z" fill="#455A64"/>
<path d="M84.1116 48.0474L85.9445 49.542C85.9445 49.542 85.6769 51.7257 83.4444 51.578C83.4298 51.578 85.127 50.0118 84.1116 48.0474Z" fill="#455A64"/>
<path d="M152.192 119.355L150.077 120.116C150.077 120.116 149.069 116.768 151.177 115.824C151.166 115.824 150.451 117.605 152.192 119.355Z" fill="#455A64"/>
<path d="M151.848 112.293L153.681 113.788C153.681 113.788 153.413 115.971 151.181 115.824C151.166 115.824 152.86 114.257 151.848 112.293Z" fill="#455A64"/>
<path d="M137.94 96.8458L137.654 94.0848C137.654 94.0848 140.418 93.3107 140.851 96.0716C140.851 96.0716 139.557 94.9216 137.94 96.8458Z" fill="#263238"/>
<path d="M143.52 97.4366L142.083 99.4951C142.083 99.4951 140.411 98.8417 140.851 96.0718C140.851 96.0718 141.834 98.4211 143.52 97.4366Z" fill="#263238"/>
<path d="M86.6341 115.6L84.5154 116.356C84.5154 116.356 83.5073 113.014 85.6151 112.069C85.6077 112.092 84.8929 113.85 86.6341 115.6Z" fill="#263238"/>
<path d="M86.2893 108.534L88.1222 110.033C88.1222 110.033 87.8546 112.217 85.6222 112.069C85.6075 112.092 87.3011 110.503 86.2893 108.534Z" fill="#263238"/>
<path d="M124.629 47.3496L126.026 48.3117C126.026 48.3117 127.158 46.1548 125.798 45.0674C125.798 45.0674 126.077 46.468 124.629 47.3496Z" fill="#455A64"/>
<path d="M125.762 42.4404L124.296 43.1296C124.296 43.1296 124.208 44.7226 125.802 45.0672C125.799 45.0672 124.798 43.6263 125.762 42.4404Z" fill="#455A64"/>
<path d="M122.118 102.798L122.349 104.785C122.349 104.785 124.395 104.633 124.263 102.605C124.263 102.605 123.548 103.729 122.118 102.798Z" fill="#FFE76D"/>
<path d="M125.905 100.99L124.585 99.9204C124.585 99.9204 123.526 100.789 124.263 102.605C124.263 102.605 124.578 100.726 125.905 100.99Z" fill="#FFE76D"/>
<path opacity="0.8" d="M175.614 144.459L160.561 142.919L154.581 127.604C154.162 126.531 152.783 126.531 152.365 127.604L146.385 142.919L131.331 144.459C130.277 144.567 129.851 146.013 130.646 146.783L142.004 157.788L138.68 174.055C138.448 175.194 139.563 176.088 140.473 175.492L153.473 166.978L166.472 175.492C167.383 176.088 168.498 175.194 168.265 174.055L164.941 157.788L176.299 146.783C177.094 146.013 176.668 144.567 175.614 144.459Z" fill="#FBE372"/>
<g opacity="0.7">
<path d="M138.106 126.924C138.856 128.134 140.972 133.332 142.182 136.361C142.372 136.838 141.858 137.268 141.53 136.907C139.442 134.613 135.872 130.631 135.122 129.421C134.529 128.463 134.716 127.128 135.54 126.438C136.364 125.749 137.513 125.966 138.106 126.924Z" fill="#ECC814"/>
<path d="M168.177 126.924C167.427 128.134 165.311 133.332 164.101 136.361C163.91 136.838 164.425 137.268 164.753 136.907C166.841 134.613 170.411 130.631 171.161 129.421C171.754 128.463 171.567 127.128 170.743 126.438C169.919 125.749 168.77 125.966 168.177 126.924Z" fill="#ECC814"/>
<path d="M180.024 162.416C178.804 161.954 173.9 161.19 171.049 160.77C170.601 160.705 170.405 161.405 170.8 161.658C173.315 163.273 177.664 166.016 178.884 166.479C179.849 166.845 180.887 166.232 181.202 165.11C181.517 163.988 180.989 162.782 180.024 162.416Z" fill="#ECC814"/>
<path d="M151.359 186.53C151.359 185.039 152.255 179.384 152.796 176.104C152.881 175.588 153.515 175.588 153.6 176.104C154.141 179.384 155.036 185.039 155.036 186.53C155.036 187.71 154.213 188.667 153.198 188.667C152.182 188.667 151.359 187.71 151.359 186.53Z" fill="#ECC814"/>
</g>
<path d="M64.1279 158.503C64.1279 159.136 64.3564 159.663 64.7959 160.103C65.2354 160.542 65.7803 160.771 66.3955 160.771H67.9072V164.673H66.3955C65.3936 164.673 64.4619 164.462 63.6357 164.04C63.1436 165.604 62.2646 166.976 61.0166 168.188C58.9248 170.21 56.3584 171.194 53.3174 171.159C50.5928 170.983 48.3076 169.981 46.4619 168.153C44.6162 166.325 43.5791 164.058 43.3682 161.333C43.3154 157.729 44.5986 154.864 47.2002 152.72L47.7451 153.405C48.6943 154.759 48.7998 156.165 48.0439 157.659C47.499 158.644 47.2354 159.733 47.2529 160.929C47.3232 162.634 47.9209 164.093 49.0635 165.271C50.2061 166.448 51.6123 167.116 53.3174 167.274C55.2686 167.327 56.9033 166.729 58.2393 165.464C59.5752 164.198 60.2432 162.634 60.2432 160.771V142.349C60.2432 141.276 60.6299 140.362 61.3857 139.606C62.1416 138.851 63.0557 138.464 64.1279 138.464V158.503ZM75.6064 160.788H80.0713C79.3506 158.063 77.9795 156.604 75.958 156.376H75.8877C75.8174 156.358 75.7646 156.358 75.7119 156.358H75.6064C74.9912 156.394 74.4814 156.622 74.0771 157.044C73.6729 157.466 73.4619 157.976 73.4619 158.573C73.4619 159.171 73.6729 159.681 74.0771 160.103C74.4814 160.524 74.9912 160.753 75.6064 160.788ZM91.3564 164.673H67.2041V160.788H69.999C69.7178 160.103 69.5771 159.364 69.5771 158.573C69.5771 156.921 70.1396 155.515 71.2822 154.354C72.4072 153.194 73.8135 152.562 75.501 152.474H75.6768C75.8701 152.474 76.0459 152.491 76.2393 152.509C78.0322 152.632 79.6494 153.353 81.0732 154.706C82.4971 156.06 83.499 158.099 84.0615 160.788H87.1729C86.1006 154.53 83.165 151.138 78.3662 150.61L78.3135 150.593C78.1201 150.575 77.9443 150.575 77.7861 150.575H77.5576C76.7842 150.61 76.0635 150.769 75.3955 151.05C74.2354 151.489 73.1455 151.366 72.126 150.646L70.7725 149.626C72.5127 147.815 74.7627 146.849 77.4873 146.69H77.7686C78.0674 146.69 78.3486 146.708 78.6475 146.726C80.8799 146.884 82.9717 147.622 84.8877 148.94C86.8037 150.276 88.3506 152.245 89.5635 154.829C90.7588 157.431 91.3564 160.718 91.3564 164.673ZM102.343 164.673H101.657C99.9873 164.655 98.5635 164.058 97.3857 162.862C96.1729 161.667 95.5752 160.226 95.5752 158.521V142.366C95.5752 141.294 95.9619 140.362 96.7178 139.606C97.4736 138.851 98.3877 138.481 99.46 138.481V158.521C99.46 159.153 99.6885 159.681 100.128 160.12C100.567 160.56 101.095 160.788 101.728 160.788H102.343V164.673ZM106.192 144.827C106.192 145.442 105.964 145.987 105.524 146.427C105.085 146.866 104.54 147.095 103.925 147.095C103.31 147.095 102.765 146.866 102.325 146.427C101.886 145.987 101.657 145.442 101.657 144.827C101.657 144.212 101.886 143.667 102.325 143.228C102.765 142.788 103.31 142.56 103.925 142.56C104.54 142.56 105.085 142.788 105.524 143.228C105.964 143.667 106.192 144.212 106.192 144.827ZM108.442 152.755C108.442 151.683 108.829 150.751 109.585 149.995C110.341 149.239 111.255 148.853 112.327 148.853V158.521C112.327 159.136 112.556 159.681 112.995 160.12C113.435 160.56 113.979 160.788 114.595 160.788H115.228V164.673H114.595C112.96 164.673 111.554 164.11 110.376 163.003C109.198 164.11 107.81 164.673 106.175 164.673H101.675V160.788H106.175C106.79 160.788 107.335 160.56 107.774 160.12C108.214 159.681 108.442 159.136 108.442 158.521V152.755ZM111.272 144.827C111.272 145.442 111.062 145.987 110.622 146.427C110.183 146.866 109.638 147.095 109.005 147.095C108.39 147.095 107.845 146.866 107.405 146.427C106.966 145.987 106.737 145.442 106.737 144.827C106.737 144.212 106.966 143.667 107.405 143.228C107.845 142.788 108.39 142.56 109.005 142.56C109.638 142.56 110.183 142.788 110.622 143.228C111.062 143.667 111.272 144.212 111.272 144.827ZM120.325 155.198C120.325 154.126 120.712 153.194 121.468 152.438C122.224 151.683 123.138 151.296 124.21 151.296V158.837C124.21 159.382 124.403 159.839 124.79 160.208C125.159 160.595 125.616 160.788 126.161 160.788C126.706 160.788 127.163 160.595 127.55 160.208C127.919 159.839 128.112 159.382 128.112 158.837V153.968C128.112 152.896 128.499 151.981 129.255 151.226C130.011 150.47 130.925 150.083 131.997 150.083V158.837C131.997 159.382 132.19 159.839 132.56 160.208C132.929 160.595 133.386 160.788 133.931 160.788C134.476 160.788 134.933 160.595 135.319 160.208C135.688 159.839 135.882 159.382 135.882 158.837V152.755C135.882 151.683 136.269 150.751 137.024 149.995C137.78 149.239 138.694 148.853 139.767 148.853V158.521C139.767 159.136 139.995 159.681 140.435 160.12C140.874 160.56 141.419 160.788 142.034 160.788H143.81V164.673H142.034C140.54 164.673 139.222 164.198 138.114 163.267C137.13 164.198 135.952 164.673 134.581 164.673H133.28C132.05 164.673 130.978 164.304 130.046 163.548C129.114 164.304 128.042 164.673 126.812 164.673H125.511C124.14 164.673 122.962 164.198 121.978 163.267C120.87 164.198 119.552 164.673 118.058 164.673H114.524V160.788H118.058C118.69 160.788 119.235 160.56 119.675 160.12C120.114 159.681 120.325 159.136 120.325 158.521V155.198ZM149.909 158.521V152.755C149.909 151.683 150.296 150.751 151.052 149.995C151.808 149.239 152.722 148.853 153.794 148.853V158.521C153.794 160.226 153.196 161.667 152.001 162.862C150.788 164.075 149.347 164.673 147.642 164.673H143.142V160.788H147.642C148.257 160.788 148.802 160.56 149.241 160.12C149.681 159.681 149.909 159.136 149.909 158.521ZM152.722 144.827C152.722 145.442 152.511 145.987 152.071 146.427C151.632 146.866 151.087 147.095 150.454 147.095C149.839 147.095 149.294 146.866 148.854 146.427C148.415 145.987 148.187 145.442 148.187 144.827C148.187 144.212 148.415 143.667 148.854 143.228C149.294 142.788 149.839 142.56 150.454 142.56C151.087 142.56 151.632 142.788 152.071 143.228C152.511 143.667 152.722 144.212 152.722 144.827ZM147.642 144.827C147.642 145.442 147.413 145.987 146.974 146.427C146.534 146.866 145.989 147.095 145.374 147.095C144.759 147.095 144.214 146.866 143.774 146.427C143.335 145.987 143.106 145.442 143.106 144.827C143.106 144.212 143.335 143.667 143.774 143.228C144.214 142.788 144.759 142.56 145.374 142.56C145.989 142.56 146.534 142.788 146.974 143.228C147.413 143.667 147.642 144.212 147.642 144.827Z" fill="#3A0057"/>
</g>
<ellipse cx="105.156" cy="121.471" rx="104.578" ry="104.942" fill="#0583BA" fill-opacity="0.07"/>
<defs>
<clipPath id="clip0_105_9">
<rect width="183.288" height="223.744" fill="white" transform="translate(9.78809 0.66748)"/>
</clipPath>
</defs>
</svg>
