<svg width="36" height="28" viewBox="0 0 36 28" fill="none" xmlns="http://www.w3.org/2000/svg">
<path d="M20.8501 22.9102H15.7686V25.7233C15.7686 26.5716 16.6128 27.2593 17.6543 27.2593H18.9644C20.0059 27.2593 20.8501 26.5716 20.8501 25.7233V22.9102Z" fill="#A59CA6"/>
<path d="M20.8501 22.9102H15.7686V25.7233C15.7686 26.5716 16.6128 27.2593 17.6543 27.2593H18.9644C20.0059 27.2593 20.8501 26.5716 20.8501 25.7233V22.9102Z" stroke="#4D464E"/>
<path d="M20.8501 22.9102H17.2222H16.7928H15.7686V25.7233C15.7686 26.5716 16.6128 27.2593 17.6543 27.2593H18.9644C19.6942 27.2593 20.326 26.921 20.6394 26.4268C20.5667 26.4337 20.4931 26.4383 20.418 26.4383H19.1079C18.2794 26.4383 17.5766 26.0029 17.3239 25.3976C17.2288 25.17 17.436 24.9334 17.7313 24.9334H20.8502V22.9102H20.8501Z" fill="#8F8390"/>
<path d="M20.8501 22.9102H17.2222H16.7928H15.7686V25.7233C15.7686 26.5716 16.6128 27.2593 17.6543 27.2593H18.9644C19.6942 27.2593 20.326 26.921 20.6394 26.4268C20.5667 26.4337 20.4931 26.4383 20.418 26.4383H19.1079C18.2794 26.4383 17.5766 26.0029 17.3239 25.3976C17.2288 25.17 17.436 24.9334 17.7313 24.9334H20.8502V22.9102H20.8501Z" stroke="#4D464E"/>
<path d="M29.5703 9.95099C29.5703 4.88475 24.5284 0.777832 18.3091 0.777832C12.0897 0.777832 7.04785 4.88475 7.04785 9.95099C7.04785 11.9164 7.80701 13.7372 9.09906 15.2301L14.5178 22.1018V22.9954C14.5178 23.5579 15.0777 24.014 15.7683 24.014H20.8498C21.5405 24.014 22.1004 23.5579 22.1004 22.9954V22.1018L27.5191 15.2301C28.8111 13.7372 29.5703 11.9164 29.5703 9.95099Z" fill="#FBE88C"/>
<path d="M29.5703 9.95099C29.5703 4.88475 24.5284 0.777832 18.3091 0.777832C12.0897 0.777832 7.04785 4.88475 7.04785 9.95099C7.04785 11.9164 7.80701 13.7372 9.09906 15.2301L14.5178 22.1018V22.9954C14.5178 23.5579 15.0777 24.014 15.7683 24.014H20.8498C21.5405 24.014 22.1004 23.5579 22.1004 22.9954V22.1018L27.5191 15.2301C28.8111 13.7372 29.5703 11.9164 29.5703 9.95099Z" stroke="#4D464E"/>
<path d="M13.848 16.4006C12.4971 14.7869 11.7034 12.8186 11.7034 10.6939C11.7034 5.9674 15.6291 2.01361 20.8849 1.01925C20.0573 0.861339 19.1957 0.777832 18.3091 0.777832C12.0897 0.777832 7.04785 4.88475 7.04785 9.95099C7.04785 11.9164 7.80701 13.7372 9.09907 15.2301L14.5178 22.1018V22.9954C14.5178 23.5579 15.0777 24.014 15.7683 24.014H18.9866L13.848 16.4006Z" fill="#FBE372"/>
<path d="M13.848 16.4006C12.4971 14.7869 11.7034 12.8186 11.7034 10.6939C11.7034 5.9674 15.6291 2.01361 20.8849 1.01925C20.0573 0.861339 19.1957 0.777832 18.3091 0.777832C12.0897 0.777832 7.04785 4.88475 7.04785 9.95099C7.04785 11.9164 7.80701 13.7372 9.09907 15.2301L14.5178 22.1018V22.9954C14.5178 23.5579 15.0777 24.014 15.7683 24.014H18.9866L13.848 16.4006Z" stroke="#4D464E"/>
<path d="M19.0508 24.0144H20.7447L21.334 15.8683H22.2987C23.679 15.8683 24.802 14.9536 24.802 13.8293V13.7456C24.802 12.6213 23.679 11.7065 22.2987 11.7065C20.9754 11.7065 19.8777 12.5495 19.7998 13.6256L19.7374 14.4888H16.7679L16.7055 13.6256C16.6277 12.5495 15.53 11.7065 14.2066 11.7065C12.8263 11.7065 11.7034 12.6213 11.7034 13.7456V13.8293C11.7034 14.9536 12.8263 15.8683 14.2066 15.8683H15.1713L15.7605 24.0141L15.7683 24.0144H17.4545C17.4545 24.0008 16.8677 15.8683 16.8677 15.8683H19.6376C19.6376 15.8683 19.598 16.4177 19.5393 17.2312C19.3723 19.5474 19.0509 24.0044 19.0508 24.0144ZM21.4904 13.7068C21.5156 13.3587 21.8707 13.086 22.2987 13.086C22.7452 13.086 23.1084 13.3818 23.1084 13.7455V13.8292C23.1084 14.1928 22.7452 14.4887 22.2987 14.4887H21.4339L21.4904 13.7068ZM14.2068 14.4887C13.7602 14.4887 13.397 14.1928 13.397 13.8292V13.7455C13.397 13.3818 13.7602 13.086 14.2068 13.086C14.6349 13.086 14.9898 13.3587 15.015 13.7068L15.0716 14.4887H14.2068Z" fill="#F9DE58"/>
<path d="M19.0508 24.0144H20.7447L21.334 15.8683H22.2987C23.679 15.8683 24.802 14.9536 24.802 13.8293V13.7456C24.802 12.6213 23.679 11.7065 22.2987 11.7065C20.9754 11.7065 19.8777 12.5495 19.7998 13.6256L19.7374 14.4888H16.7679L16.7055 13.6256C16.6277 12.5495 15.53 11.7065 14.2066 11.7065C12.8263 11.7065 11.7034 12.6213 11.7034 13.7456V13.8293C11.7034 14.9536 12.8263 15.8683 14.2066 15.8683H15.1713L15.7605 24.0141L15.7683 24.0144H17.4545C17.4545 24.0008 16.8677 15.8683 16.8677 15.8683H19.6376C19.6376 15.8683 19.598 16.4177 19.5393 17.2312C19.3723 19.5474 19.0509 24.0044 19.0508 24.0144ZM21.4904 13.7068C21.5156 13.3587 21.8707 13.086 22.2987 13.086C22.7452 13.086 23.1084 13.3818 23.1084 13.7455V13.8292C23.1084 14.1928 22.7452 14.4887 22.2987 14.4887H21.4339L21.4904 13.7068ZM14.2068 14.4887C13.7602 14.4887 13.397 14.1928 13.397 13.8292V13.7455C13.397 13.3818 13.7602 13.086 14.2068 13.086C14.6349 13.086 14.9898 13.3587 15.015 13.7068L15.0716 14.4887H14.2068Z" stroke="#4D464E"/>
<path d="M33.1416 5.3259C32.9064 5.3259 32.6723 5.24653 32.5049 5.0912C32.1963 4.80499 32.2311 4.36906 32.5826 4.11781L34.4301 2.7964C34.7816 2.54515 35.3166 2.57338 35.6251 2.85968C35.9336 3.14588 35.8988 3.58181 35.5474 3.83307L33.6999 5.15447C33.5392 5.26943 33.3399 5.3259 33.1416 5.3259Z" fill="#FBE88C"/>
<path d="M33.1416 5.3259C32.9064 5.3259 32.6723 5.24653 32.5049 5.0912C32.1963 4.80499 32.2311 4.36906 32.5826 4.11781L34.4301 2.7964C34.7816 2.54515 35.3166 2.57338 35.6251 2.85968C35.9336 3.14588 35.8988 3.58181 35.5474 3.83307L33.6999 5.15447C33.5392 5.26943 33.3399 5.3259 33.1416 5.3259Z" stroke="#4D464E"/>
<path d="M34.9884 10.9788C34.7901 10.9788 34.5909 10.9225 34.43 10.8074L32.5825 9.48594C32.2311 9.23459 32.1963 8.79875 32.5049 8.51255C32.8135 8.22635 33.3485 8.19784 33.6999 8.44928L35.5474 9.77076C35.8988 10.0221 35.9335 10.4579 35.625 10.7441C35.4577 10.8995 35.2236 10.9788 34.9884 10.9788Z" fill="#FBE88C"/>
<path d="M34.9884 10.9788C34.7901 10.9788 34.5909 10.9225 34.43 10.8074L32.5825 9.48594C32.2311 9.23459 32.1963 8.79875 32.5049 8.51255C32.8135 8.22635 33.3485 8.19784 33.6999 8.44928L35.5474 9.77076C35.8988 10.0221 35.9335 10.4579 35.625 10.7441C35.4577 10.8995 35.2236 10.9788 34.9884 10.9788Z" stroke="#4D464E"/>
<path d="M3.47666 5.32596C3.27829 5.32596 3.07913 5.26958 2.91836 5.15453L1.07081 3.83312C0.719347 3.58186 0.684685 3.14593 0.993136 2.85972C1.30159 2.57352 1.83675 2.54501 2.1881 2.79645L4.03564 4.11786C4.38711 4.36911 4.42177 4.80505 4.11332 5.09125C3.946 5.24659 3.71195 5.32596 3.47666 5.32596Z" fill="#FBE88C"/>
<path d="M3.47666 5.32596C3.27829 5.32596 3.07913 5.26958 2.91836 5.15453L1.07081 3.83312C0.719347 3.58186 0.684685 3.14593 0.993136 2.85972C1.30159 2.57352 1.83675 2.54501 2.1881 2.79645L4.03564 4.11786C4.38711 4.36911 4.42177 4.80505 4.11332 5.09125C3.946 5.24659 3.71195 5.32596 3.47666 5.32596Z" stroke="#4D464E"/>
<path d="M1.62985 10.9788C1.39467 10.9788 1.16063 10.8994 0.993192 10.7441C0.684629 10.4579 0.719403 10.0221 1.07076 9.77071L2.9183 8.44923C3.26977 8.19798 3.80481 8.22621 4.11326 8.51251C4.42183 8.79871 4.38705 9.23454 4.0357 9.48589L2.18816 10.8074C2.0275 10.9223 1.82822 10.9788 1.62985 10.9788Z" fill="#FBE88C"/>
<path d="M1.62985 10.9788C1.39467 10.9788 1.16063 10.8994 0.993192 10.7441C0.684629 10.4579 0.719403 10.0221 1.07076 9.77071L2.9183 8.44923C3.26977 8.19798 3.80481 8.22621 4.11326 8.51251C4.42183 8.79871 4.38705 9.23454 4.0357 9.48589L2.18816 10.8074C2.0275 10.9223 1.82822 10.9788 1.62985 10.9788Z" stroke="#4D464E"/>
</svg>
