<svg width="189" height="331" viewBox="0 0 189 331" fill="none" xmlns="http://www.w3.org/2000/svg">
<path d="M13.13 329.525C17.3243 332.169 48.0754 325.289 48.0754 325.289C49.5604 324.019 44.8463 317.141 43.0002 319.656L35.1314 317.52C35.1314 317.52 8.0112 326.298 13.13 329.525Z" fill="#0D1114"/>
<path d="M99.6341 329.41C95.2041 333.996 70.2527 324.905 70.2527 324.905C68.6696 323.725 67.831 316.129 69.8717 318.528L77.5532 315.924C77.5532 315.924 104.064 324.824 99.6341 329.41Z" fill="#0D1114"/>
<mask id="path-3-inside-1_1_7062" fill="white">
<path d="M64.8628 56.8774C63.245 55.0685 63.768 46.0654 64.0218 45.2377L59.3053 45.4054C57.8422 45.9181 56.3938 46.1977 54.8519 46.2728C53.3102 46.1916 51.863 45.9064 50.4021 45.388L45.2898 44.739C45.5025 45.5662 46.0897 55.083 44.5144 56.8884C44.0986 57.3661 50.6238 58.2783 54.8265 58.2659C59.0684 58.2537 65.286 57.3513 64.8628 56.8774Z"/>
</mask>
<path d="M64.8628 56.8774C63.245 55.0685 63.768 46.0654 64.0218 45.2377L59.3053 45.4054C57.8422 45.9181 56.3938 46.1977 54.8519 46.2728C53.3102 46.1916 51.863 45.9064 50.4021 45.388L45.2898 44.739C45.5025 45.5662 46.0897 55.083 44.5144 56.8884C44.0986 57.3661 50.6238 58.2783 54.8265 58.2659C59.0684 58.2537 65.286 57.3513 64.8628 56.8774Z" fill="#EB7E57"/>
<path d="M64.0218 45.2377L63.9864 44.2383L65.3893 44.1885L64.9778 45.5307L64.0218 45.2377ZM59.3053 45.4054L58.9747 44.4617L59.1181 44.4114L59.2699 44.406L59.3053 45.4054ZM54.8519 46.2728L54.9004 47.2716L54.8497 47.2741L54.7991 47.2714L54.8519 46.2728ZM50.4021 45.388L50.5282 44.3959L50.6351 44.4095L50.7367 44.4456L50.4021 45.388ZM45.2898 44.739L44.3213 44.9882L43.9544 43.5615L45.4159 43.747L45.2898 44.739ZM44.5144 56.8884L43.7601 56.2319L43.7609 56.231L44.5144 56.8884ZM54.8265 58.2659L54.8238 57.2659L54.8238 57.2659L54.8265 58.2659ZM64.1173 57.5441C63.7834 57.1707 63.5614 56.6841 63.4029 56.2077C63.2395 55.7167 63.1176 55.1552 63.0253 54.5672C62.8406 53.3909 62.7608 52.0182 62.7406 50.7051C62.7203 49.3872 62.7596 48.1024 62.8204 47.0914C62.8508 46.586 62.8869 46.143 62.9244 45.7944C62.958 45.4829 63.0012 45.155 63.0657 44.9447L64.9778 45.5307C64.9789 45.5273 64.9502 45.6618 64.9129 46.0082C64.8796 46.3174 64.8459 46.7277 64.8168 47.2111C64.7587 48.1774 64.7209 49.4116 64.7403 50.674C64.7598 51.9413 64.8368 53.2104 65.0011 54.2567C65.0833 54.7801 65.1839 55.2252 65.3006 55.576C65.4222 55.9414 65.5377 56.1319 65.6082 56.2107L64.1173 57.5441ZM64.0571 46.2371L59.3406 46.4047L59.2699 44.406L63.9864 44.2383L64.0571 46.2371ZM59.6359 46.3491C58.0808 46.894 56.5373 47.1919 54.9004 47.2716L54.8033 45.274C56.2503 45.2035 57.6037 44.9421 58.9747 44.4617L59.6359 46.3491ZM54.7991 47.2714C53.1626 47.1853 51.6203 46.8814 50.0676 46.3304L50.7367 44.4456C52.1056 44.9313 53.4579 45.198 54.9046 45.2742L54.7991 47.2714ZM50.276 46.38L45.1637 45.7311L45.4159 43.747L50.5282 44.3959L50.276 46.38ZM46.2583 44.4899C46.3076 44.6818 46.3457 45.0005 46.3775 45.3276C46.4123 45.6864 46.4475 46.1464 46.4782 46.6742C46.5397 47.7298 46.5845 49.0759 46.5726 50.4554C46.5606 51.8299 46.4921 53.2634 46.3203 54.484C46.2344 55.0937 46.1197 55.6735 45.9641 56.177C45.8142 56.6624 45.6003 57.1648 45.2678 57.5458L43.7609 56.231C43.8223 56.1607 43.9347 55.9707 44.0533 55.5868C44.1663 55.2211 44.2625 54.7547 44.3398 54.2055C44.4943 53.108 44.5611 51.7721 44.5726 50.4383C44.5842 49.1096 44.5408 47.8085 44.4816 46.7907C44.452 46.2818 44.4186 45.8484 44.3868 45.5214C44.3709 45.3576 44.3558 45.2252 44.3424 45.1259C44.3274 45.0144 44.3189 44.9787 44.3213 44.9882L46.2583 44.4899ZM45.2686 57.5449C45.379 57.418 45.5004 57.2018 45.4953 56.9165C45.4905 56.6467 45.3747 56.4571 45.3006 56.3632C45.1774 56.2071 45.0506 56.1606 45.0993 56.1841C45.1476 56.2073 45.3 56.2624 45.5986 56.3359C46.1668 56.476 47.0344 56.6288 48.0734 56.7701C50.1467 57.052 52.7809 57.272 54.8238 57.2659L54.8293 59.2659C52.6695 59.2723 49.9397 59.0423 47.8036 58.7518C46.7379 58.6069 45.7895 58.4429 45.1198 58.2779C44.7995 58.1989 44.4775 58.1045 44.2321 57.9864C44.134 57.9392 43.9056 57.8242 43.7304 57.6023C43.6303 57.4754 43.501 57.2536 43.4956 56.9524C43.49 56.6355 43.6237 56.3886 43.7601 56.2319L45.2686 57.5449ZM54.8238 57.2659C56.8886 57.26 59.4566 57.0362 61.4546 56.7546C62.4569 56.6133 63.2845 56.4618 63.8211 56.324C64.1048 56.2511 64.2397 56.1986 64.274 56.1812C64.3159 56.1599 64.1772 56.2156 64.0529 56.3896C63.9766 56.4963 63.8751 56.6923 63.8838 56.9563C63.8928 57.2278 64.0134 57.4277 64.1169 57.5436L65.6087 56.2112C65.7386 56.3567 65.8727 56.5871 65.8827 56.8898C65.8925 57.185 65.7796 57.413 65.68 57.5523C65.5089 57.7916 65.2759 57.9153 65.1801 57.964C64.9388 58.0867 64.6242 58.1826 64.3183 58.2611C63.6755 58.4262 62.7629 58.5899 61.7335 58.735C59.6681 59.0261 57.0064 59.2596 54.8293 59.2659L54.8238 57.2659Z" fill="#D1D1D1" mask="url(#path-3-inside-1_1_7062)"/>
<path d="M74.8753 24.4402C73.3628 23.8861 70.7184 24.9723 69.813 27.4989L69.7988 34.2311C70.5832 34.8798 72.4647 34.1033 73.897 31.8588C75.1863 29.8376 76.2268 30.0233 76.5713 28.4938C77.1606 25.8844 76.2297 24.9351 74.8753 24.4402Z" fill="#EB7E57"/>
<path d="M34.9177 24.3623C36.4325 23.814 39.0723 24.9106 39.967 27.4407L39.9528 34.1729C39.1657 34.8185 37.2874 34.0347 35.8647 31.7846C34.5839 29.7583 33.5426 29.94 33.203 28.4092C32.6263 25.7975 33.5612 24.8518 34.9177 24.3623Z" fill="#EB7E57"/>
<path d="M72.4311 14.9087C71.1402 13.9245 60.8116 6.2836 55.8981 5.58569C55.7025 5.55103 55.485 5.53414 55.2564 5.53507L55.0796 5.54021L55.0559 5.62519L55.0886 5.71024L54.9683 5.62502L54.8323 5.53973L54.635 5.53385C54.405 5.53203 54.1795 5.54806 53.9838 5.58195C49.0659 6.26064 38.7019 13.8611 37.4054 14.8403C32.8959 17.7698 39.095 28.6123 39.095 28.6123C39.4586 31.3251 38.9368 41.2359 40.9566 44.6786C42.8469 47.9044 49.8513 50.9017 54.8398 50.9114C59.1004 50.9198 67.0329 48.0545 68.9384 44.8361C70.9711 41.4013 70.3411 31.3854 70.7162 28.6741C70.7162 28.6741 76.9281 17.8558 72.4311 14.9087Z" fill="#290708"/>
<path d="M72.5128 14.9094C71.6298 14.2385 62.8003 12.7213 55.0741 12.7226C47.3465 12.6911 38.3572 14.1735 37.473 14.8409C32.9636 17.7704 39.4204 28.1089 39.4204 28.1089C39.784 30.8217 41.1104 32.7795 41.6379 33.5278C43.8164 36.6129 66.7853 37.2693 68.5953 34.0096C68.8577 33.5357 69.9809 30.8807 70.356 28.1693C70.356 28.1693 77.0083 17.8564 72.5128 14.9094Z" fill="#F29066"/>
<path d="M67.9621 23.6226C67.2441 23.4388 58.7903 24.0845 57.8917 24.1472C57.289 24.1899 56.8282 21.4988 57.0708 21.4966C60.9606 21.4685 65.2211 21.5084 66.033 21.7527C66.4772 21.8865 68.2515 23.6972 67.9621 23.6226Z" fill="#290708"/>
<path d="M41.6274 23.6153C42.3447 23.4275 50.8021 24.0391 51.702 24.0984C52.303 24.1394 52.7485 21.4459 52.5059 21.4455C48.6147 21.4324 44.3555 21.4899 43.5457 21.7378C43.1025 21.8727 41.3377 23.6915 41.6274 23.6153Z" fill="#290708"/>
<path d="M55.0318 32.1763C53.9768 32.1701 52.4324 33.4135 52.109 33.8763C52.3842 34.7735 54.3214 35.7769 55.0242 35.7865C55.3748 35.7789 57.6669 34.7838 57.9459 33.8877C57.6244 33.4236 55.7331 32.1736 55.0318 32.1763Z" fill="#EB7E57"/>
<path d="M60.4432 38.6341C59.4211 40.0965 57.1775 41.891 54.8562 41.8865C52.3502 41.8816 48.1839 37.9891 48.0004 37.4128C51.4659 38.8963 56.01 39.5373 60.4432 38.6341Z" fill="#FFFEE9"/>
<path d="M42.9879 27.9127C43.727 28.5188 44.7451 28.9445 45.8575 29.1907C46.9245 29.4286 48.0826 29.4981 49.1613 29.4056C49.8674 29.3494 50.5438 29.2191 51.1359 29.0214C51.2409 28.9832 51.2747 27.7945 51.2758 27.2543C51.1042 26.9948 50.6264 26.4208 50.1809 26.1553C49.3336 25.634 48.2374 25.1629 47.1668 25.1526C46.8068 25.1491 46.4514 25.1813 46.1037 25.2437L46.1006 25.2465C44.8699 25.458 43.7761 26.044 43.1328 26.775C43.1328 26.775 42.6114 27.6048 42.9879 27.9127Z" fill="#290708"/>
<path d="M42.987 28.2237C43.726 28.8299 44.7441 29.2555 45.8565 29.5018C46.9235 29.7397 48.0817 29.8091 49.1603 29.7166C49.8664 29.6604 50.5428 29.5301 51.1349 29.3324C51.2399 29.2956 51.2744 27.7943 51.2755 27.2541C51.0021 27.015 50.6255 26.7318 50.1799 26.4663C49.3327 25.945 48.2364 25.474 47.1658 25.4636C46.8058 25.4602 46.4504 25.4924 46.1028 25.5548L46.0996 25.5575C44.8689 25.769 43.7751 26.3551 43.1318 27.086C43.1318 27.086 42.6104 27.9159 42.987 28.2237Z" fill="white"/>
<path d="M44.8558 27.6058C44.8542 28.3654 45.2425 29.0462 45.8583 29.5013C46.9253 29.7392 48.0834 29.8086 49.1621 29.7161C49.9644 29.2831 50.5029 28.5067 50.5048 27.6168C50.5057 27.2014 50.3891 26.8104 50.1817 26.4658C49.3344 25.9445 48.2382 25.4735 47.1675 25.4631C46.8075 25.4597 46.4522 25.4919 46.1045 25.5543L46.1014 25.557C45.3507 25.9998 44.8576 26.7502 44.8558 27.6058Z" fill="#491E17"/>
<path d="M50.5006 27.4827C49.4903 27.0502 48.4796 26.8288 47.517 26.827C46.5685 26.8251 45.6664 27.0359 44.8594 27.4703C44.8626 27.436 44.8642 27.4018 44.869 27.3675C44.904 27.1139 44.9702 26.8919 45.052 26.6974C45.2643 26.2303 45.6329 25.8333 46.1015 25.5573L46.1047 25.5546C46.4398 25.4949 46.7811 25.4626 47.127 25.4633C47.1411 25.4634 47.1536 25.4634 47.1677 25.4634C48.2383 25.4737 49.3346 25.9448 50.1818 26.4661C50.1912 26.4812 50.2005 26.4976 50.2099 26.5141C50.3206 26.7282 50.4124 26.9752 50.4636 27.1879C50.4822 27.2839 50.4945 27.3826 50.5006 27.4827Z" fill="#512B24"/>
<path d="M66.7853 28.2699C66.0436 28.8732 65.0238 29.2948 63.9103 29.5367C62.8423 29.7705 61.6839 29.8354 60.6057 29.7387C59.8998 29.6797 59.2239 29.5468 58.6327 29.3468C58.5279 29.3096 58.4998 27.8082 58.5009 27.2679C58.7738 27.0299 59.1531 26.7482 59.5998 26.4844C60.4493 25.9664 61.5475 25.4997 62.6182 25.4935C62.9782 25.4915 63.3334 25.5251 63.6808 25.5888L63.6839 25.5916C64.9137 25.8079 66.005 26.3982 66.6452 27.1316C66.6452 27.1316 67.1632 27.9636 66.7853 28.2699Z" fill="white"/>
<path d="M64.9218 27.6451C64.9202 28.4047 64.529 29.084 63.9114 29.5367C62.8434 29.7704 61.6849 29.8354 60.6067 29.7386C59.8046 29.3024 59.271 28.5239 59.2728 27.6341C59.2737 27.2186 59.3919 26.8281 59.6008 26.4844C60.4503 25.9664 61.5485 25.4996 62.6192 25.4935C62.9792 25.4914 63.3345 25.525 63.6818 25.5888L63.6849 25.5915C64.4337 26.0372 64.9237 26.7896 64.9218 27.6451Z" fill="#491E17"/>
<path d="M59.2776 27.5005C59.2841 27.4004 59.2968 27.3017 59.3158 27.2058C59.3679 26.9934 59.4623 26.7453 59.5723 26.5317C59.5818 26.5152 59.5912 26.5002 59.6006 26.4851C60.4501 25.9671 61.5483 25.5003 62.6189 25.4942C62.633 25.4942 62.6456 25.4943 62.6596 25.4943C63.0056 25.495 63.3467 25.5285 63.6816 25.5895L63.6847 25.5923C64.1536 25.8715 64.5207 26.2712 64.7294 26.7406C64.812 26.934 64.8757 27.1549 64.9096 27.4059C64.9142 27.4402 64.9157 27.4759 64.9187 27.5101C64.1136 27.0725 63.2124 26.8583 62.2639 26.8564C61.3013 26.8545 60.2881 27.0719 59.2776 27.5005Z" fill="#512B24"/>
<path d="M15.4182 114.452C15.3009 113.257 15.1387 111.564 14.9548 109.531C14.5809 105.397 14.1172 99.8565 13.7579 94.226C13.3985 88.5932 13.1442 82.8802 13.1875 78.3981C13.2092 76.1553 13.3054 74.2353 13.4968 72.7931C13.5927 72.0711 13.7105 71.4842 13.8487 71.0427C13.9929 70.5825 14.1373 70.3542 14.2374 70.2669C14.3654 70.1555 14.689 69.9948 15.2815 69.8138C15.8514 69.6397 16.6045 69.4653 17.5247 69.2924C19.3634 68.9471 21.8288 68.6156 24.7452 68.3037L25.3305 68.2411L25.1741 67.6737L24.7702 66.2074C24.9574 66.1649 25.1963 66.1237 25.4877 66.0845C26.0908 66.0037 26.8909 65.9357 27.8676 65.881C29.8195 65.7717 32.4462 65.7169 35.5497 65.7117C41.7548 65.7012 49.8421 65.8889 58.1984 66.23L58.2173 66.2308L58.2361 66.2301C66.2237 65.9532 73.8482 65.8219 79.6747 65.8706C82.5889 65.8949 85.0472 65.9643 86.874 66.0822C87.7882 66.1412 88.5364 66.2119 89.1012 66.2938C89.6935 66.3798 90.0099 66.4691 90.1214 66.5303L90.1221 66.5307C90.6569 66.8235 91.1608 67.4306 91.6136 68.3544L91.7328 68.5976L92.0016 68.6306C94.3079 68.9134 96.2403 69.2103 97.6829 69.517C98.4049 69.6706 98.994 69.8244 99.4415 69.9768C99.9067 70.1353 100.16 70.2732 100.265 70.3672L100.268 70.3706C100.377 70.4662 100.534 70.7096 100.706 71.1812C100.871 71.6343 101.027 72.2348 101.173 72.9708C101.464 74.441 101.704 76.3981 101.899 78.6828C102.291 83.249 102.502 89.0719 102.609 94.8132C102.716 100.552 102.719 106.201 102.696 110.416C102.684 112.523 102.666 114.271 102.65 115.492C102.65 115.512 102.65 115.532 102.649 115.552C102.615 115.491 102.58 115.429 102.545 115.365C101.934 114.279 101.114 112.824 100.28 111.353C99.4464 109.883 98.5975 108.395 97.928 107.243C97.5934 106.667 97.3024 106.173 97.0801 105.806C97.019 105.705 96.9626 105.613 96.9115 105.531C96.8698 105.464 96.8317 105.403 96.7975 105.35C96.7509 105.278 96.7008 105.202 96.6541 105.14L96.6372 105.103C96.6215 105.068 96.6014 105.023 96.5773 104.969C96.5589 104.929 96.5382 104.883 96.5153 104.831C96.4091 104.594 96.2548 104.247 96.0628 103.809C95.6789 102.932 95.1445 101.692 94.5431 100.238C93.3393 97.3265 91.8711 93.5664 90.8025 90.1498L90.2617 88.4209L89.8391 90.1826C89.769 90.4747 89.6396 90.8676 89.4599 91.4134C89.3667 91.6966 89.2599 92.0209 89.1408 92.3937C88.7992 93.4629 88.3752 94.8775 87.9332 96.727C87.0492 100.426 86.0964 105.852 85.5819 113.728M15.4182 114.452L86.0809 113.76M15.4182 114.452L18.4748 107.274L18.485 107.241L18.4992 107.195C18.5097 107.16 18.5229 107.117 18.5386 107.066C18.5863 106.908 18.658 106.669 18.7532 106.343C18.9437 105.692 19.2286 104.697 19.6051 103.32C20.3583 100.567 21.4781 96.2916 22.9429 90.2077L23.9154 90.2089C24.1918 91.3705 24.4966 92.5639 24.8085 93.785C26.4854 100.35 28.3668 107.717 27.1443 115.25C26.6481 118.309 21.5755 165.711 18.1089 214.298C16.3759 238.588 15.0454 263.159 14.8885 282.621C14.8101 292.354 15.0253 300.797 15.6283 307.283C15.9298 310.527 16.3274 313.27 16.8301 315.435C17.3297 317.587 17.921 319.111 18.5834 319.995M15.4182 114.452L26.6507 115.17C25.6502 121.337 6.35558 304.862 18.2134 320.335M85.5819 113.728L86.0809 113.76M85.5819 113.728C85.582 113.727 85.582 113.727 85.582 113.727L86.0809 113.76M85.5819 113.728C85.5542 114.136 85.492 114.529 85.425 114.951C85.3823 115.22 85.3377 115.501 85.2989 115.806C85.2043 116.55 85.1608 117.358 85.362 118.188L85.362 118.188C85.362 118.189 85.3623 118.19 85.3627 118.192C85.3632 118.194 85.3639 118.198 85.3648 118.203C85.3669 118.214 85.3694 118.23 85.3724 118.249C85.3758 118.272 85.3795 118.298 85.3835 118.328C85.3868 118.353 85.3902 118.38 85.3939 118.41C85.4103 118.544 85.4299 118.726 85.4527 118.956C85.4981 119.415 85.5551 120.054 85.6227 120.863C85.7579 122.481 85.935 124.771 86.1465 127.636C86.5694 133.365 87.1295 141.392 87.7663 150.943C89.04 170.046 90.6205 195.241 92.0242 220.339C93.4279 245.437 94.6546 270.434 95.2209 289.142C95.5041 298.497 95.6219 306.272 95.5148 311.698C95.4611 314.413 95.3514 316.526 95.1804 317.95C95.0943 318.667 94.9958 319.182 94.8911 319.506C94.862 319.596 94.8357 319.661 94.8143 319.706M86.0809 113.76C86.0521 114.186 85.9834 114.622 85.9135 115.065C85.7598 116.039 85.6005 117.048 85.8479 118.071C86.554 120.973 99.9073 320.428 94.9553 320.212C88.8493 326.097 28.3838 329.581 18.2134 320.335M94.8143 319.706L94.9771 319.713C94.837 319.707 94.7686 319.785 94.7678 319.786C94.7677 319.786 94.7692 319.784 94.7722 319.78C94.7819 319.767 94.7963 319.743 94.8143 319.706ZM94.8143 319.706L94.7628 319.703L94.6083 319.852C94.288 320.161 93.7552 320.491 92.9962 320.828C92.244 321.162 91.3004 321.489 90.1854 321.805C87.9558 322.438 85.0759 323.017 81.744 323.52C75.0822 324.526 66.6548 325.223 58.0954 325.448C49.5351 325.673 40.859 325.425 33.6972 324.548C30.1158 324.109 26.925 323.514 24.322 322.746C21.7315 321.982 19.774 321.062 18.5834 319.995M18.5834 319.995C18.5924 320.007 18.6013 320.019 18.6103 320.031L18.2134 320.335M18.5834 319.995C18.5722 319.985 18.5609 319.975 18.5498 319.965L18.2134 320.335M90.3623 66.0921C88.7473 65.2046 74.2029 65.1762 58.2189 65.7304C41.4971 65.0478 25.8396 64.9788 24.1622 65.8832L90.3623 66.0921ZM90.3623 66.0921C91.0283 66.4568 91.5903 67.1708 92.0626 68.1343L90.3623 66.0921Z" fill="#E0E0E0" stroke="#AC9E9E"/>
<path d="M87.7107 110.244C87.2734 110.487 87.2735 110.487 87.2736 110.487L87.274 110.488L87.2757 110.491L87.2819 110.502L87.3061 110.545C87.3275 110.583 87.3591 110.64 87.4004 110.713C87.4831 110.859 87.605 111.072 87.7621 111.343C88.0764 111.884 88.532 112.656 89.0984 113.577C90.2307 115.418 91.8086 117.863 93.5875 120.267C95.3632 122.668 97.3541 125.049 99.3142 126.751C100.294 127.602 101.283 128.298 102.249 128.737C103.214 129.177 104.19 129.376 105.122 129.178L105.16 129.17L105.198 129.156C106.198 128.771 107.015 127.663 107.689 126.204C108.376 124.714 108.971 122.731 109.454 120.404C110.421 115.746 110.957 109.632 110.871 103.138C110.786 96.6424 110.077 89.7461 108.544 83.5254C107.012 77.3132 104.646 71.7291 101.215 67.9016C100.714 67.3424 99.746 66.7725 98.5312 66.2027C97.2936 65.6223 95.7252 65.0092 93.9526 64.3854C90.406 63.1374 86.0052 61.8339 81.7188 60.6516C77.4306 59.4687 73.2491 58.4049 70.138 57.6362C67.7213 57.0392 65.9714 56.6252 65.2992 56.4674C65.2686 56.2588 65.2195 55.9767 65.1481 55.6608C65.0037 55.0223 64.7562 54.1911 64.3528 53.5592L64.0994 53.1619L63.6878 53.3916C61.5655 54.5756 57.9138 55.0569 54.2908 54.9988C52.4935 54.97 50.73 54.8089 49.2052 54.5465C47.6713 54.2825 46.4129 53.9216 45.6053 53.5097L45.1406 53.2727L44.9234 53.747C44.5094 54.6513 44.2246 55.5673 44.0663 56.4931L44.0392 56.5006C43.82 56.5614 43.4992 56.6507 43.0902 56.7655C42.2722 56.995 41.1017 57.3262 39.6864 57.7345C36.8562 58.5509 33.0458 59.6759 29.1185 60.9121C25.1926 62.1478 21.1434 63.4966 17.838 64.7607C16.1858 65.3925 14.7123 66.0059 13.5299 66.5759C12.363 67.1384 11.4294 67.6817 10.8998 68.1844L11.244 68.547L10.8998 68.1844C7.98351 70.9524 5.79791 75.6738 4.23043 81.2153C2.65814 86.7737 1.68838 93.2285 1.24985 99.5357C0.811294 105.843 0.902803 112.021 1.46102 117.029C1.74007 119.532 2.1369 121.754 2.64686 123.558C3.15262 125.347 3.78499 126.783 4.56884 127.662L4.56888 127.662C6.33165 129.64 8.88693 130.31 10.9319 130.502C11.9622 130.599 12.8847 130.578 13.5495 130.532C13.8824 130.509 14.152 130.48 14.3399 130.456C14.4338 130.445 14.5074 130.434 14.5583 130.426C14.5837 130.423 14.6035 130.42 14.6174 130.417L14.6336 130.415L14.6384 130.414L14.6399 130.414L14.6404 130.414C14.6406 130.414 14.6408 130.413 14.5563 129.921M87.7107 110.244L87.2734 110.487L87.2074 110.368L87.2108 110.232L87.7107 110.244ZM87.7107 110.244C87.2108 110.232 87.2108 110.232 87.2108 110.231L87.2108 110.231L87.2109 110.228L87.2112 110.216L87.2124 110.169L87.2171 109.986L87.2353 109.282C87.2514 108.673 87.275 107.792 87.3052 106.71C87.3657 104.545 87.4529 101.571 87.5595 98.338C87.6455 95.7262 87.7443 92.9425 87.852 90.277C87.0026 94.1232 85.944 98.396 85.0482 101.931C84.7313 103.182 83.5018 104.141 81.8627 104.892C80.1916 105.657 77.9458 106.274 75.3401 106.758C70.123 107.728 63.3619 108.186 56.6244 108.193C49.8857 108.2 43.1442 107.757 37.9634 106.914C35.3759 106.494 33.1564 105.97 31.5155 105.344C30.6958 105.031 30.0002 104.685 29.4713 104.3C28.9474 103.919 28.54 103.465 28.3829 102.922M28.3829 102.922C28.3829 102.922 28.3829 102.922 28.3829 102.922L28.8632 102.783M28.3829 102.922L28.8632 102.783M28.3829 102.922C27.2159 98.8872 26.0518 94.7295 25.1779 91.1204M28.8632 102.783C27.2826 97.3184 25.7118 91.6428 24.8594 87.4135C24.9388 88.5862 25.0471 89.8303 25.1779 91.1204M28.8632 102.783L4.94212 127.33C8.2214 131.008 14.5563 129.921 14.5563 129.921M25.1779 91.1204C25.5764 95.0523 26.1834 99.4102 26.8153 103.467C27.4304 107.416 28.0659 111.062 28.5477 113.72C28.7886 115.049 28.991 116.131 29.1332 116.881C29.2043 117.256 29.2603 117.547 29.2985 117.745L29.3421 117.97L29.3533 118.027L29.3561 118.042L29.3568 118.045L29.357 118.046C29.357 118.046 29.3571 118.047 28.8664 118.143M25.1779 91.1204C25.096 90.7824 25.0167 90.4491 24.9402 90.1213C24.7243 89.1963 24.53 88.3121 24.363 87.4816C25.1675 99.3007 28.8664 118.143 28.8664 118.143M28.8664 118.143L29.3571 118.047L29.4145 118.339L29.1841 118.529L14.874 130.307L14.7715 130.391L14.6408 130.413L14.5563 129.921M28.8664 118.143L14.5563 129.921" fill="white" stroke="#AC9E9E"/>
<mask id="path-22-inside-2_1_7062" fill="white">
<path d="M4.84317 126.239C12.2142 135.68 45.5222 149.165 58.1486 159.437L64.2521 150.007C56.1417 143.006 36.403 124.225 28.7597 118.771L3.42016 123.439"/>
</mask>
<path d="M4.84317 126.239C12.2142 135.68 45.5222 149.165 58.1486 159.437L64.2521 150.007C56.1417 143.006 36.403 124.225 28.7597 118.771L3.42016 123.439" fill="white"/>
<path d="M58.1486 159.437L59.0741 159.916L58.4251 160.919L57.4391 160.116L58.1486 159.437ZM64.2521 150.007L64.9853 149.348L65.5809 149.863L65.1776 150.486L64.2521 150.007ZM28.7597 118.771L28.517 117.856L29.0138 117.764L29.4152 118.051L28.7597 118.771ZM5.71293 125.723C7.43846 127.933 10.7628 130.463 15.1103 133.21C19.4306 135.94 24.6487 138.815 30.0623 141.733C40.8241 147.534 52.4419 153.539 58.8581 158.759L57.4391 160.116C51.2289 155.064 39.8795 149.191 28.988 143.32C23.5749 140.403 18.2948 137.495 13.9021 134.719C9.5367 131.961 5.93342 129.265 3.97341 126.755L5.71293 125.723ZM57.2231 158.959L63.3266 149.529L65.1776 150.486L59.0741 159.916L57.2231 158.959ZM63.519 150.666C59.4515 147.155 52.4654 140.688 45.579 134.451C38.6577 128.183 31.8636 122.173 28.1043 119.491L29.4152 118.051C33.2991 120.822 40.1959 126.93 47.0825 133.166C54.0038 139.434 60.9423 145.858 64.9853 149.348L63.519 150.666ZM29.0024 119.686L3.66288 124.354L3.17743 122.524L28.517 117.856L29.0024 119.686Z" fill="#AC9E9E" mask="url(#path-22-inside-2_1_7062)"/>
<path d="M153.763 84.8577C153.763 84.8577 159.521 83.0155 160.056 81.8978C161.072 79.7725 162.559 76.026 164.815 74.1911C167.701 71.8499 169.488 71.0664 174.183 69.1958C178.484 67.4805 179.479 70.0446 178.574 70.3411C183.071 68.4091 182.984 71.2745 182.225 71.6107C184.365 70.9397 185.537 73.1213 183.259 74.7262C183.14 74.8104 186.416 75.1911 183.627 77.7599C183.031 78.3093 171.729 87.5277 170.199 88.4598C167.336 90.2121 157.287 94.6275 157.287 94.6275C157.287 94.6275 153.763 85.886 153.764 87.4286" fill="#F29066"/>
<path d="M158.322 94.5073C155.399 96.0452 151.459 99.139 147.035 102.819C145.408 104.172 143.713 105.608 141.972 107.082C138.717 109.838 135.302 112.729 131.877 115.471C126.622 119.679 121.382 123.503 116.723 125.908C114.395 127.11 112.233 127.947 110.302 128.306C108.528 128.636 106.978 128.559 105.675 128.02L109.096 109.27C110.257 107.607 112.838 105.443 116.329 103.062C119.859 100.654 124.258 98.0646 128.899 95.5999C137.991 90.7711 147.955 86.4513 154.095 84.8997L158.322 94.5073Z" fill="white" stroke="#AC9E9E"/>
<path d="M44.8255 57.1261C48.7292 58.6447 54.9525 58.7418 54.9525 58.7418C57.7825 66.1692 56.0865 82.1052 54.8919 97.096C53.0408 81.9854 55.1017 68.1521 53.1425 59.7598C49.806 59.4461 46.2867 58.2491 44.8255 57.1261Z" fill="#D1D1D1"/>
<path d="M55.0933 1.3654C69.8749 1.70279 76.0169 15.8442 76.0169 15.8442C88.2759 27.7859 74.4141 28.4279 67.5325 22.1142C61.4866 16.5658 47.0535 17.2396 40.3075 23.7694C33.1836 30.6659 24.3772 26.6094 34.9404 15.5624C34.9404 15.5624 40.019 1.02195 55.0933 1.3654Z" fill="#EA8C6C"/>
<path d="M75.6039 14.876L75.6744 14.9447C78.6933 17.8858 80.3038 20.553 81.0994 23.0629C81.8954 25.574 81.889 27.9685 81.61 30.3923C81.4789 31.5305 81.2888 32.6673 81.0947 33.8285C81.0816 33.9069 81.0685 33.9854 81.0553 34.0639C80.8486 35.3024 80.6418 36.5678 80.5092 37.8633C80.2432 40.4604 80.2728 43.1951 81.1892 46.1682L81.1892 46.1682C81.2624 46.4054 81.374 46.7436 81.5121 47.1619C82.0279 48.7249 82.9132 51.4071 83.5409 54.1235C83.9384 55.8438 84.2245 57.5468 84.2499 58.9598C84.2625 59.666 84.2095 60.2805 84.0825 60.7796C83.9879 61.1517 83.857 61.4413 83.6965 61.657L74.6991 59.1231C75.594 58.6088 76.1898 57.9343 76.5355 57.093C77.0143 55.928 76.9758 54.5247 76.7595 52.9836C76.6297 52.0583 76.4258 51.0296 76.2083 49.9322C76.0654 49.2112 75.9166 48.4606 75.7791 47.6901C75.4274 45.7203 75.1333 43.548 75.1383 41.1817C75.1519 34.7132 72.5894 25.6445 65.585 19.2167C59.3181 13.4655 49.4291 13.8733 42.5194 20.5615L42.5194 20.5615C38.9013 24.0641 36.8635 27.5578 35.7588 31.1081C34.6566 34.6504 34.4922 38.222 34.5813 41.8603L34.5813 41.8604C34.6518 44.7178 34.1597 47.5775 33.7087 50.1986C33.5308 51.2327 33.3593 52.2297 33.2312 53.1748C33.0094 54.8113 32.9165 56.3191 33.2145 57.5262C33.3658 58.1391 33.6218 58.6924 34.027 59.1475C34.2801 59.4319 34.583 59.6683 34.9371 59.8556C34.777 59.9639 34.5763 60.0852 34.3387 60.2166C33.6288 60.6091 32.6571 61.0544 31.6392 61.4694C30.6227 61.8838 29.5743 62.2621 28.7148 62.5228C28.2844 62.6533 27.909 62.752 27.6129 62.8113C27.4647 62.841 27.3431 62.8595 27.2485 62.868C27.2407 62.8687 27.2332 62.8693 27.2259 62.8699C25.583 61.1479 24.8895 59.3745 24.749 57.634C24.6034 55.8311 25.0486 54.0262 25.7199 52.3066C26.2442 50.9638 26.8922 49.7052 27.4871 48.5496C27.6568 48.22 27.8222 47.8987 27.9792 47.5863C28.3282 46.8916 28.6383 46.2345 28.8448 45.6424C29.0481 45.0597 29.1737 44.4795 29.0938 43.9576C29.0938 43.9576 29.0938 43.9575 29.0938 43.9574L28.5995 44.0332C28.4617 43.1311 28.3138 42.2375 28.1669 41.3499C26.7102 32.5497 25.3514 24.3409 34.9468 14.306L75.6039 14.876ZM75.6039 14.876L75.5648 14.786L75.5648 14.7859L75.5647 14.7858L75.5643 14.7848L75.5616 14.7787L75.5495 14.7516C75.5384 14.727 75.5213 14.6895 75.498 14.6399C75.4516 14.5408 75.3807 14.3935 75.2848 14.2048C75.093 13.8274 74.8013 13.2848 74.4051 12.6311C73.6121 11.323 72.4032 9.57505 70.7414 7.81793C67.4183 4.30438 62.3059 0.773726 55.0883 0.608983C47.7371 0.4415 42.8308 3.89538 39.7461 7.40864C38.2015 9.1679 37.1169 10.9395 36.4187 12.2715C36.0699 12.937 35.8184 13.4912 35.6548 13.8771C35.573 14.07 35.5132 14.2207 35.4743 14.3221C35.4548 14.3727 35.4405 14.4111 35.4313 14.4362L35.4213 14.4638L35.4192 14.4699L35.4188 14.4708L35.4188 14.471L35.4187 14.4711L75.6039 14.876ZM35.3174 59.5377C35.3173 59.5377 35.3159 59.5397 35.3138 59.5434C35.3166 59.5395 35.3176 59.5377 35.3174 59.5377Z" fill="white" stroke="#AC9E9E"/>
<path d="M75.4549 11.2473C76.659 11.0494 76.3647 8.84136 74.0923 8.64222C61.2382 7.23365 50.152 6.99672 35.8942 8.39619C33.7782 9.03785 33.451 10.5372 34.7911 11.1678C32.883 11.9497 33.6893 14.0984 34.9457 14.3066C49.4793 13.4986 61.4891 13.7209 76.0223 14.587C76.9877 14.7589 78.2117 11.7764 75.4549 11.2473Z" fill="#070707"/>
<path d="M77.8152 145.463C77.7347 183.631 87.7998 302.809 85.6725 307.288C80.7608 317.631 21.9844 319.651 22.3479 310.796C22.4466 306.419 30.5118 145.302 30.5245 145.243C31.8616 139.134 77.8303 138.299 77.8152 145.463Z" fill="white"/>
<rect width="8.5558" height="21.2883" rx="4.2779" transform="matrix(0.991378 0.131034 -0.121684 0.992569 103.749 106.845)" fill="white"/>
<rect width="25.9949" height="5.33839" rx="1" transform="matrix(0.967651 -0.252291 0.235055 0.971982 3.12158 121.969)" fill="white"/>
<rect width="4.97366" height="7.61741" rx="2.48683" transform="matrix(0.719565 -0.694425 0.666955 0.745098 3.3396 124.665)" fill="white"/>
<path d="M175.2 98.4942L163.519 98.9916C162.914 99.0304 162.308 98.9348 161.741 98.7112C161.175 98.4876 160.661 98.1411 160.234 97.6949C159.807 97.2488 159.477 96.7132 159.266 96.1242C159.055 95.5351 158.968 94.9061 159.01 94.2794L160.488 60.8227C160.521 60.2506 160.755 59.7109 161.146 59.3057C161.537 58.9005 162.058 58.6578 162.61 58.6236L176.981 58.0084C177.586 57.9696 178.192 58.0652 178.758 58.2888C179.325 58.5124 179.839 58.8589 180.265 59.3051C180.692 59.7512 181.022 60.2868 181.233 60.8758C181.444 61.4649 181.531 62.0938 181.489 62.7206L180.138 93.3762C180.057 94.7062 179.511 95.9601 178.602 96.9024C177.693 97.8447 176.483 98.4107 175.2 98.4942Z" fill="#471C72"/>
<path opacity="0.2" d="M175.68 97.5065L165.816 97.9918C165.305 98.0297 164.793 97.9364 164.315 97.7182C163.836 97.5001 163.402 97.162 163.042 96.7268C162.682 96.2915 162.403 95.769 162.225 95.1943C162.047 94.6196 161.973 94.006 162.009 93.3945L163.257 60.7538C163.284 60.1957 163.482 59.6692 163.812 59.2739C164.142 58.8785 164.582 58.6418 165.048 58.6084L177.184 58.0082C177.695 57.9703 178.207 58.0636 178.685 58.2818C179.164 58.4999 179.598 58.838 179.958 59.2732C180.318 59.7085 180.597 60.231 180.775 60.8057C180.953 61.3804 181.027 61.994 180.991 62.6055L179.85 92.5134C179.782 93.8109 179.321 95.0342 178.553 95.9535C177.785 96.8729 176.764 97.4251 175.68 97.5065Z" fill="#04ACA7"/>
<path d="M176.2 98.4821L164.518 98.9924C163.914 99.0291 163.308 98.9321 162.743 98.7077C162.177 98.4834 161.664 98.137 161.238 97.6914C160.811 97.2458 160.481 96.7113 160.269 96.1234C160.058 95.5355 159.969 94.9076 160.01 94.2815L161.487 60.821C161.518 60.2495 161.751 59.7099 162.143 59.3064C162.535 58.9028 163.057 58.6639 163.609 58.6357L177.981 58.0076C178.586 57.9709 179.191 58.0679 179.757 58.2922C180.322 58.5166 180.835 58.863 181.262 59.3086C181.688 59.7542 182.018 60.2886 182.23 60.8766C182.442 61.4645 182.53 62.0924 182.49 62.7185L181.138 93.3655C181.063 94.6971 180.519 95.9538 179.609 96.8969C178.698 97.8401 177.486 98.4042 176.2 98.4821Z" fill="#0582BA"/>
<path opacity="0.5" d="M174.73 98.5083L163.54 98.9928C162.935 99.029 162.329 98.929 161.763 98.6995C161.197 98.47 160.683 98.1161 160.255 97.661C159.827 97.2059 159.494 96.66 159.279 96.059C159.064 95.4581 158.972 94.8157 159.008 94.1741L160.453 60.915C160.49 60.3148 160.733 59.7498 161.136 59.3257C161.538 58.9015 162.072 58.6473 162.639 58.6104L176.459 58.0081C177.065 57.9697 177.671 58.0682 178.238 58.297C178.806 58.5258 179.32 58.8797 179.749 59.3352C180.177 59.7907 180.51 60.3375 180.724 60.9394C180.938 61.5414 181.029 62.1846 180.992 62.8267L179.67 93.2837C179.591 94.6441 179.045 95.9266 178.134 96.8892C177.224 97.8517 176.013 98.4277 174.73 98.5083Z" fill="#0581BB"/>
<path opacity="0.3" d="M171.388 70.4048L166.175 70.612C165.883 70.6283 165.591 70.5853 165.318 70.4861C165.046 70.3868 164.798 70.2334 164.593 70.0362C164.388 69.8391 164.229 69.6026 164.128 69.3426C164.026 69.0826 163.984 68.8051 164.005 68.5285L164.249 63.46C164.282 62.9146 164.526 62.3999 164.933 62.0136C165.34 61.6273 165.883 61.3962 166.457 61.3643L171.837 61.1572C172.127 61.1409 172.418 61.1835 172.689 61.2822C172.96 61.3808 173.206 61.5333 173.41 61.7293C173.614 61.9254 173.772 62.1605 173.873 62.4191C173.973 62.6776 174.015 62.9535 173.994 63.2285L173.763 68.1021C173.731 68.6945 173.471 69.2553 173.034 69.6792C172.597 70.1032 172.011 70.3612 171.388 70.4048Z" fill="white"/>
<path d="M169.451 70.4081L165.714 70.6126C165.485 70.6276 165.255 70.5811 165.041 70.4763C164.826 70.3714 164.632 70.2106 164.47 70.0042C164.309 69.7979 164.184 69.5507 164.103 69.279C164.023 69.0073 163.988 68.7172 164.003 68.4276L164.175 63.7128C164.21 63.1006 164.419 62.5248 164.763 62.0907C165.107 61.6567 165.563 61.3934 166.048 61.3489L169.785 61.1573C170.014 61.1404 170.243 61.1851 170.458 61.2885C170.672 61.3918 170.867 61.5515 171.028 61.7569C171.19 61.9622 171.316 62.2086 171.396 62.4797C171.477 62.7508 171.511 63.0405 171.496 63.3294L171.324 68.0443C171.289 68.6565 171.08 69.2323 170.736 69.6664C170.392 70.1004 169.936 70.3637 169.451 70.4081Z" fill="#263238"/>
<path opacity="0.1" d="M169.451 70.4081L165.714 70.6126C165.485 70.6276 165.255 70.5811 165.041 70.4763C164.826 70.3714 164.632 70.2106 164.47 70.0042C164.309 69.7979 164.184 69.5507 164.103 69.279C164.023 69.0073 163.988 68.7172 164.003 68.4276L164.175 63.7128C164.21 63.1006 164.419 62.5248 164.763 62.0907C165.107 61.6567 165.563 61.3934 166.048 61.3489L169.785 61.1573C170.014 61.1404 170.243 61.1851 170.458 61.2885C170.672 61.3918 170.867 61.5515 171.028 61.7569C171.19 61.9622 171.316 62.2086 171.396 62.4797C171.477 62.7508 171.511 63.0405 171.496 63.3294L171.324 68.0443C171.289 68.6565 171.08 69.2323 170.736 69.6664C170.392 70.1004 169.936 70.3637 169.451 70.4081Z" fill="white"/>
<path d="M173.998 78.4212C173.983 78.8537 173.84 79.2636 173.597 79.5697C173.354 79.8757 173.028 80.0557 172.685 80.074C172.526 80.0875 172.367 80.0581 172.219 79.9876C172.07 79.9171 171.935 79.8072 171.823 79.6654C171.711 79.5236 171.624 79.3531 171.569 79.1656C171.514 78.978 171.491 78.7777 171.503 78.5782C171.52 78.147 171.664 77.7392 171.907 77.4339C172.15 77.1286 172.473 76.9474 172.816 76.9254C172.974 76.9146 173.132 76.9459 173.28 77.0174C173.428 77.0888 173.562 77.1988 173.673 77.34C173.785 77.4813 173.871 77.6506 173.927 77.8369C173.983 78.0233 174.007 78.2224 173.998 78.4212Z" fill="white"/>
<path d="M141.808 15.4198L123.051 6L118.428 18.6708L137.186 28.0906L141.808 15.4198Z" fill="#777676"/>
<path d="M139.432 18.8472L122.882 11.1831L123.099 10.5098L139.649 18.1738L139.432 18.8472Z" fill="white"/>
<path d="M136.168 19.9665L122.142 13.4717L122.359 12.7983L136.384 19.2932L136.168 19.9665Z" fill="white"/>
<path d="M131.549 20.0808L121.636 15.4902L121.852 14.8169L131.766 19.4074L131.549 20.0808Z" fill="white"/>
<path fill-rule="evenodd" clip-rule="evenodd" d="M142.314 60.5675C142.027 59.9032 141.884 59.015 141.232 58.8523C141 58.7372 141.147 58.5021 141.222 58.2984C142.538 54.7334 143.851 51.1798 145.168 47.6148C145.198 47.4862 145.255 47.3658 145.33 47.2709C145.405 47.176 145.495 47.1112 145.586 47.0859C147.843 46.5719 149.589 44.2375 151.507 42.4574C152.477 41.5793 153.352 40.465 154.08 39.1809C154.808 37.8969 155.373 36.4695 155.743 34.9841C155.96 34.141 156.321 33.9315 156.856 33.9693C157.135 33.9557 157.39 34.0718 157.583 34.3004C157.777 34.5291 157.899 34.8581 157.931 35.2391C157.895 36.9463 157.652 38.6958 157.212 40.413C156.714 41.7632 156.112 43.0565 155.421 44.2647C154.982 45.1984 154.484 46.1034 154.005 47.0305C154.09 47.2871 154.302 47.2715 154.464 47.3655L160.264 50.2427C161.076 50.6454 161.341 51.2054 161.148 52.1004C161.02 52.65 160.775 53.1629 160.45 53.5604C160.125 53.9579 159.738 54.2182 159.349 54.3012C159.162 54.3424 158.943 54.0998 158.783 54.4624C158.623 54.8251 158.92 54.9052 159.003 55.1206C159.456 56.2159 158.74 57.6682 157.596 58.1857C157.321 58.3037 156.982 58.0148 156.807 58.4639C156.633 58.913 157.03 58.976 157.098 59.3041C157.131 59.6166 157.11 59.9523 157.035 60.2842C156.961 60.616 156.835 60.9349 156.668 61.2153C156.501 61.4956 156.298 61.7297 156.074 61.8987C155.85 62.0677 155.613 62.1669 155.38 62.1884C155.244 62.1846 155.104 62.1962 154.964 62.223C154.832 62.2781 154.696 62.3446 154.81 62.6418C154.946 62.8814 155.022 63.1862 155.03 63.5217C155.039 63.8572 154.978 64.2098 154.857 64.5397C154.735 64.8696 154.556 65.1636 154.341 65.3882C154.126 65.6128 153.883 65.7592 153.639 65.8106L153.288 65.9713C152.877 66.112 152.473 66.0623 152.14 65.8299L143.063 61.3273C142.895 61.2961 142.741 61.2123 142.612 61.0814C142.483 60.9504 142.381 60.7753 142.314 60.5675Z" fill="#777676"/>
<path fill-rule="evenodd" clip-rule="evenodd" d="M136.281 48.0724C137.067 45.9458 137.852 43.8192 138.637 41.6927C138.795 41.2674 138.873 41.0547 139.289 41.2611C141.205 42.2113 143.12 43.1615 145.036 44.1117C145.412 44.2986 145.412 44.4999 145.24 44.9426C143.669 49.1957 142.101 53.4837 140.535 57.8066C140.335 58.3488 140.166 58.4538 139.769 58.2446C137.909 57.3216 136.056 56.4026 134.196 55.4796C133.732 55.2499 133.748 55.0061 133.948 54.4638C134.73 52.3479 135.492 50.2096 136.281 48.0724Z" fill="#777676"/>
<path d="M139.387 29.0577L136.533 27.7936L138.199 22.2027L139.387 29.0577Z" fill="#777676"/>
<path d="M104.644 45.3449C103.932 43.1866 103.832 40.9595 104.355 38.9453C104.879 36.9312 106.002 35.2205 107.584 34.0297C109.165 32.8389 111.134 32.2215 113.241 32.2556C115.347 32.2896 117.497 32.9737 119.418 34.2211C121.339 35.4686 122.945 37.2234 124.033 39.2636C125.121 41.3038 125.642 43.5377 125.53 45.6827C125.418 47.8277 124.678 49.7873 123.403 51.3138C122.129 52.8402 120.377 53.8648 118.37 54.258C115.682 54.7848 112.725 54.1419 110.152 52.4706C107.578 50.7994 105.597 48.2364 104.644 45.3449Z" fill="#777676"/>
<path d="M120.153 44.9596C118.902 47.9412 115.392 49.539 115.392 49.539C115.392 49.539 111.534 47.4905 109.683 44.3191C108.147 41.6747 108.691 38.945 110.667 38.4754C113.503 37.7811 114.741 42.8574 114.741 42.8574C114.741 42.8574 115.001 37.8964 118.005 38.9244C120.103 39.649 121.188 42.4725 120.153 44.9596Z" fill="#FB4C4C"/>
</svg>
