<svg width="174" height="62" viewBox="0 0 174 62" fill="none" xmlns="http://www.w3.org/2000/svg">
<path opacity="0.8" d="M169.75 23.8954L152.583 22.5093L145.763 8.72395C145.286 7.75868 143.714 7.75868 143.237 8.72395L136.417 22.5092L119.251 23.8954C118.048 23.9924 117.563 25.294 118.47 25.9876L131.422 35.8935L127.631 50.5355C127.366 51.5608 128.638 52.3651 129.676 51.8286L144.5 44.1655L159.324 51.8286C160.362 52.3652 161.634 51.5608 161.369 50.5355L157.578 35.8935L170.53 25.9876C171.437 25.294 170.951 23.9924 169.75 23.8954Z" fill="#FBE372"/>
<g opacity="0.7">
<path d="M126.576 6.49078C127.341 7.57298 129.414 12.1533 130.597 14.8213C130.783 15.2407 130.199 15.5778 129.856 15.2488C127.675 13.1566 123.949 9.52938 123.185 8.44707C122.579 7.59079 122.848 6.45865 123.785 5.91841C124.721 5.37817 125.971 5.6345 126.576 6.49078Z" fill="#ECC814"/>
<path d="M159.554 8.32387C158.674 9.31465 156.106 13.637 154.635 16.1574C154.403 16.5536 154.947 16.9534 155.324 16.6644C157.723 14.8268 161.828 11.6348 162.708 10.644C163.404 9.86008 163.262 8.70514 162.391 8.06441C161.52 7.42369 160.25 7.53993 159.554 8.32387Z" fill="#ECC814"/>
<path d="M170.858 39.4414C169.542 38.971 164.2 38.0178 161.094 37.485C160.606 37.4012 160.357 37.9887 160.778 38.2302C163.46 39.7664 168.098 42.3808 169.414 42.8512C170.456 43.2234 171.623 42.7618 172.022 41.8202C172.42 40.8785 171.899 39.8136 170.858 39.4414Z" fill="#ECC814"/>
<path d="M138.273 58.3453C138.344 57.0681 139.595 52.2795 140.345 49.5037C140.463 49.0674 141.157 49.106 141.226 49.5527C141.663 52.3945 142.376 57.2923 142.305 58.5694C142.249 59.58 141.301 60.3491 140.187 60.2872C139.074 60.2254 138.217 59.3558 138.273 58.3453Z" fill="#ECC814"/>
</g>
<path d="M30.3516 39.7734C30.3516 40.6172 30.6562 41.3203 31.2422 41.9062C31.8281 42.4922 32.5547 42.7969 33.375 42.7969H35.3906V48H33.375C32.0391 48 30.7969 47.7188 29.6953 47.1562C29.0391 49.2422 27.8672 51.0703 26.2031 52.6875C23.4141 55.3828 19.9922 56.6953 15.9375 56.6484C12.3047 56.4141 9.25781 55.0781 6.79688 52.6406C4.33594 50.2031 2.95312 47.1797 2.67188 43.5469C2.60156 38.7422 4.3125 34.9219 7.78125 32.0625L8.50781 32.9766C9.77344 34.7812 9.91406 36.6562 8.90625 38.6484C8.17969 39.9609 7.82812 41.4141 7.85156 43.0078C7.94531 45.2812 8.74219 47.2266 10.2656 48.7969C11.7891 50.3672 13.6641 51.2578 15.9375 51.4688C18.5391 51.5391 20.7188 50.7422 22.5 49.0547C24.2812 47.3672 25.1719 45.2812 25.1719 42.7969V18.2344C25.1719 16.8047 25.6875 15.5859 26.6953 14.5781C27.7031 13.5703 28.9219 13.0547 30.3516 13.0547V39.7734ZM45.6562 42.8203H51.6094C50.6484 39.1875 48.8203 37.2422 46.125 36.9375H46.0312C45.9375 36.9141 45.8672 36.9141 45.7969 36.9141H45.6562C44.8359 36.9609 44.1562 37.2656 43.6172 37.8281C43.0781 38.3906 42.7969 39.0703 42.7969 39.8672C42.7969 40.6641 43.0781 41.3438 43.6172 41.9062C44.1562 42.4688 44.8359 42.7734 45.6562 42.8203ZM66.6562 48H34.4531V42.8203H38.1797C37.8047 41.9062 37.6172 40.9219 37.6172 39.8672C37.6172 37.6641 38.3672 35.7891 39.8906 34.2422C41.3906 32.6953 43.2656 31.8516 45.5156 31.7344H45.75C46.0078 31.7344 46.2422 31.7578 46.5 31.7812C48.8906 31.9453 51.0469 32.9062 52.9453 34.7109C54.8438 36.5156 56.1797 39.2344 56.9297 42.8203H61.0781C59.6484 34.4766 55.7344 29.9531 49.3359 29.25L49.2656 29.2266C49.0078 29.2031 48.7734 29.2031 48.5625 29.2031H48.2578C47.2266 29.25 46.2656 29.4609 45.375 29.8359C43.8281 30.4219 42.375 30.2578 41.0156 29.2969L39.2109 27.9375C41.5312 25.5234 44.5312 24.2344 48.1641 24.0234H48.5391C48.9375 24.0234 49.3125 24.0469 49.7109 24.0703C52.6875 24.2812 55.4766 25.2656 58.0312 27.0234C60.5859 28.8047 62.6484 31.4297 64.2656 34.875C65.8594 38.3438 66.6562 42.7266 66.6562 48ZM81.3047 48H80.3906C78.1641 47.9766 76.2656 47.1797 74.6953 45.5859C73.0781 43.9922 72.2812 42.0703 72.2812 39.7969V18.2578C72.2812 16.8281 72.7969 15.5859 73.8047 14.5781C74.8125 13.5703 76.0312 13.0781 77.4609 13.0781V39.7969C77.4609 40.6406 77.7656 41.3438 78.3516 41.9297C78.9375 42.5156 79.6406 42.8203 80.4844 42.8203H81.3047V48ZM86.4375 21.5391C86.4375 22.3594 86.1328 23.0859 85.5469 23.6719C84.9609 24.2578 84.2344 24.5625 83.4141 24.5625C82.5938 24.5625 81.8672 24.2578 81.2812 23.6719C80.6953 23.0859 80.3906 22.3594 80.3906 21.5391C80.3906 20.7188 80.6953 19.9922 81.2812 19.4062C81.8672 18.8203 82.5938 18.5156 83.4141 18.5156C84.2344 18.5156 84.9609 18.8203 85.5469 19.4062C86.1328 19.9922 86.4375 20.7188 86.4375 21.5391ZM89.4375 32.1094C89.4375 30.6797 89.9531 29.4375 90.9609 28.4297C91.9688 27.4219 93.1875 26.9062 94.6172 26.9062V39.7969C94.6172 40.6172 94.9219 41.3438 95.5078 41.9297C96.0938 42.5156 96.8203 42.8203 97.6406 42.8203H98.4844V48H97.6406C95.4609 48 93.5859 47.25 92.0156 45.7734C90.4453 47.25 88.5938 48 86.4141 48H80.4141V42.8203H86.4141C87.2344 42.8203 87.9609 42.5156 88.5469 41.9297C89.1328 41.3438 89.4375 40.6172 89.4375 39.7969V32.1094ZM93.2109 21.5391C93.2109 22.3594 92.9297 23.0859 92.3438 23.6719C91.7578 24.2578 91.0312 24.5625 90.1875 24.5625C89.3672 24.5625 88.6406 24.2578 88.0547 23.6719C87.4688 23.0859 87.1641 22.3594 87.1641 21.5391C87.1641 20.7188 87.4688 19.9922 88.0547 19.4062C88.6406 18.8203 89.3672 18.5156 90.1875 18.5156C91.0312 18.5156 91.7578 18.8203 92.3438 19.4062C92.9297 19.9922 93.2109 20.7188 93.2109 21.5391ZM105.281 35.3672C105.281 33.9375 105.797 32.6953 106.805 31.6875C107.812 30.6797 109.031 30.1641 110.461 30.1641V40.2188C110.461 40.9453 110.719 41.5547 111.234 42.0469C111.727 42.5625 112.336 42.8203 113.062 42.8203C113.789 42.8203 114.398 42.5625 114.914 42.0469C115.406 41.5547 115.664 40.9453 115.664 40.2188V33.7266C115.664 32.2969 116.18 31.0781 117.188 30.0703C118.195 29.0625 119.414 28.5469 120.844 28.5469V40.2188C120.844 40.9453 121.102 41.5547 121.594 42.0469C122.086 42.5625 122.695 42.8203 123.422 42.8203C124.148 42.8203 124.758 42.5625 125.273 42.0469C125.766 41.5547 126.023 40.9453 126.023 40.2188V32.1094C126.023 30.6797 126.539 29.4375 127.547 28.4297C128.555 27.4219 129.773 26.9062 131.203 26.9062V39.7969C131.203 40.6172 131.508 41.3438 132.094 41.9297C132.68 42.5156 133.406 42.8203 134.227 42.8203H136.594V48H134.227C132.234 48 130.477 47.3672 129 46.125C127.688 47.3672 126.117 48 124.289 48H122.555C120.914 48 119.484 47.5078 118.242 46.5C117 47.5078 115.57 48 113.93 48H112.195C110.367 48 108.797 47.3672 107.484 46.125C106.008 47.3672 104.25 48 102.258 48H97.5469V42.8203H102.258C103.102 42.8203 103.828 42.5156 104.414 41.9297C105 41.3438 105.281 40.6172 105.281 39.7969V35.3672ZM144.727 39.7969V32.1094C144.727 30.6797 145.242 29.4375 146.25 28.4297C147.258 27.4219 148.477 26.9062 149.906 26.9062V39.7969C149.906 42.0703 149.109 43.9922 147.516 45.5859C145.898 47.2031 143.977 48 141.703 48H135.703V42.8203H141.703C142.523 42.8203 143.25 42.5156 143.836 41.9297C144.422 41.3438 144.727 40.6172 144.727 39.7969ZM148.477 21.5391C148.477 22.3594 148.195 23.0859 147.609 23.6719C147.023 24.2578 146.297 24.5625 145.453 24.5625C144.633 24.5625 143.906 24.2578 143.32 23.6719C142.734 23.0859 142.43 22.3594 142.43 21.5391C142.43 20.7188 142.734 19.9922 143.32 19.4062C143.906 18.8203 144.633 18.5156 145.453 18.5156C146.297 18.5156 147.023 18.8203 147.609 19.4062C148.195 19.9922 148.477 20.7188 148.477 21.5391ZM141.703 21.5391C141.703 22.3594 141.398 23.0859 140.812 23.6719C140.227 24.2578 139.5 24.5625 138.68 24.5625C137.859 24.5625 137.133 24.2578 136.547 23.6719C135.961 23.0859 135.656 22.3594 135.656 21.5391C135.656 20.7188 135.961 19.9922 136.547 19.4062C137.133 18.8203 137.859 18.5156 138.68 18.5156C139.5 18.5156 140.227 18.8203 140.812 19.4062C141.398 19.9922 141.703 20.7188 141.703 21.5391Z" fill="white"/>
</svg>
